  0
SECTION
  2
HEADER
  9
$ACADVER
  1
AC1018
  9
$HANDSEED
  5
FFFFFFFF
  9
$ANGBASE
  50
0.0
  9
$ANGDIR
  70
1
  9
$MEASUREMENT
  70
0
  9
$INSUNITS
  70
1
  0
ENDSEC
  0
SECTION
  2
TABLES
  0
TABLE
  2
APPID
  5
1
330
0
100
AcDbSymbolTable
 70
1
  0
APPID
  5
2
330
1
100
AcDbSymbolTableRecord
100
AcDbRegAppTableRecord
  2
ACAD
 70
0
  0
ENDTAB
  0
TABLE
  2
LTYPE
  5
3
330
0
100
AcDbSymbolTable
 70
6
  0
LTYPE
  5
4
330
3
100
AcDbSymbolTableRecord
100
AcDbLinetypeTableRecord
  2
ByBlock
 70
0
  3

 72
65
 73
0
 40
0
  0
LTYPE
  5
5
330
3
100
AcDbSymbolTableRecord
100
AcDbLinetypeTableRecord
  2
ByLayer
 70
0
  3

 72
65
 73
0
 40
0
  0
LTYPE
  5
6
330
3
100
AcDbSymbolTableRecord
100
AcDbLinetypeTableRecord
  2
CONTINUOUS
 70
0
  3
Solid line
 72
65
 73
0
 40
0
  0
LTYPE
  5
7
330
3
100
AcDbSymbolTableRecord
100
AcDbLinetypeTableRecord
  2
DASHDOT
 70
0
  3
Dash Dot ____ _ ____ _
 72
65
 73
4
 40
2
 49
1.25
 74
0
 49
-0.25
 74
0
 49
0.25
 74
0
 49
-0.25
 74
0
  0
LTYPE
  5
8
330
3
100
AcDbSymbolTableRecord
100
AcDbLinetypeTableRecord
  2
DASHED
 70
0
  3
Dashed __ __ __ __ __
 72
65
 73
2
 40
0.75
 49
0.5
 74
0
 49
-0.25
 74
0
  0
LTYPE
  5
9
330
3
100
AcDbSymbolTableRecord
100
AcDbLinetypeTableRecord
  2
DOTTED
 70
0
  3
Dotted .  .  .  .
 72
65
 73
2
 40
0.2
 49
0.0
 74
0
 49
-0.2
 74
0
  0
ENDTAB
  0
TABLE
  2
STYLE
  5
A
330
0
100
AcDbSymbolTable
 70
4
  0
STYLE
  5
B
330
A
100
AcDbSymbolTableRecord
100
AcDbTextStyleTableRecord
  2
KICAD
 70
0
 40
0
 41
1
 42
1
 50
0
 71
0
  3
isocp.shx
  0
STYLE
  5
C
330
A
100
AcDbSymbolTableRecord
100
AcDbTextStyleTableRecord
  2
KICADB
 70
0
 40
0
 41
1
 42
1
 50
0
 71
0
  3
isocp.shx
  0
STYLE
  5
D
330
A
100
AcDbSymbolTableRecord
100
AcDbTextStyleTableRecord
  2
KICADI
 70
0
 40
0
 41
1
 42
1
 50
15
 71
0
  3
isocp.shx
  0
STYLE
  5
E
330
A
100
AcDbSymbolTableRecord
100
AcDbTextStyleTableRecord
  2
KICADBI
 70
0
 40
0
 41
1
 42
1
 50
15
 71
0
  3
isocp.shx
  0
ENDTAB
  0
TABLE
  2
LAYER
  5
F
330
0
100
AcDbSymbolTable
 70
3
  0
LAYER
  5
12
330
F
100
AcDbSymbolTableRecord
100
AcDbLayerTableRecord
  2
0
 70
0
 62
7
  6
CONTINUOUS
390
10
  0
LAYER
  5
13
330
F
100
AcDbSymbolTableRecord
100
AcDbLayerTableRecord
  2
F.Silkscreen
 70
0
 62
41
420
15920545
  6
CONTINUOUS
390
10
  0
LAYER
  5
14
330
F
100
AcDbSymbolTableRecord
100
AcDbLayerTableRecord
  2
Edge.Cuts
 70
0
 62
254
420
13685453
  6
CONTINUOUS
390
10
  0
ENDTAB
  0
TABLE
  2
VPORT
  5
15
330
0
100
AcDbSymbolTable
 70
0
  0
ENDTAB
  0
TABLE
  2
VIEW
  5
16
330
0
100
AcDbSymbolTable
 70
0
  0
ENDTAB
  0
TABLE
  2
UCS
  5
17
330
0
100
AcDbSymbolTable
 70
0
  0
ENDTAB
  0
TABLE
  2
DIMSTYLE
  5
18
330
0
100
AcDbSymbolTable
 70
1
100
AcDbDimStyleTable
 71
0
  0
DIMSTYLE
105
19
330
18
100
AcDbSymbolTableRecord
100
AcDbDimStyleTableRecord
  2
Standard
 70
0
  0
ENDTAB
  0
TABLE
  2
BLOCK_RECORD
  5
1A
330
0
100
AcDbSymbolTable
 70
3
  0
BLOCK_RECORD
  5
1B
330
1A
100
AcDbSymbolTableRecord
100
AcDbBlockTableRecord
  2
*Model_Space
340
1E
 70
0
280
1
281
0
  0
BLOCK_RECORD
  5
1C
330
1A
100
AcDbSymbolTableRecord
100
AcDbBlockTableRecord
  2
*Paper_Space
340
1F
 70
0
280
1
281
0
  0
BLOCK_RECORD
  5
1D
330
1A
100
AcDbSymbolTableRecord
100
AcDbBlockTableRecord
  2
*Paper_Space0
340
20
 70
0
280
1
281
0
  0
ENDTAB
  0
ENDSEC
  0
SECTION
  2
BLOCKS
  0
BLOCK
  5
24
330
1B
100
AcDbEntity
  8
0
100
AcDbBlockBegin
  2
*Model_Space
 70
0
 10
0.0
 20
0.0
 30
0.0
  3
*Model_Space
  1

  0
ENDBLK
  5
23
330
1B
100
AcDbEntity
  8
0
100
AcDbBlockEnd
  0
BLOCK
  5
26
330
1C
100
AcDbEntity
 67
1
  8
0
100
AcDbBlockBegin
  2
*Paper_Space
 70
0
 10
0.0
 20
0.0
 30
0.0
  3
*Paper_Space
  1

  0
ENDBLK
  5
25
330
1C
100
AcDbEntity
 67
1
  8
0
100
AcDbBlockEnd
  0
BLOCK
  5
28
330
1D
100
AcDbEntity
 67
1
  8
0
100
AcDbBlockBegin
  2
*Paper_Space0
 70
0
 10
0.0
 20
0.0
 30
0.0
  3
*Paper_Space0
  1

  0
ENDBLK
  5
27
330
1D
100
AcDbEntity
 67
1
  8
0
100
AcDbBlockEnd
  0
ENDSEC
  0
SECTION
  2
ENTITIES
  0
LINE
  5
29
330
1B
100
AcDbEntity
  8
BLACK
  6
CONTINUOUS
100
AcDbLine
 10
6.9685905511811024
 20
-6.5357165354330711
 30
0
 11
11.2205590551181107
 21
-6.5357165354330711
 31
0
  0
LINE
  5
2A
330
1B
100
AcDbEntity
  8
BLACK
  6
CONTINUOUS
100
AcDbLine
 10
11.2205590551181107
 20
-6.5357165354330711
 30
0
 11
11.2205590551181107
 21
-7.79555905511811
 31
0
  0
LINE
  5
2B
330
1B
100
AcDbEntity
  8
BLACK
  6
CONTINUOUS
100
AcDbLine
 10
11.2205590551181107
 20
-7.79555905511811
 30
0
 11
6.9685905511811024
 21
-7.79555905511811
 31
0
  0
LINE
  5
2C
330
1B
100
AcDbEntity
  8
BLACK
  6
CONTINUOUS
100
AcDbLine
 10
6.9685905511811024
 20
-7.79555905511811
 30
0
 11
6.9685905511811024
 21
-6.5357165354330711
 31
0
  0
LINE
  5
2D
330
1B
100
AcDbEntity
  8
BLACK
  6
CONTINUOUS
100
AcDbLine
 10
0.3937007874015748
 20
-0.3937007874015748
 30
0
 11
11.2992992125984255
 21
-0.3937007874015748
 31
0
  0
LINE
  5
2E
330
1B
100
AcDbEntity
  8
BLACK
  6
CONTINUOUS
100
AcDbLine
 10
11.2992992125984255
 20
-0.3937007874015748
 30
0
 11
11.2992992125984255
 21
-7.8742992125984248
 31
0
  0
LINE
  5
2F
330
1B
100
AcDbEntity
  8
BLACK
  6
CONTINUOUS
100
AcDbLine
 10
11.2992992125984255
 20
-7.8742992125984248
 30
0
 11
0.3937007874015748
 21
-7.8742992125984248
 31
0
  0
LINE
  5
30
330
1B
100
AcDbEntity
  8
BLACK
  6
CONTINUOUS
100
AcDbLine
 10
0.3937007874015748
 20
-7.8742992125984248
 30
0
 11
0.3937007874015748
 21
-0.3937007874015748
 31
0
  0
LINE
  5
31
330
1B
100
AcDbEntity
  8
BLACK
  6
CONTINUOUS
100
AcDbLine
 10
0.4724409448818898
 20
-0.4724409448818898
 30
0
 11
11.2205590551181107
 21
-0.4724409448818898
 31
0
  0
LINE
  5
32
330
1B
100
AcDbEntity
  8
BLACK
  6
CONTINUOUS
100
AcDbLine
 10
11.2205590551181107
 20
-0.4724409448818898
 30
0
 11
11.2205590551181107
 21
-7.79555905511811
 31
0
  0
LINE
  5
33
330
1B
100
AcDbEntity
  8
BLACK
  6
CONTINUOUS
100
AcDbLine
 10
11.2205590551181107
 20
-7.79555905511811
 30
0
 11
0.4724409448818898
 21
-7.79555905511811
 31
0
  0
LINE
  5
34
330
1B
100
AcDbEntity
  8
BLACK
  6
CONTINUOUS
100
AcDbLine
 10
0.4724409448818898
 20
-7.79555905511811
 30
0
 11
0.4724409448818898
 21
-0.4724409448818898
 31
0
  0
LINE
  5
35
330
1B
100
AcDbEntity
  8
BLACK
  6
CONTINUOUS
100
AcDbLine
 10
2.3622047244094486
 20
-0.4724409448818898
 30
0
 11
2.3622047244094486
 21
-0.3937007874015748
 31
0
  0
LINE
  5
36
330
1B
100
AcDbEntity
  8
BLACK
  6
CONTINUOUS
100
AcDbLine
 10
4.3307086614173231
 20
-0.4724409448818898
 30
0
 11
4.3307086614173231
 21
-0.3937007874015748
 31
0
  0
LINE
  5
37
330
1B
100
AcDbEntity
  8
BLACK
  6
CONTINUOUS
100
AcDbLine
 10
6.2992125984251963
 20
-0.4724409448818898
 30
0
 11
6.2992125984251963
 21
-0.3937007874015748
 31
0
  0
LINE
  5
38
330
1B
100
AcDbEntity
  8
BLACK
  6
CONTINUOUS
100
AcDbLine
 10
8.2677165354330704
 20
-0.4724409448818898
 30
0
 11
8.2677165354330704
 21
-0.3937007874015748
 31
0
  0
LINE
  5
39
330
1B
100
AcDbEntity
  8
BLACK
  6
CONTINUOUS
100
AcDbLine
 10
10.2362204724409445
 20
-0.4724409448818898
 30
0
 11
10.2362204724409445
 21
-0.3937007874015748
 31
0
  0
LINE
  5
3A
330
1B
100
AcDbEntity
  8
BLACK
  6
CONTINUOUS
100
AcDbLine
 10
1.4208330708661416
 20
-0.4564411023622047
 30
0
 11
1.3915867322834645
 21
-0.4564411023622047
 31
0
  0
LINE
  5
3B
330
1B
100
AcDbEntity
  8
BLACK
  6
CONTINUOUS
100
AcDbLine
 10
1.4062098818897637
 20
-0.4564411023622047
 30
0
 11
1.4062098818897637
 21
-0.40526
 31
0
  0
LINE
  5
3C
330
1B
100
AcDbEntity
  8
BLACK
  6
CONTINUOUS
100
AcDbLine
 10
1.4062098818897637
 20
-0.40526
 30
0
 11
1.4013355118110236
 21
-0.4125716141732284
 31
0
  0
LINE
  5
3D
330
1B
100
AcDbEntity
  8
BLACK
  6
CONTINUOUS
100
AcDbLine
 10
1.4013355118110236
 20
-0.4125716141732284
 30
0
 11
1.3964611023622047
 21
-0.4174459842519685
 31
0
  0
LINE
  5
3E
330
1B
100
AcDbEntity
  8
BLACK
  6
CONTINUOUS
100
AcDbLine
 10
1.3964611023622047
 20
-0.4174459842519685
 30
0
 11
1.3915867322834645
 21
-0.4198831889763779
 31
0
  0
LINE
  5
3F
330
1B
100
AcDbEntity
  8
BLACK
  6
CONTINUOUS
100
AcDbLine
 10
3.3600906692913384
 20
-0.4101344094488189
 30
0
 11
3.3625278346456691
 21
-0.4076972047244095
 31
0
  0
LINE
  5
40
330
1B
100
AcDbEntity
  8
BLACK
  6
CONTINUOUS
100
AcDbLine
 10
3.3625278346456691
 20
-0.4076972047244095
 30
0
 11
3.367402244094488
 21
-0.40526
 31
0
  0
LINE
  5
41
330
1B
100
AcDbEntity
  8
BLACK
  6
CONTINUOUS
100
AcDbLine
 10
3.367402244094488
 20
-0.40526
 30
0
 11
3.3795882283464564
 21
-0.40526
 31
0
  0
LINE
  5
42
330
1B
100
AcDbEntity
  8
BLACK
  6
CONTINUOUS
100
AcDbLine
 10
3.3795882283464564
 20
-0.40526
 30
0
 11
3.3844625984251966
 21
-0.4076972047244095
 31
0
  0
LINE
  5
43
330
1B
100
AcDbEntity
  8
BLACK
  6
CONTINUOUS
100
AcDbLine
 10
3.3844625984251966
 20
-0.4076972047244095
 30
0
 11
3.386899803149606
 21
-0.4101344094488189
 31
0
  0
LINE
  5
44
330
1B
100
AcDbEntity
  8
BLACK
  6
CONTINUOUS
100
AcDbLine
 10
3.386899803149606
 20
-0.4101344094488189
 30
0
 11
3.3893370078740155
 21
-0.415008779527559
 31
0
  0
LINE
  5
45
330
1B
100
AcDbEntity
  8
BLACK
  6
CONTINUOUS
100
AcDbLine
 10
3.3893370078740155
 20
-0.415008779527559
 30
0
 11
3.3893370078740155
 21
-0.4198831889763779
 31
0
  0
LINE
  5
46
330
1B
100
AcDbEntity
  8
BLACK
  6
CONTINUOUS
100
AcDbLine
 10
3.3893370078740155
 20
-0.4198831889763779
 30
0
 11
3.386899803149606
 21
-0.4271947637795275
 31
0
  0
LINE
  5
47
330
1B
100
AcDbEntity
  8
BLACK
  6
CONTINUOUS
100
AcDbLine
 10
3.386899803149606
 20
-0.4271947637795275
 30
0
 11
3.3576534645669289
 21
-0.4564411023622047
 31
0
  0
LINE
  5
48
330
1B
100
AcDbEntity
  8
BLACK
  6
CONTINUOUS
100
AcDbLine
 10
3.3576534645669289
 20
-0.4564411023622047
 30
0
 11
3.3893370078740155
 21
-0.4564411023622047
 31
0
  0
LINE
  5
49
330
1B
100
AcDbEntity
  8
BLACK
  6
CONTINUOUS
100
AcDbLine
 10
5.326157401574803
 20
-0.40526
 30
0
 11
5.3578409448818896
 21
-0.40526
 31
0
  0
LINE
  5
4A
330
1B
100
AcDbEntity
  8
BLACK
  6
CONTINUOUS
100
AcDbLine
 10
5.3578409448818896
 20
-0.40526
 30
0
 11
5.3407805511811022
 21
-0.4247575590551181
 31
0
  0
LINE
  5
4B
330
1B
100
AcDbEntity
  8
BLACK
  6
CONTINUOUS
100
AcDbLine
 10
5.3407805511811022
 20
-0.4247575590551181
 30
0
 11
5.3480921653543305
 21
-0.4247575590551181
 31
0
  0
LINE
  5
4C
330
1B
100
AcDbEntity
  8
BLACK
  6
CONTINUOUS
100
AcDbLine
 10
5.3480921653543305
 20
-0.4247575590551181
 30
0
 11
5.3529665354330707
 21
-0.4271947637795275
 31
0
  0
LINE
  5
4D
330
1B
100
AcDbEntity
  8
BLACK
  6
CONTINUOUS
100
AcDbLine
 10
5.3529665354330707
 20
-0.4271947637795275
 30
0
 11
5.3554037401574801
 21
-0.429631968503937
 31
0
  0
LINE
  5
4E
330
1B
100
AcDbEntity
  8
BLACK
  6
CONTINUOUS
100
AcDbLine
 10
5.3554037401574801
 20
-0.429631968503937
 30
0
 11
5.3578409448818896
 21
-0.4345063385826772
 31
0
  0
LINE
  5
4F
330
1B
100
AcDbEntity
  8
BLACK
  6
CONTINUOUS
100
AcDbLine
 10
5.3578409448818896
 20
-0.4345063385826772
 30
0
 11
5.3578409448818896
 21
-0.4466923228346457
 31
0
  0
LINE
  5
50
330
1B
100
AcDbEntity
  8
BLACK
  6
CONTINUOUS
100
AcDbLine
 10
5.3578409448818896
 20
-0.4466923228346457
 30
0
 11
5.3554037401574801
 21
-0.4515667322834646
 31
0
  0
LINE
  5
51
330
1B
100
AcDbEntity
  8
BLACK
  6
CONTINUOUS
100
AcDbLine
 10
5.3554037401574801
 20
-0.4515667322834646
 30
0
 11
5.3529665354330707
 21
-0.454003937007874
 31
0
  0
LINE
  5
52
330
1B
100
AcDbEntity
  8
BLACK
  6
CONTINUOUS
100
AcDbLine
 10
5.3529665354330707
 20
-0.454003937007874
 30
0
 11
5.3480921653543305
 21
-0.4564411023622047
 31
0
  0
LINE
  5
53
330
1B
100
AcDbEntity
  8
BLACK
  6
CONTINUOUS
100
AcDbLine
 10
5.3480921653543305
 20
-0.4564411023622047
 30
0
 11
5.3334689763779526
 21
-0.4564411023622047
 31
0
  0
LINE
  5
54
330
1B
100
AcDbEntity
  8
BLACK
  6
CONTINUOUS
100
AcDbLine
 10
5.3334689763779526
 20
-0.4564411023622047
 30
0
 11
5.3285946062992124
 21
-0.454003937007874
 31
0
  0
LINE
  5
55
330
1B
100
AcDbEntity
  8
BLACK
  6
CONTINUOUS
100
AcDbLine
 10
5.3285946062992124
 20
-0.454003937007874
 30
0
 11
5.326157401574803
 21
-0.4515667322834646
 31
0
  0
LINE
  5
56
330
1B
100
AcDbEntity
  8
BLACK
  6
CONTINUOUS
100
AcDbLine
 10
7.3214704724409447
 20
-0.4223203937007874
 30
0
 11
7.3214704724409447
 21
-0.4564411023622047
 31
0
  0
LINE
  5
57
330
1B
100
AcDbEntity
  8
BLACK
  6
CONTINUOUS
100
AcDbLine
 10
7.3092844881889762
 20
-0.4028228346456693
 30
0
 11
7.2970985433070865
 21
-0.4393807480314961
 31
0
  0
LINE
  5
58
330
1B
100
AcDbEntity
  8
BLACK
  6
CONTINUOUS
100
AcDbLine
 10
7.2970985433070865
 20
-0.4393807480314961
 30
0
 11
7.3287820472440943
 21
-0.4393807480314961
 31
0
  0
LINE
  5
59
330
1B
100
AcDbEntity
  8
BLACK
  6
CONTINUOUS
100
AcDbLine
 10
9.2924116141732274
 20
-0.40526
 30
0
 11
9.2680396456692904
 21
-0.40526
 31
0
  0
LINE
  5
5A
330
1B
100
AcDbEntity
  8
BLACK
  6
CONTINUOUS
100
AcDbLine
 10
9.2680396456692904
 20
-0.40526
 30
0
 11
9.2656024803149606
 21
-0.429631968503937
 31
0
  0
LINE
  5
5B
330
1B
100
AcDbEntity
  8
BLACK
  6
CONTINUOUS
100
AcDbLine
 10
9.2656024803149606
 20
-0.429631968503937
 30
0
 11
9.2680396456692904
 21
-0.4271947637795275
 31
0
  0
LINE
  5
5C
330
1B
100
AcDbEntity
  8
BLACK
  6
CONTINUOUS
100
AcDbLine
 10
9.2680396456692904
 20
-0.4271947637795275
 30
0
 11
9.2729140551181093
 21
-0.4247575590551181
 31
0
  0
LINE
  5
5D
330
1B
100
AcDbEntity
  8
BLACK
  6
CONTINUOUS
100
AcDbLine
 10
9.2729140551181093
 20
-0.4247575590551181
 30
0
 11
9.2851000393700787
 21
-0.4247575590551181
 31
0
  0
LINE
  5
5E
330
1B
100
AcDbEntity
  8
BLACK
  6
CONTINUOUS
100
AcDbLine
 10
9.2851000393700787
 20
-0.4247575590551181
 30
0
 11
9.2899744094488188
 21
-0.4271947637795275
 31
0
  0
LINE
  5
5F
330
1B
100
AcDbEntity
  8
BLACK
  6
CONTINUOUS
100
AcDbLine
 10
9.2899744094488188
 20
-0.4271947637795275
 30
0
 11
9.2924116141732274
 21
-0.429631968503937
 31
0
  0
LINE
  5
60
330
1B
100
AcDbEntity
  8
BLACK
  6
CONTINUOUS
100
AcDbLine
 10
9.2924116141732274
 20
-0.429631968503937
 30
0
 11
9.2948488188976377
 21
-0.4345063385826772
 31
0
  0
LINE
  5
61
330
1B
100
AcDbEntity
  8
BLACK
  6
CONTINUOUS
100
AcDbLine
 10
9.2948488188976377
 20
-0.4345063385826772
 30
0
 11
9.2948488188976377
 21
-0.4466923228346457
 31
0
  0
LINE
  5
62
330
1B
100
AcDbEntity
  8
BLACK
  6
CONTINUOUS
100
AcDbLine
 10
9.2948488188976377
 20
-0.4466923228346457
 30
0
 11
9.2924116141732274
 21
-0.4515667322834646
 31
0
  0
LINE
  5
63
330
1B
100
AcDbEntity
  8
BLACK
  6
CONTINUOUS
100
AcDbLine
 10
9.2924116141732274
 20
-0.4515667322834646
 30
0
 11
9.2899744094488188
 21
-0.454003937007874
 31
0
  0
LINE
  5
64
330
1B
100
AcDbEntity
  8
BLACK
  6
CONTINUOUS
100
AcDbLine
 10
9.2899744094488188
 20
-0.454003937007874
 30
0
 11
9.2851000393700787
 21
-0.4564411023622047
 31
0
  0
LINE
  5
65
330
1B
100
AcDbEntity
  8
BLACK
  6
CONTINUOUS
100
AcDbLine
 10
9.2851000393700787
 20
-0.4564411023622047
 30
0
 11
9.2729140551181093
 21
-0.4564411023622047
 31
0
  0
LINE
  5
66
330
1B
100
AcDbEntity
  8
BLACK
  6
CONTINUOUS
100
AcDbLine
 10
9.2729140551181093
 20
-0.4564411023622047
 30
0
 11
9.2680396456692904
 21
-0.454003937007874
 31
0
  0
LINE
  5
67
330
1B
100
AcDbEntity
  8
BLACK
  6
CONTINUOUS
100
AcDbLine
 10
9.2680396456692904
 20
-0.454003937007874
 30
0
 11
9.2656024803149606
 21
-0.4515667322834646
 31
0
  0
LINE
  5
68
330
1B
100
AcDbEntity
  8
BLACK
  6
CONTINUOUS
100
AcDbLine
 10
11.2584783464566929
 20
-0.40526
 30
0
 11
11.2487295669291338
 21
-0.40526
 31
0
  0
LINE
  5
69
330
1B
100
AcDbEntity
  8
BLACK
  6
CONTINUOUS
100
AcDbLine
 10
11.2487295669291338
 20
-0.40526
 30
0
 11
11.2438551968503937
 21
-0.4076972047244095
 31
0
  0
LINE
  5
6A
330
1B
100
AcDbEntity
  8
BLACK
  6
CONTINUOUS
100
AcDbLine
 10
11.2438551968503937
 20
-0.4076972047244095
 30
0
 11
11.2414179921259834
 21
-0.4101344094488189
 31
0
  0
LINE
  5
6B
330
1B
100
AcDbEntity
  8
BLACK
  6
CONTINUOUS
100
AcDbLine
 10
11.2414179921259834
 20
-0.4101344094488189
 30
0
 11
11.2365435826771645
 21
-0.4174459842519685
 31
0
  0
LINE
  5
6C
330
1B
100
AcDbEntity
  8
BLACK
  6
CONTINUOUS
100
AcDbLine
 10
11.2365435826771645
 20
-0.4174459842519685
 30
0
 11
11.2341064173228347
 21
-0.4271947637795275
 31
0
  0
LINE
  5
6D
330
1B
100
AcDbEntity
  8
BLACK
  6
CONTINUOUS
100
AcDbLine
 10
11.2341064173228347
 20
-0.4271947637795275
 30
0
 11
11.2341064173228347
 21
-0.4466923228346457
 31
0
  0
LINE
  5
6E
330
1B
100
AcDbEntity
  8
BLACK
  6
CONTINUOUS
100
AcDbLine
 10
11.2341064173228347
 20
-0.4466923228346457
 30
0
 11
11.2365435826771645
 21
-0.4515667322834646
 31
0
  0
LINE
  5
6F
330
1B
100
AcDbEntity
  8
BLACK
  6
CONTINUOUS
100
AcDbLine
 10
11.2365435826771645
 20
-0.4515667322834646
 30
0
 11
11.2389807874015748
 21
-0.454003937007874
 31
0
  0
LINE
  5
70
330
1B
100
AcDbEntity
  8
BLACK
  6
CONTINUOUS
100
AcDbLine
 10
11.2389807874015748
 20
-0.454003937007874
 30
0
 11
11.2438551968503937
 21
-0.4564411023622047
 31
0
  0
LINE
  5
71
330
1B
100
AcDbEntity
  8
BLACK
  6
CONTINUOUS
100
AcDbLine
 10
11.2438551968503937
 20
-0.4564411023622047
 30
0
 11
11.2536039763779527
 21
-0.4564411023622047
 31
0
  0
LINE
  5
72
330
1B
100
AcDbEntity
  8
BLACK
  6
CONTINUOUS
100
AcDbLine
 10
11.2536039763779527
 20
-0.4564411023622047
 30
0
 11
11.2584783464566929
 21
-0.454003937007874
 31
0
  0
LINE
  5
73
330
1B
100
AcDbEntity
  8
BLACK
  6
CONTINUOUS
100
AcDbLine
 10
11.2584783464566929
 20
-0.454003937007874
 30
0
 11
11.2609155511811014
 21
-0.4515667322834646
 31
0
  0
LINE
  5
74
330
1B
100
AcDbEntity
  8
BLACK
  6
CONTINUOUS
100
AcDbLine
 10
11.2609155511811014
 20
-0.4515667322834646
 30
0
 11
11.2633527559055118
 21
-0.4466923228346457
 31
0
  0
LINE
  5
75
330
1B
100
AcDbEntity
  8
BLACK
  6
CONTINUOUS
100
AcDbLine
 10
11.2633527559055118
 20
-0.4466923228346457
 30
0
 11
11.2633527559055118
 21
-0.4345063385826772
 31
0
  0
LINE
  5
76
330
1B
100
AcDbEntity
  8
BLACK
  6
CONTINUOUS
100
AcDbLine
 10
11.2633527559055118
 20
-0.4345063385826772
 30
0
 11
11.2609155511811014
 21
-0.429631968503937
 31
0
  0
LINE
  5
77
330
1B
100
AcDbEntity
  8
BLACK
  6
CONTINUOUS
100
AcDbLine
 10
11.2609155511811014
 20
-0.429631968503937
 30
0
 11
11.2584783464566929
 21
-0.4271947637795275
 31
0
  0
LINE
  5
78
330
1B
100
AcDbEntity
  8
BLACK
  6
CONTINUOUS
100
AcDbLine
 10
11.2584783464566929
 20
-0.4271947637795275
 30
0
 11
11.2536039763779527
 21
-0.4247575590551181
 31
0
  0
LINE
  5
79
330
1B
100
AcDbEntity
  8
BLACK
  6
CONTINUOUS
100
AcDbLine
 10
11.2536039763779527
 20
-0.4247575590551181
 30
0
 11
11.2438551968503937
 21
-0.4247575590551181
 31
0
  0
LINE
  5
7A
330
1B
100
AcDbEntity
  8
BLACK
  6
CONTINUOUS
100
AcDbLine
 10
11.2438551968503937
 20
-0.4247575590551181
 30
0
 11
11.2389807874015748
 21
-0.4271947637795275
 31
0
  0
LINE
  5
7B
330
1B
100
AcDbEntity
  8
BLACK
  6
CONTINUOUS
100
AcDbLine
 10
11.2389807874015748
 20
-0.4271947637795275
 30
0
 11
11.2365435826771645
 21
-0.429631968503937
 31
0
  0
LINE
  5
7C
330
1B
100
AcDbEntity
  8
BLACK
  6
CONTINUOUS
100
AcDbLine
 10
11.2365435826771645
 20
-0.429631968503937
 30
0
 11
11.2341064173228347
 21
-0.4345063385826772
 31
0
  0
LINE
  5
7D
330
1B
100
AcDbEntity
  8
BLACK
  6
CONTINUOUS
100
AcDbLine
 10
2.3622047244094486
 20
-7.79555905511811
 30
0
 11
2.3622047244094486
 21
-7.8742992125984248
 31
0
  0
LINE
  5
7E
330
1B
100
AcDbEntity
  8
BLACK
  6
CONTINUOUS
100
AcDbLine
 10
4.3307086614173231
 20
-7.79555905511811
 30
0
 11
4.3307086614173231
 21
-7.8742992125984248
 31
0
  0
LINE
  5
7F
330
1B
100
AcDbEntity
  8
BLACK
  6
CONTINUOUS
100
AcDbLine
 10
6.2992125984251963
 20
-7.79555905511811
 30
0
 11
6.2992125984251963
 21
-7.8742992125984248
 31
0
  0
LINE
  5
80
330
1B
100
AcDbEntity
  8
BLACK
  6
CONTINUOUS
100
AcDbLine
 10
8.2677165354330704
 20
-7.79555905511811
 30
0
 11
8.2677165354330704
 21
-7.8742992125984248
 31
0
  0
LINE
  5
81
330
1B
100
AcDbEntity
  8
BLACK
  6
CONTINUOUS
100
AcDbLine
 10
10.2362204724409445
 20
-7.79555905511811
 30
0
 11
10.2362204724409445
 21
-7.8742992125984248
 31
0
  0
LINE
  5
82
330
1B
100
AcDbEntity
  8
BLACK
  6
CONTINUOUS
100
AcDbLine
 10
1.4208330708661416
 20
-7.8582993700787398
 30
0
 11
1.3915867322834645
 21
-7.8582993700787398
 31
0
  0
LINE
  5
83
330
1B
100
AcDbEntity
  8
BLACK
  6
CONTINUOUS
100
AcDbLine
 10
1.4062098818897637
 20
-7.8582993700787398
 30
0
 11
1.4062098818897637
 21
-7.8071182677165352
 31
0
  0
LINE
  5
84
330
1B
100
AcDbEntity
  8
BLACK
  6
CONTINUOUS
100
AcDbLine
 10
1.4062098818897637
 20
-7.8071182677165352
 30
0
 11
1.4013355118110236
 21
-7.8144298818897635
 31
0
  0
LINE
  5
85
330
1B
100
AcDbEntity
  8
BLACK
  6
CONTINUOUS
100
AcDbLine
 10
1.4013355118110236
 20
-7.8144298818897635
 30
0
 11
1.3964611023622047
 21
-7.8193042519685036
 31
0
  0
LINE
  5
86
330
1B
100
AcDbEntity
  8
BLACK
  6
CONTINUOUS
100
AcDbLine
 10
1.3964611023622047
 20
-7.8193042519685036
 30
0
 11
1.3915867322834645
 21
-7.8217414566929131
 31
0
  0
LINE
  5
87
330
1B
100
AcDbEntity
  8
BLACK
  6
CONTINUOUS
100
AcDbLine
 10
3.3600906692913384
 20
-7.8119926771653541
 30
0
 11
3.3625278346456691
 21
-7.8095554724409446
 31
0
  0
LINE
  5
88
330
1B
100
AcDbEntity
  8
BLACK
  6
CONTINUOUS
100
AcDbLine
 10
3.3625278346456691
 20
-7.8095554724409446
 30
0
 11
3.367402244094488
 21
-7.8071182677165352
 31
0
  0
LINE
  5
89
330
1B
100
AcDbEntity
  8
BLACK
  6
CONTINUOUS
100
AcDbLine
 10
3.367402244094488
 20
-7.8071182677165352
 30
0
 11
3.3795882283464564
 21
-7.8071182677165352
 31
0
  0
LINE
  5
8A
330
1B
100
AcDbEntity
  8
BLACK
  6
CONTINUOUS
100
AcDbLine
 10
3.3795882283464564
 20
-7.8071182677165352
 30
0
 11
3.3844625984251966
 21
-7.8095554724409446
 31
0
  0
LINE
  5
8B
330
1B
100
AcDbEntity
  8
BLACK
  6
CONTINUOUS
100
AcDbLine
 10
3.3844625984251966
 20
-7.8095554724409446
 30
0
 11
3.386899803149606
 21
-7.8119926771653541
 31
0
  0
LINE
  5
8C
330
1B
100
AcDbEntity
  8
BLACK
  6
CONTINUOUS
100
AcDbLine
 10
3.386899803149606
 20
-7.8119926771653541
 30
0
 11
3.3893370078740155
 21
-7.8168670472440942
 31
0
  0
LINE
  5
8D
330
1B
100
AcDbEntity
  8
BLACK
  6
CONTINUOUS
100
AcDbLine
 10
3.3893370078740155
 20
-7.8168670472440942
 30
0
 11
3.3893370078740155
 21
-7.8217414566929131
 31
0
  0
LINE
  5
8E
330
1B
100
AcDbEntity
  8
BLACK
  6
CONTINUOUS
100
AcDbLine
 10
3.3893370078740155
 20
-7.8217414566929131
 30
0
 11
3.386899803149606
 21
-7.8290530314960627
 31
0
  0
LINE
  5
8F
330
1B
100
AcDbEntity
  8
BLACK
  6
CONTINUOUS
100
AcDbLine
 10
3.386899803149606
 20
-7.8290530314960627
 30
0
 11
3.3576534645669289
 21
-7.8582993700787398
 31
0
  0
LINE
  5
90
330
1B
100
AcDbEntity
  8
BLACK
  6
CONTINUOUS
100
AcDbLine
 10
3.3576534645669289
 20
-7.8582993700787398
 30
0
 11
3.3893370078740155
 21
-7.8582993700787398
 31
0
  0
LINE
  5
91
330
1B
100
AcDbEntity
  8
BLACK
  6
CONTINUOUS
100
AcDbLine
 10
5.326157401574803
 20
-7.8071182677165352
 30
0
 11
5.3578409448818896
 21
-7.8071182677165352
 31
0
  0
LINE
  5
92
330
1B
100
AcDbEntity
  8
BLACK
  6
CONTINUOUS
100
AcDbLine
 10
5.3578409448818896
 20
-7.8071182677165352
 30
0
 11
5.3407805511811022
 21
-7.8266158267716532
 31
0
  0
LINE
  5
93
330
1B
100
AcDbEntity
  8
BLACK
  6
CONTINUOUS
100
AcDbLine
 10
5.3407805511811022
 20
-7.8266158267716532
 30
0
 11
5.3480921653543305
 21
-7.8266158267716532
 31
0
  0
LINE
  5
94
330
1B
100
AcDbEntity
  8
BLACK
  6
CONTINUOUS
100
AcDbLine
 10
5.3480921653543305
 20
-7.8266158267716532
 30
0
 11
5.3529665354330707
 21
-7.8290530314960627
 31
0
  0
LINE
  5
95
330
1B
100
AcDbEntity
  8
BLACK
  6
CONTINUOUS
100
AcDbLine
 10
5.3529665354330707
 20
-7.8290530314960627
 30
0
 11
5.3554037401574801
 21
-7.8314902362204721
 31
0
  0
LINE
  5
96
330
1B
100
AcDbEntity
  8
BLACK
  6
CONTINUOUS
100
AcDbLine
 10
5.3554037401574801
 20
-7.8314902362204721
 30
0
 11
5.3578409448818896
 21
-7.8363646062992123
 31
0
  0
LINE
  5
97
330
1B
100
AcDbEntity
  8
BLACK
  6
CONTINUOUS
100
AcDbLine
 10
5.3578409448818896
 20
-7.8363646062992123
 30
0
 11
5.3578409448818896
 21
-7.8485505905511808
 31
0
  0
LINE
  5
98
330
1B
100
AcDbEntity
  8
BLACK
  6
CONTINUOUS
100
AcDbLine
 10
5.3578409448818896
 20
-7.8485505905511808
 30
0
 11
5.3554037401574801
 21
-7.8534249999999997
 31
0
  0
LINE
  5
99
330
1B
100
AcDbEntity
  8
BLACK
  6
CONTINUOUS
100
AcDbLine
 10
5.3554037401574801
 20
-7.8534249999999997
 30
0
 11
5.3529665354330707
 21
-7.8558622047244091
 31
0
  0
LINE
  5
9A
330
1B
100
AcDbEntity
  8
BLACK
  6
CONTINUOUS
100
AcDbLine
 10
5.3529665354330707
 20
-7.8558622047244091
 30
0
 11
5.3480921653543305
 21
-7.8582993700787398
 31
0
  0
LINE
  5
9B
330
1B
100
AcDbEntity
  8
BLACK
  6
CONTINUOUS
100
AcDbLine
 10
5.3480921653543305
 20
-7.8582993700787398
 30
0
 11
5.3334689763779526
 21
-7.8582993700787398
 31
0
  0
LINE
  5
9C
330
1B
100
AcDbEntity
  8
BLACK
  6
CONTINUOUS
100
AcDbLine
 10
5.3334689763779526
 20
-7.8582993700787398
 30
0
 11
5.3285946062992124
 21
-7.8558622047244091
 31
0
  0
LINE
  5
9D
330
1B
100
AcDbEntity
  8
BLACK
  6
CONTINUOUS
100
AcDbLine
 10
5.3285946062992124
 20
-7.8558622047244091
 30
0
 11
5.326157401574803
 21
-7.8534249999999997
 31
0
  0
LINE
  5
9E
330
1B
100
AcDbEntity
  8
BLACK
  6
CONTINUOUS
100
AcDbLine
 10
7.3214704724409447
 20
-7.8241786614173225
 30
0
 11
7.3214704724409447
 21
-7.8582993700787398
 31
0
  0
LINE
  5
9F
330
1B
100
AcDbEntity
  8
BLACK
  6
CONTINUOUS
100
AcDbLine
 10
7.3092844881889762
 20
-7.8046811023622045
 30
0
 11
7.2970985433070865
 21
-7.8412390157480312
 31
0
  0
LINE
  5
A0
330
1B
100
AcDbEntity
  8
BLACK
  6
CONTINUOUS
100
AcDbLine
 10
7.2970985433070865
 20
-7.8412390157480312
 30
0
 11
7.3287820472440943
 21
-7.8412390157480312
 31
0
  0
LINE
  5
A1
330
1B
100
AcDbEntity
  8
BLACK
  6
CONTINUOUS
100
AcDbLine
 10
9.2924116141732274
 20
-7.8071182677165352
 30
0
 11
9.2680396456692904
 21
-7.8071182677165352
 31
0
  0
LINE
  5
A2
330
1B
100
AcDbEntity
  8
BLACK
  6
CONTINUOUS
100
AcDbLine
 10
9.2680396456692904
 20
-7.8071182677165352
 30
0
 11
9.2656024803149606
 21
-7.8314902362204721
 31
0
  0
LINE
  5
A3
330
1B
100
AcDbEntity
  8
BLACK
  6
CONTINUOUS
100
AcDbLine
 10
9.2656024803149606
 20
-7.8314902362204721
 30
0
 11
9.2680396456692904
 21
-7.8290530314960627
 31
0
  0
LINE
  5
A4
330
1B
100
AcDbEntity
  8
BLACK
  6
CONTINUOUS
100
AcDbLine
 10
9.2680396456692904
 20
-7.8290530314960627
 30
0
 11
9.2729140551181093
 21
-7.8266158267716532
 31
0
  0
LINE
  5
A5
330
1B
100
AcDbEntity
  8
BLACK
  6
CONTINUOUS
100
AcDbLine
 10
9.2729140551181093
 20
-7.8266158267716532
 30
0
 11
9.2851000393700787
 21
-7.8266158267716532
 31
0
  0
LINE
  5
A6
330
1B
100
AcDbEntity
  8
BLACK
  6
CONTINUOUS
100
AcDbLine
 10
9.2851000393700787
 20
-7.8266158267716532
 30
0
 11
9.2899744094488188
 21
-7.8290530314960627
 31
0
  0
LINE
  5
A7
330
1B
100
AcDbEntity
  8
BLACK
  6
CONTINUOUS
100
AcDbLine
 10
9.2899744094488188
 20
-7.8290530314960627
 30
0
 11
9.2924116141732274
 21
-7.8314902362204721
 31
0
  0
LINE
  5
A8
330
1B
100
AcDbEntity
  8
BLACK
  6
CONTINUOUS
100
AcDbLine
 10
9.2924116141732274
 20
-7.8314902362204721
 30
0
 11
9.2948488188976377
 21
-7.8363646062992123
 31
0
  0
LINE
  5
A9
330
1B
100
AcDbEntity
  8
BLACK
  6
CONTINUOUS
100
AcDbLine
 10
9.2948488188976377
 20
-7.8363646062992123
 30
0
 11
9.2948488188976377
 21
-7.8485505905511808
 31
0
  0
LINE
  5
AA
330
1B
100
AcDbEntity
  8
BLACK
  6
CONTINUOUS
100
AcDbLine
 10
9.2948488188976377
 20
-7.8485505905511808
 30
0
 11
9.2924116141732274
 21
-7.8534249999999997
 31
0
  0
LINE
  5
AB
330
1B
100
AcDbEntity
  8
BLACK
  6
CONTINUOUS
100
AcDbLine
 10
9.2924116141732274
 20
-7.8534249999999997
 30
0
 11
9.2899744094488188
 21
-7.8558622047244091
 31
0
  0
LINE
  5
AC
330
1B
100
AcDbEntity
  8
BLACK
  6
CONTINUOUS
100
AcDbLine
 10
9.2899744094488188
 20
-7.8558622047244091
 30
0
 11
9.2851000393700787
 21
-7.8582993700787398
 31
0
  0
LINE
  5
AD
330
1B
100
AcDbEntity
  8
BLACK
  6
CONTINUOUS
100
AcDbLine
 10
9.2851000393700787
 20
-7.8582993700787398
 30
0
 11
9.2729140551181093
 21
-7.8582993700787398
 31
0
  0
LINE
  5
AE
330
1B
100
AcDbEntity
  8
BLACK
  6
CONTINUOUS
100
AcDbLine
 10
9.2729140551181093
 20
-7.8582993700787398
 30
0
 11
9.2680396456692904
 21
-7.8558622047244091
 31
0
  0
LINE
  5
AF
330
1B
100
AcDbEntity
  8
BLACK
  6
CONTINUOUS
100
AcDbLine
 10
9.2680396456692904
 20
-7.8558622047244091
 30
0
 11
9.2656024803149606
 21
-7.8534249999999997
 31
0
  0
LINE
  5
B0
330
1B
100
AcDbEntity
  8
BLACK
  6
CONTINUOUS
100
AcDbLine
 10
11.2584783464566929
 20
-7.8071182677165352
 30
0
 11
11.2487295669291338
 21
-7.8071182677165352
 31
0
  0
LINE
  5
B1
330
1B
100
AcDbEntity
  8
BLACK
  6
CONTINUOUS
100
AcDbLine
 10
11.2487295669291338
 20
-7.8071182677165352
 30
0
 11
11.2438551968503937
 21
-7.8095554724409446
 31
0
  0
LINE
  5
B2
330
1B
100
AcDbEntity
  8
BLACK
  6
CONTINUOUS
100
AcDbLine
 10
11.2438551968503937
 20
-7.8095554724409446
 30
0
 11
11.2414179921259834
 21
-7.8119926771653541
 31
0
  0
LINE
  5
B3
330
1B
100
AcDbEntity
  8
BLACK
  6
CONTINUOUS
100
AcDbLine
 10
11.2414179921259834
 20
-7.8119926771653541
 30
0
 11
11.2365435826771645
 21
-7.8193042519685036
 31
0
  0
LINE
  5
B4
330
1B
100
AcDbEntity
  8
BLACK
  6
CONTINUOUS
100
AcDbLine
 10
11.2365435826771645
 20
-7.8193042519685036
 30
0
 11
11.2341064173228347
 21
-7.8290530314960627
 31
0
  0
LINE
  5
B5
330
1B
100
AcDbEntity
  8
BLACK
  6
CONTINUOUS
100
AcDbLine
 10
11.2341064173228347
 20
-7.8290530314960627
 30
0
 11
11.2341064173228347
 21
-7.8485505905511808
 31
0
  0
LINE
  5
B6
330
1B
100
AcDbEntity
  8
BLACK
  6
CONTINUOUS
100
AcDbLine
 10
11.2341064173228347
 20
-7.8485505905511808
 30
0
 11
11.2365435826771645
 21
-7.8534249999999997
 31
0
  0
LINE
  5
B7
330
1B
100
AcDbEntity
  8
BLACK
  6
CONTINUOUS
100
AcDbLine
 10
11.2365435826771645
 20
-7.8534249999999997
 30
0
 11
11.2389807874015748
 21
-7.8558622047244091
 31
0
  0
LINE
  5
B8
330
1B
100
AcDbEntity
  8
BLACK
  6
CONTINUOUS
100
AcDbLine
 10
11.2389807874015748
 20
-7.8558622047244091
 30
0
 11
11.2438551968503937
 21
-7.8582993700787398
 31
0
  0
LINE
  5
B9
330
1B
100
AcDbEntity
  8
BLACK
  6
CONTINUOUS
100
AcDbLine
 10
11.2438551968503937
 20
-7.8582993700787398
 30
0
 11
11.2536039763779527
 21
-7.8582993700787398
 31
0
  0
LINE
  5
BA
330
1B
100
AcDbEntity
  8
BLACK
  6
CONTINUOUS
100
AcDbLine
 10
11.2536039763779527
 20
-7.8582993700787398
 30
0
 11
11.2584783464566929
 21
-7.8558622047244091
 31
0
  0
LINE
  5
BB
330
1B
100
AcDbEntity
  8
BLACK
  6
CONTINUOUS
100
AcDbLine
 10
11.2584783464566929
 20
-7.8558622047244091
 30
0
 11
11.2609155511811014
 21
-7.8534249999999997
 31
0
  0
LINE
  5
BC
330
1B
100
AcDbEntity
  8
BLACK
  6
CONTINUOUS
100
AcDbLine
 10
11.2609155511811014
 20
-7.8534249999999997
 30
0
 11
11.2633527559055118
 21
-7.8485505905511808
 31
0
  0
LINE
  5
BD
330
1B
100
AcDbEntity
  8
BLACK
  6
CONTINUOUS
100
AcDbLine
 10
11.2633527559055118
 20
-7.8485505905511808
 30
0
 11
11.2633527559055118
 21
-7.8363646062992123
 31
0
  0
LINE
  5
BE
330
1B
100
AcDbEntity
  8
BLACK
  6
CONTINUOUS
100
AcDbLine
 10
11.2633527559055118
 20
-7.8363646062992123
 30
0
 11
11.2609155511811014
 21
-7.8314902362204721
 31
0
  0
LINE
  5
BF
330
1B
100
AcDbEntity
  8
BLACK
  6
CONTINUOUS
100
AcDbLine
 10
11.2609155511811014
 20
-7.8314902362204721
 30
0
 11
11.2584783464566929
 21
-7.8290530314960627
 31
0
  0
LINE
  5
C0
330
1B
100
AcDbEntity
  8
BLACK
  6
CONTINUOUS
100
AcDbLine
 10
11.2584783464566929
 20
-7.8290530314960627
 30
0
 11
11.2536039763779527
 21
-7.8266158267716532
 31
0
  0
LINE
  5
C1
330
1B
100
AcDbEntity
  8
BLACK
  6
CONTINUOUS
100
AcDbLine
 10
11.2536039763779527
 20
-7.8266158267716532
 30
0
 11
11.2438551968503937
 21
-7.8266158267716532
 31
0
  0
LINE
  5
C2
330
1B
100
AcDbEntity
  8
BLACK
  6
CONTINUOUS
100
AcDbLine
 10
11.2438551968503937
 20
-7.8266158267716532
 30
0
 11
11.2389807874015748
 21
-7.8290530314960627
 31
0
  0
LINE
  5
C3
330
1B
100
AcDbEntity
  8
BLACK
  6
CONTINUOUS
100
AcDbLine
 10
11.2389807874015748
 20
-7.8290530314960627
 30
0
 11
11.2365435826771645
 21
-7.8314902362204721
 31
0
  0
LINE
  5
C4
330
1B
100
AcDbEntity
  8
BLACK
  6
CONTINUOUS
100
AcDbLine
 10
11.2365435826771645
 20
-7.8314902362204721
 30
0
 11
11.2341064173228347
 21
-7.8363646062992123
 31
0
  0
LINE
  5
C5
330
1B
100
AcDbEntity
  8
BLACK
  6
CONTINUOUS
100
AcDbLine
 10
0.3937007874015748
 20
-2.3622047244094486
 30
0
 11
0.4724409448818898
 21
-2.3622047244094486
 31
0
  0
LINE
  5
C6
330
1B
100
AcDbEntity
  8
BLACK
  6
CONTINUOUS
100
AcDbLine
 10
0.3937007874015748
 20
-4.3307086614173231
 30
0
 11
0.4724409448818898
 21
-4.3307086614173231
 31
0
  0
LINE
  5
C7
330
1B
100
AcDbEntity
  8
BLACK
  6
CONTINUOUS
100
AcDbLine
 10
0.3937007874015748
 20
-6.2992125984251963
 30
0
 11
0.4724409448818898
 21
-6.2992125984251963
 31
0
  0
LINE
  5
C8
330
1B
100
AcDbEntity
  8
BLACK
  6
CONTINUOUS
100
AcDbLine
 10
0.4208848818897638
 20
-1.386699842519685
 30
0
 11
0.445256811023622
 21
-1.386699842519685
 31
0
  0
LINE
  5
C9
330
1B
100
AcDbEntity
  8
BLACK
  6
CONTINUOUS
100
AcDbLine
 10
0.4160104724409449
 20
-1.4013229921259842
 30
0
 11
0.4330708267716535
 21
-1.3501418897637796
 31
0
  0
LINE
  5
CA
330
1B
100
AcDbEntity
  8
BLACK
  6
CONTINUOUS
100
AcDbLine
 10
0.4330708267716535
 20
-1.3501418897637796
 30
0
 11
0.4501312204724409
 21
-1.4013229921259842
 31
0
  0
LINE
  5
CB
330
1B
100
AcDbEntity
  8
BLACK
  6
CONTINUOUS
100
AcDbLine
 10
0.4367266535433071
 20
-3.3430177952755904
 30
0
 11
0.4440382283464567
 21
-3.3454549999999998
 31
0
  0
LINE
  5
CC
330
1B
100
AcDbEntity
  8
BLACK
  6
CONTINUOUS
100
AcDbLine
 10
0.4440382283464567
 20
-3.3454549999999998
 30
0
 11
0.4464754330708661
 21
-3.3478921653543305
 31
0
  0
LINE
  5
CD
330
1B
100
AcDbEntity
  8
BLACK
  6
CONTINUOUS
100
AcDbLine
 10
0.4464754330708661
 20
-3.3478921653543305
 30
0
 11
0.4489125984251968
 21
-3.3527665748031494
 31
0
  0
LINE
  5
CE
330
1B
100
AcDbEntity
  8
BLACK
  6
CONTINUOUS
100
AcDbLine
 10
0.4489125984251968
 20
-3.3527665748031494
 30
0
 11
0.4489125984251968
 21
-3.360078149606299
 31
0
  0
LINE
  5
CF
330
1B
100
AcDbEntity
  8
BLACK
  6
CONTINUOUS
100
AcDbLine
 10
0.4489125984251968
 20
-3.360078149606299
 30
0
 11
0.4464754330708661
 21
-3.3649525590551179
 31
0
  0
LINE
  5
D0
330
1B
100
AcDbEntity
  8
BLACK
  6
CONTINUOUS
100
AcDbLine
 10
0.4464754330708661
 20
-3.3649525590551179
 30
0
 11
0.4440382283464567
 21
-3.3673897637795274
 31
0
  0
LINE
  5
D1
330
1B
100
AcDbEntity
  8
BLACK
  6
CONTINUOUS
100
AcDbLine
 10
0.4440382283464567
 20
-3.3673897637795274
 30
0
 11
0.4391638188976378
 21
-3.3698269291338581
 31
0
  0
LINE
  5
D2
330
1B
100
AcDbEntity
  8
BLACK
  6
CONTINUOUS
100
AcDbLine
 10
0.4391638188976378
 20
-3.3698269291338581
 30
0
 11
0.4196662598425197
 21
-3.3698269291338581
 31
0
  0
LINE
  5
D3
330
1B
100
AcDbEntity
  8
BLACK
  6
CONTINUOUS
100
AcDbLine
 10
0.4196662598425197
 20
-3.3698269291338581
 30
0
 11
0.4196662598425197
 21
-3.3186458267716534
 31
0
  0
LINE
  5
D4
330
1B
100
AcDbEntity
  8
BLACK
  6
CONTINUOUS
100
AcDbLine
 10
0.4196662598425197
 20
-3.3186458267716534
 30
0
 11
0.4367266535433071
 21
-3.3186458267716534
 31
0
  0
LINE
  5
D5
330
1B
100
AcDbEntity
  8
BLACK
  6
CONTINUOUS
100
AcDbLine
 10
0.4367266535433071
 20
-3.3186458267716534
 30
0
 11
0.4416010236220472
 21
-3.3210830314960629
 31
0
  0
LINE
  5
D6
330
1B
100
AcDbEntity
  8
BLACK
  6
CONTINUOUS
100
AcDbLine
 10
0.4416010236220472
 20
-3.3210830314960629
 30
0
 11
0.4440382283464567
 21
-3.3235202362204723
 31
0
  0
LINE
  5
D7
330
1B
100
AcDbEntity
  8
BLACK
  6
CONTINUOUS
100
AcDbLine
 10
0.4440382283464567
 20
-3.3235202362204723
 30
0
 11
0.4464754330708661
 21
-3.3283946062992125
 31
0
  0
LINE
  5
D8
330
1B
100
AcDbEntity
  8
BLACK
  6
CONTINUOUS
100
AcDbLine
 10
0.4464754330708661
 20
-3.3283946062992125
 30
0
 11
0.4464754330708661
 21
-3.3332690157480314
 31
0
  0
LINE
  5
D9
330
1B
100
AcDbEntity
  8
BLACK
  6
CONTINUOUS
100
AcDbLine
 10
0.4464754330708661
 20
-3.3332690157480314
 30
0
 11
0.4440382283464567
 21
-3.3381433858267715
 31
0
  0
LINE
  5
DA
330
1B
100
AcDbEntity
  8
BLACK
  6
CONTINUOUS
100
AcDbLine
 10
0.4440382283464567
 20
-3.3381433858267715
 30
0
 11
0.4416010236220472
 21
-3.340580590551181
 31
0
  0
LINE
  5
DB
330
1B
100
AcDbEntity
  8
BLACK
  6
CONTINUOUS
100
AcDbLine
 10
0.4416010236220472
 20
-3.340580590551181
 30
0
 11
0.4367266535433071
 21
-3.3430177952755904
 31
0
  0
LINE
  5
DC
330
1B
100
AcDbEntity
  8
BLACK
  6
CONTINUOUS
100
AcDbLine
 10
0.4367266535433071
 20
-3.3430177952755904
 30
0
 11
0.4196662598425197
 21
-3.3430177952755904
 31
0
  0
LINE
  5
DD
330
1B
100
AcDbEntity
  8
BLACK
  6
CONTINUOUS
100
AcDbLine
 10
0.4489125984251968
 20
-5.3334564960629924
 30
0
 11
0.4464754330708661
 21
-5.3358937007874019
 31
0
  0
LINE
  5
DE
330
1B
100
AcDbEntity
  8
BLACK
  6
CONTINUOUS
100
AcDbLine
 10
0.4464754330708661
 20
-5.3358937007874019
 30
0
 11
0.4391638188976378
 21
-5.3383308661417326
 31
0
  0
LINE
  5
DF
330
1B
100
AcDbEntity
  8
BLACK
  6
CONTINUOUS
100
AcDbLine
 10
0.4391638188976378
 20
-5.3383308661417326
 30
0
 11
0.4342894488188976
 21
-5.3383308661417326
 31
0
  0
LINE
  5
E0
330
1B
100
AcDbEntity
  8
BLACK
  6
CONTINUOUS
100
AcDbLine
 10
0.4342894488188976
 20
-5.3383308661417326
 30
0
 11
0.426977874015748
 21
-5.3358937007874019
 31
0
  0
LINE
  5
E1
330
1B
100
AcDbEntity
  8
BLACK
  6
CONTINUOUS
100
AcDbLine
 10
0.426977874015748
 20
-5.3358937007874019
 30
0
 11
0.4221034645669291
 21
-5.331019291338583
 31
0
  0
LINE
  5
E2
330
1B
100
AcDbEntity
  8
BLACK
  6
CONTINUOUS
100
AcDbLine
 10
0.4221034645669291
 20
-5.331019291338583
 30
0
 11
0.4196662598425197
 21
-5.3261448818897641
 31
0
  0
LINE
  5
E3
330
1B
100
AcDbEntity
  8
BLACK
  6
CONTINUOUS
100
AcDbLine
 10
0.4196662598425197
 20
-5.3261448818897641
 30
0
 11
0.417229094488189
 21
-5.3163961023622042
 31
0
  0
LINE
  5
E4
330
1B
100
AcDbEntity
  8
BLACK
  6
CONTINUOUS
100
AcDbLine
 10
0.417229094488189
 20
-5.3163961023622042
 30
0
 11
0.417229094488189
 21
-5.3090845275590546
 31
0
  0
LINE
  5
E5
330
1B
100
AcDbEntity
  8
BLACK
  6
CONTINUOUS
100
AcDbLine
 10
0.417229094488189
 20
-5.3090845275590546
 30
0
 11
0.4196662598425197
 21
-5.2993357480314955
 31
0
  0
LINE
  5
E6
330
1B
100
AcDbEntity
  8
BLACK
  6
CONTINUOUS
100
AcDbLine
 10
0.4196662598425197
 20
-5.2993357480314955
 30
0
 11
0.4221034645669291
 21
-5.2944613779527554
 31
0
  0
LINE
  5
E7
330
1B
100
AcDbEntity
  8
BLACK
  6
CONTINUOUS
100
AcDbLine
 10
0.4221034645669291
 20
-5.2944613779527554
 30
0
 11
0.426977874015748
 21
-5.2895869685039365
 31
0
  0
LINE
  5
E8
330
1B
100
AcDbEntity
  8
BLACK
  6
CONTINUOUS
100
AcDbLine
 10
0.426977874015748
 20
-5.2895869685039365
 30
0
 11
0.4342894488188976
 21
-5.2871497637795271
 31
0
  0
LINE
  5
E9
330
1B
100
AcDbEntity
  8
BLACK
  6
CONTINUOUS
100
AcDbLine
 10
0.4342894488188976
 20
-5.2871497637795271
 30
0
 11
0.4391638188976378
 21
-5.2871497637795271
 31
0
  0
LINE
  5
EA
330
1B
100
AcDbEntity
  8
BLACK
  6
CONTINUOUS
100
AcDbLine
 10
0.4391638188976378
 20
-5.2871497637795271
 30
0
 11
0.4464754330708661
 21
-5.2895869685039365
 31
0
  0
LINE
  5
EB
330
1B
100
AcDbEntity
  8
BLACK
  6
CONTINUOUS
100
AcDbLine
 10
0.4464754330708661
 20
-5.2895869685039365
 30
0
 11
0.4489125984251968
 21
-5.292024173228346
 31
0
  0
LINE
  5
EC
330
1B
100
AcDbEntity
  8
BLACK
  6
CONTINUOUS
100
AcDbLine
 10
0.4196662598425197
 20
-7.3068348031496058
 30
0
 11
0.4196662598425197
 21
-7.2556537007874011
 31
0
  0
LINE
  5
ED
330
1B
100
AcDbEntity
  8
BLACK
  6
CONTINUOUS
100
AcDbLine
 10
0.4196662598425197
 20
-7.2556537007874011
 30
0
 11
0.4318522440944882
 21
-7.2556537007874011
 31
0
  0
LINE
  5
EE
330
1B
100
AcDbEntity
  8
BLACK
  6
CONTINUOUS
100
AcDbLine
 10
0.4318522440944882
 20
-7.2556537007874011
 30
0
 11
0.4391638188976378
 21
-7.2580909055118106
 31
0
  0
LINE
  5
EF
330
1B
100
AcDbEntity
  8
BLACK
  6
CONTINUOUS
100
AcDbLine
 10
0.4391638188976378
 20
-7.2580909055118106
 30
0
 11
0.4440382283464567
 21
-7.2629653149606295
 31
0
  0
LINE
  5
F0
330
1B
100
AcDbEntity
  8
BLACK
  6
CONTINUOUS
100
AcDbLine
 10
0.4440382283464567
 20
-7.2629653149606295
 30
0
 11
0.4464754330708661
 21
-7.2678396850393696
 31
0
  0
LINE
  5
F1
330
1B
100
AcDbEntity
  8
BLACK
  6
CONTINUOUS
100
AcDbLine
 10
0.4464754330708661
 20
-7.2678396850393696
 30
0
 11
0.4489125984251968
 21
-7.2775884645669286
 31
0
  0
LINE
  5
F2
330
1B
100
AcDbEntity
  8
BLACK
  6
CONTINUOUS
100
AcDbLine
 10
0.4489125984251968
 20
-7.2775884645669286
 30
0
 11
0.4489125984251968
 21
-7.2849000393700782
 31
0
  0
LINE
  5
F3
330
1B
100
AcDbEntity
  8
BLACK
  6
CONTINUOUS
100
AcDbLine
 10
0.4489125984251968
 20
-7.2849000393700782
 30
0
 11
0.4464754330708661
 21
-7.2946488188976373
 31
0
  0
LINE
  5
F4
330
1B
100
AcDbEntity
  8
BLACK
  6
CONTINUOUS
100
AcDbLine
 10
0.4464754330708661
 20
-7.2946488188976373
 30
0
 11
0.4440382283464567
 21
-7.2995232283464562
 31
0
  0
LINE
  5
F5
330
1B
100
AcDbEntity
  8
BLACK
  6
CONTINUOUS
100
AcDbLine
 10
0.4440382283464567
 20
-7.2995232283464562
 30
0
 11
0.4391638188976378
 21
-7.3043976377952751
 31
0
  0
LINE
  5
F6
330
1B
100
AcDbEntity
  8
BLACK
  6
CONTINUOUS
100
AcDbLine
 10
0.4391638188976378
 20
-7.3043976377952751
 30
0
 11
0.4318522440944882
 21
-7.3068348031496058
 31
0
  0
LINE
  5
F7
330
1B
100
AcDbEntity
  8
BLACK
  6
CONTINUOUS
100
AcDbLine
 10
0.4318522440944882
 20
-7.3068348031496058
 30
0
 11
0.4196662598425197
 21
-7.3068348031496058
 31
0
  0
LINE
  5
F8
330
1B
100
AcDbEntity
  8
BLACK
  6
CONTINUOUS
100
AcDbLine
 10
11.2992992125984255
 20
-2.3622047244094486
 30
0
 11
11.2205590551181107
 21
-2.3622047244094486
 31
0
  0
LINE
  5
F9
330
1B
100
AcDbEntity
  8
BLACK
  6
CONTINUOUS
100
AcDbLine
 10
11.2992992125984255
 20
-4.3307086614173231
 30
0
 11
11.2205590551181107
 21
-4.3307086614173231
 31
0
  0
LINE
  5
FA
330
1B
100
AcDbEntity
  8
BLACK
  6
CONTINUOUS
100
AcDbLine
 10
11.2992992125984255
 20
-6.2992125984251963
 30
0
 11
11.2205590551181107
 21
-6.2992125984251963
 31
0
  0
LINE
  5
FB
330
1B
100
AcDbEntity
  8
BLACK
  6
CONTINUOUS
100
AcDbLine
 10
11.2477431496062987
 20
-1.386699842519685
 30
0
 11
11.2721150787401569
 21
-1.386699842519685
 31
0
  0
LINE
  5
FC
330
1B
100
AcDbEntity
  8
BLACK
  6
CONTINUOUS
100
AcDbLine
 10
11.2428687401574798
 20
-1.4013229921259842
 30
0
 11
11.2599290944881893
 21
-1.3501418897637796
 31
0
  0
LINE
  5
FD
330
1B
100
AcDbEntity
  8
BLACK
  6
CONTINUOUS
100
AcDbLine
 10
11.2599290944881893
 20
-1.3501418897637796
 30
0
 11
11.2769894881889758
 21
-1.4013229921259842
 31
0
  0
LINE
  5
FE
330
1B
100
AcDbEntity
  8
BLACK
  6
CONTINUOUS
100
AcDbLine
 10
11.2635849212598416
 20
-3.3430177952755904
 30
0
 11
11.270896496062992
 21
-3.3454549999999998
 31
0
  0
LINE
  5
FF
330
1B
100
AcDbEntity
  8
BLACK
  6
CONTINUOUS
100
AcDbLine
 10
11.270896496062992
 20
-3.3454549999999998
 30
0
 11
11.2733337007874006
 21
-3.3478921653543305
 31
0
  0
LINE
  5
100
330
1B
100
AcDbEntity
  8
BLACK
  6
CONTINUOUS
100
AcDbLine
 10
11.2733337007874006
 20
-3.3478921653543305
 30
0
 11
11.2757708661417322
 21
-3.3527665748031494
 31
0
  0
LINE
  5
101
330
1B
100
AcDbEntity
  8
BLACK
  6
CONTINUOUS
100
AcDbLine
 10
11.2757708661417322
 20
-3.3527665748031494
 30
0
 11
11.2757708661417322
 21
-3.360078149606299
 31
0
  0
LINE
  5
102
330
1B
100
AcDbEntity
  8
BLACK
  6
CONTINUOUS
100
AcDbLine
 10
11.2757708661417322
 20
-3.360078149606299
 30
0
 11
11.2733337007874006
 21
-3.3649525590551179
 31
0
  0
LINE
  5
103
330
1B
100
AcDbEntity
  8
BLACK
  6
CONTINUOUS
100
AcDbLine
 10
11.2733337007874006
 20
-3.3649525590551179
 30
0
 11
11.270896496062992
 21
-3.3673897637795274
 31
0
  0
LINE
  5
104
330
1B
100
AcDbEntity
  8
BLACK
  6
CONTINUOUS
100
AcDbLine
 10
11.270896496062992
 20
-3.3673897637795274
 30
0
 11
11.2660220866141731
 21
-3.3698269291338581
 31
0
  0
LINE
  5
105
330
1B
100
AcDbEntity
  8
BLACK
  6
CONTINUOUS
100
AcDbLine
 10
11.2660220866141731
 20
-3.3698269291338581
 30
0
 11
11.2465245275590551
 21
-3.3698269291338581
 31
0
  0
LINE
  5
106
330
1B
100
AcDbEntity
  8
BLACK
  6
CONTINUOUS
100
AcDbLine
 10
11.2465245275590551
 20
-3.3698269291338581
 30
0
 11
11.2465245275590551
 21
-3.3186458267716534
 31
0
  0
LINE
  5
107
330
1B
100
AcDbEntity
  8
BLACK
  6
CONTINUOUS
100
AcDbLine
 10
11.2465245275590551
 20
-3.3186458267716534
 30
0
 11
11.2635849212598416
 21
-3.3186458267716534
 31
0
  0
LINE
  5
108
330
1B
100
AcDbEntity
  8
BLACK
  6
CONTINUOUS
100
AcDbLine
 10
11.2635849212598416
 20
-3.3186458267716534
 30
0
 11
11.2684592913385817
 21
-3.3210830314960629
 31
0
  0
LINE
  5
109
330
1B
100
AcDbEntity
  8
BLACK
  6
CONTINUOUS
100
AcDbLine
 10
11.2684592913385817
 20
-3.3210830314960629
 30
0
 11
11.270896496062992
 21
-3.3235202362204723
 31
0
  0
LINE
  5
10A
330
1B
100
AcDbEntity
  8
BLACK
  6
CONTINUOUS
100
AcDbLine
 10
11.270896496062992
 20
-3.3235202362204723
 30
0
 11
11.2733337007874006
 21
-3.3283946062992125
 31
0
  0
LINE
  5
10B
330
1B
100
AcDbEntity
  8
BLACK
  6
CONTINUOUS
100
AcDbLine
 10
11.2733337007874006
 20
-3.3283946062992125
 30
0
 11
11.2733337007874006
 21
-3.3332690157480314
 31
0
  0
LINE
  5
10C
330
1B
100
AcDbEntity
  8
BLACK
  6
CONTINUOUS
100
AcDbLine
 10
11.2733337007874006
 20
-3.3332690157480314
 30
0
 11
11.270896496062992
 21
-3.3381433858267715
 31
0
  0
LINE
  5
10D
330
1B
100
AcDbEntity
  8
BLACK
  6
CONTINUOUS
100
AcDbLine
 10
11.270896496062992
 20
-3.3381433858267715
 30
0
 11
11.2684592913385817
 21
-3.340580590551181
 31
0
  0
LINE
  5
10E
330
1B
100
AcDbEntity
  8
BLACK
  6
CONTINUOUS
100
AcDbLine
 10
11.2684592913385817
 20
-3.340580590551181
 30
0
 11
11.2635849212598416
 21
-3.3430177952755904
 31
0
  0
LINE
  5
10F
330
1B
100
AcDbEntity
  8
BLACK
  6
CONTINUOUS
100
AcDbLine
 10
11.2635849212598416
 20
-3.3430177952755904
 30
0
 11
11.2465245275590551
 21
-3.3430177952755904
 31
0
  0
LINE
  5
110
330
1B
100
AcDbEntity
  8
BLACK
  6
CONTINUOUS
100
AcDbLine
 10
11.2757708661417322
 20
-5.3334564960629924
 30
0
 11
11.2733337007874006
 21
-5.3358937007874019
 31
0
  0
LINE
  5
111
330
1B
100
AcDbEntity
  8
BLACK
  6
CONTINUOUS
100
AcDbLine
 10
11.2733337007874006
 20
-5.3358937007874019
 30
0
 11
11.2660220866141731
 21
-5.3383308661417326
 31
0
  0
LINE
  5
112
330
1B
100
AcDbEntity
  8
BLACK
  6
CONTINUOUS
100
AcDbLine
 10
11.2660220866141731
 20
-5.3383308661417326
 30
0
 11
11.261147716535433
 21
-5.3383308661417326
 31
0
  0
LINE
  5
113
330
1B
100
AcDbEntity
  8
BLACK
  6
CONTINUOUS
100
AcDbLine
 10
11.261147716535433
 20
-5.3383308661417326
 30
0
 11
11.2538361417322825
 21
-5.3358937007874019
 31
0
  0
LINE
  5
114
330
1B
100
AcDbEntity
  8
BLACK
  6
CONTINUOUS
100
AcDbLine
 10
11.2538361417322825
 20
-5.3358937007874019
 30
0
 11
11.2489617322834636
 21
-5.331019291338583
 31
0
  0
LINE
  5
115
330
1B
100
AcDbEntity
  8
BLACK
  6
CONTINUOUS
100
AcDbLine
 10
11.2489617322834636
 20
-5.331019291338583
 30
0
 11
11.2465245275590551
 21
-5.3261448818897641
 31
0
  0
LINE
  5
116
330
1B
100
AcDbEntity
  8
BLACK
  6
CONTINUOUS
100
AcDbLine
 10
11.2465245275590551
 20
-5.3261448818897641
 30
0
 11
11.2440873622047235
 21
-5.3163961023622042
 31
0
  0
LINE
  5
117
330
1B
100
AcDbEntity
  8
BLACK
  6
CONTINUOUS
100
AcDbLine
 10
11.2440873622047235
 20
-5.3163961023622042
 30
0
 11
11.2440873622047235
 21
-5.3090845275590546
 31
0
  0
LINE
  5
118
330
1B
100
AcDbEntity
  8
BLACK
  6
CONTINUOUS
100
AcDbLine
 10
11.2440873622047235
 20
-5.3090845275590546
 30
0
 11
11.2465245275590551
 21
-5.2993357480314955
 31
0
  0
LINE
  5
119
330
1B
100
AcDbEntity
  8
BLACK
  6
CONTINUOUS
100
AcDbLine
 10
11.2465245275590551
 20
-5.2993357480314955
 30
0
 11
11.2489617322834636
 21
-5.2944613779527554
 31
0
  0
LINE
  5
11A
330
1B
100
AcDbEntity
  8
BLACK
  6
CONTINUOUS
100
AcDbLine
 10
11.2489617322834636
 20
-5.2944613779527554
 30
0
 11
11.2538361417322825
 21
-5.2895869685039365
 31
0
  0
LINE
  5
11B
330
1B
100
AcDbEntity
  8
BLACK
  6
CONTINUOUS
100
AcDbLine
 10
11.2538361417322825
 20
-5.2895869685039365
 30
0
 11
11.261147716535433
 21
-5.2871497637795271
 31
0
  0
LINE
  5
11C
330
1B
100
AcDbEntity
  8
BLACK
  6
CONTINUOUS
100
AcDbLine
 10
11.261147716535433
 20
-5.2871497637795271
 30
0
 11
11.2660220866141731
 21
-5.2871497637795271
 31
0
  0
LINE
  5
11D
330
1B
100
AcDbEntity
  8
BLACK
  6
CONTINUOUS
100
AcDbLine
 10
11.2660220866141731
 20
-5.2871497637795271
 30
0
 11
11.2733337007874006
 21
-5.2895869685039365
 31
0
  0
LINE
  5
11E
330
1B
100
AcDbEntity
  8
BLACK
  6
CONTINUOUS
100
AcDbLine
 10
11.2733337007874006
 20
-5.2895869685039365
 30
0
 11
11.2757708661417322
 21
-5.292024173228346
 31
0
  0
LINE
  5
11F
330
1B
100
AcDbEntity
  8
BLACK
  6
CONTINUOUS
100
AcDbLine
 10
11.2465245275590551
 20
-7.3068348031496058
 30
0
 11
11.2465245275590551
 21
-7.2556537007874011
 31
0
  0
LINE
  5
120
330
1B
100
AcDbEntity
  8
BLACK
  6
CONTINUOUS
100
AcDbLine
 10
11.2465245275590551
 20
-7.2556537007874011
 30
0
 11
11.2587105118110227
 21
-7.2556537007874011
 31
0
  0
LINE
  5
121
330
1B
100
AcDbEntity
  8
BLACK
  6
CONTINUOUS
100
AcDbLine
 10
11.2587105118110227
 20
-7.2556537007874011
 30
0
 11
11.2660220866141731
 21
-7.2580909055118106
 31
0
  0
LINE
  5
122
330
1B
100
AcDbEntity
  8
BLACK
  6
CONTINUOUS
100
AcDbLine
 10
11.2660220866141731
 20
-7.2580909055118106
 30
0
 11
11.270896496062992
 21
-7.2629653149606295
 31
0
  0
LINE
  5
123
330
1B
100
AcDbEntity
  8
BLACK
  6
CONTINUOUS
100
AcDbLine
 10
11.270896496062992
 20
-7.2629653149606295
 30
0
 11
11.2733337007874006
 21
-7.2678396850393696
 31
0
  0
LINE
  5
124
330
1B
100
AcDbEntity
  8
BLACK
  6
CONTINUOUS
100
AcDbLine
 10
11.2733337007874006
 20
-7.2678396850393696
 30
0
 11
11.2757708661417322
 21
-7.2775884645669286
 31
0
  0
LINE
  5
125
330
1B
100
AcDbEntity
  8
BLACK
  6
CONTINUOUS
100
AcDbLine
 10
11.2757708661417322
 20
-7.2775884645669286
 30
0
 11
11.2757708661417322
 21
-7.2849000393700782
 31
0
  0
LINE
  5
126
330
1B
100
AcDbEntity
  8
BLACK
  6
CONTINUOUS
100
AcDbLine
 10
11.2757708661417322
 20
-7.2849000393700782
 30
0
 11
11.2733337007874006
 21
-7.2946488188976373
 31
0
  0
LINE
  5
127
330
1B
100
AcDbEntity
  8
BLACK
  6
CONTINUOUS
100
AcDbLine
 10
11.2733337007874006
 20
-7.2946488188976373
 30
0
 11
11.270896496062992
 21
-7.2995232283464562
 31
0
  0
LINE
  5
128
330
1B
100
AcDbEntity
  8
BLACK
  6
CONTINUOUS
100
AcDbLine
 10
11.270896496062992
 20
-7.2995232283464562
 30
0
 11
11.2660220866141731
 21
-7.3043976377952751
 31
0
  0
LINE
  5
129
330
1B
100
AcDbEntity
  8
BLACK
  6
CONTINUOUS
100
AcDbLine
 10
11.2660220866141731
 20
-7.3043976377952751
 30
0
 11
11.2587105118110227
 21
-7.3068348031496058
 31
0
  0
LINE
  5
12A
330
1B
100
AcDbEntity
  8
BLACK
  6
CONTINUOUS
100
AcDbLine
 10
11.2587105118110227
 20
-7.3068348031496058
 30
0
 11
11.2465245275590551
 21
-7.3068348031496058
 31
0
  0
LINE
  5
12B
330
1B
100
AcDbEntity
  8
BLACK
  6
CONTINUOUS
100
AcDbLine
 10
7.8920482677165351
 20
-7.6296585826771652
 30
0
 11
7.8920482677165351
 21
-7.5706034645669291
 31
0
  0
LINE
  5
12C
330
1B
100
AcDbEntity
  8
BLACK
  6
CONTINUOUS
100
AcDbLine
 10
7.8920482677165351
 20
-7.5706034645669291
 30
0
 11
7.9061090157480312
 21
-7.5706034645669291
 31
0
  0
LINE
  5
12D
330
1B
100
AcDbEntity
  8
BLACK
  6
CONTINUOUS
100
AcDbLine
 10
7.9061090157480312
 20
-7.5706034645669291
 30
0
 11
7.9145454724409445
 21
-7.5734156299212598
 31
0
  0
LINE
  5
12E
330
1B
100
AcDbEntity
  8
BLACK
  6
CONTINUOUS
100
AcDbLine
 10
7.9145454724409445
 20
-7.5734156299212598
 30
0
 11
7.9201697637795272
 21
-7.5790399212598425
 31
0
  0
LINE
  5
12F
330
1B
100
AcDbEntity
  8
BLACK
  6
CONTINUOUS
100
AcDbLine
 10
7.9201697637795272
 20
-7.5790399212598425
 30
0
 11
7.9229819291338579
 21
-7.5846642125984252
 31
0
  0
LINE
  5
130
330
1B
100
AcDbEntity
  8
BLACK
  6
CONTINUOUS
100
AcDbLine
 10
7.9229819291338579
 20
-7.5846642125984252
 30
0
 11
7.9257940551181099
 21
-7.5959127952755905
 31
0
  0
LINE
  5
131
330
1B
100
AcDbEntity
  8
BLACK
  6
CONTINUOUS
100
AcDbLine
 10
7.9257940551181099
 20
-7.5959127952755905
 30
0
 11
7.9257940551181099
 21
-7.6043492519685039
 31
0
  0
LINE
  5
132
330
1B
100
AcDbEntity
  8
BLACK
  6
CONTINUOUS
100
AcDbLine
 10
7.9257940551181099
 20
-7.6043492519685039
 30
0
 11
7.9229819291338579
 21
-7.6155978346456692
 31
0
  0
LINE
  5
133
330
1B
100
AcDbEntity
  8
BLACK
  6
CONTINUOUS
100
AcDbLine
 10
7.9229819291338579
 20
-7.6155978346456692
 30
0
 11
7.9201697637795272
 21
-7.6212221259842519
 31
0
  0
LINE
  5
134
330
1B
100
AcDbEntity
  8
BLACK
  6
CONTINUOUS
100
AcDbLine
 10
7.9201697637795272
 20
-7.6212221259842519
 30
0
 11
7.9145454724409445
 21
-7.6268464566929133
 31
0
  0
LINE
  5
135
330
1B
100
AcDbEntity
  8
BLACK
  6
CONTINUOUS
100
AcDbLine
 10
7.9145454724409445
 20
-7.6268464566929133
 30
0
 11
7.9061090157480312
 21
-7.6296585826771652
 31
0
  0
LINE
  5
136
330
1B
100
AcDbEntity
  8
BLACK
  6
CONTINUOUS
100
AcDbLine
 10
7.9061090157480312
 20
-7.6296585826771652
 30
0
 11
7.8920482677165351
 21
-7.6296585826771652
 31
0
  0
LINE
  5
137
330
1B
100
AcDbEntity
  8
BLACK
  6
CONTINUOUS
100
AcDbLine
 10
7.9764127559055114
 20
-7.6296585826771652
 30
0
 11
7.9764127559055114
 21
-7.5987249606299212
 31
0
  0
LINE
  5
138
330
1B
100
AcDbEntity
  8
BLACK
  6
CONTINUOUS
100
AcDbLine
 10
7.9764127559055114
 20
-7.5987249606299212
 30
0
 11
7.9736005905511806
 21
-7.5931006692913385
 31
0
  0
LINE
  5
139
330
1B
100
AcDbEntity
  8
BLACK
  6
CONTINUOUS
100
AcDbLine
 10
7.9736005905511806
 20
-7.5931006692913385
 30
0
 11
7.967976299212598
 21
-7.5902885039370078
 31
0
  0
LINE
  5
13A
330
1B
100
AcDbEntity
  8
BLACK
  6
CONTINUOUS
100
AcDbLine
 10
7.967976299212598
 20
-7.5902885039370078
 30
0
 11
7.9567277165354326
 21
-7.5902885039370078
 31
0
  0
LINE
  5
13B
330
1B
100
AcDbEntity
  8
BLACK
  6
CONTINUOUS
100
AcDbLine
 10
7.9567277165354326
 20
-7.5902885039370078
 30
0
 11
7.9511033858267712
 21
-7.5931006692913385
 31
0
  0
LINE
  5
13C
330
1B
100
AcDbEntity
  8
BLACK
  6
CONTINUOUS
100
AcDbLine
 10
7.9764127559055114
 20
-7.6268464566929133
 30
0
 11
7.9707884251968499
 21
-7.6296585826771652
 31
0
  0
LINE
  5
13D
330
1B
100
AcDbEntity
  8
BLACK
  6
CONTINUOUS
100
AcDbLine
 10
7.9707884251968499
 20
-7.6296585826771652
 30
0
 11
7.9567277165354326
 21
-7.6296585826771652
 31
0
  0
LINE
  5
13E
330
1B
100
AcDbEntity
  8
BLACK
  6
CONTINUOUS
100
AcDbLine
 10
7.9567277165354326
 20
-7.6296585826771652
 30
0
 11
7.9511033858267712
 21
-7.6268464566929133
 31
0
  0
LINE
  5
13F
330
1B
100
AcDbEntity
  8
BLACK
  6
CONTINUOUS
100
AcDbLine
 10
7.9511033858267712
 20
-7.6268464566929133
 30
0
 11
7.9482912598425193
 21
-7.6212221259842519
 31
0
  0
LINE
  5
140
330
1B
100
AcDbEntity
  8
BLACK
  6
CONTINUOUS
100
AcDbLine
 10
7.9482912598425193
 20
-7.6212221259842519
 30
0
 11
7.9482912598425193
 21
-7.6155978346456692
 31
0
  0
LINE
  5
141
330
1B
100
AcDbEntity
  8
BLACK
  6
CONTINUOUS
100
AcDbLine
 10
7.9482912598425193
 20
-7.6155978346456692
 30
0
 11
7.9511033858267712
 21
-7.6099735433070865
 31
0
  0
LINE
  5
142
330
1B
100
AcDbEntity
  8
BLACK
  6
CONTINUOUS
100
AcDbLine
 10
7.9511033858267712
 20
-7.6099735433070865
 30
0
 11
7.9567277165354326
 21
-7.6071614173228346
 31
0
  0
LINE
  5
143
330
1B
100
AcDbEntity
  8
BLACK
  6
CONTINUOUS
100
AcDbLine
 10
7.9567277165354326
 20
-7.6071614173228346
 30
0
 11
7.9707884251968499
 21
-7.6071614173228346
 31
0
  0
LINE
  5
144
330
1B
100
AcDbEntity
  8
BLACK
  6
CONTINUOUS
100
AcDbLine
 10
7.9707884251968499
 20
-7.6071614173228346
 30
0
 11
7.9764127559055114
 21
-7.6043492519685039
 31
0
  0
LINE
  5
145
330
1B
100
AcDbEntity
  8
BLACK
  6
CONTINUOUS
100
AcDbLine
 10
7.9960977952755901
 20
-7.5902885039370078
 30
0
 11
8.0185949606299207
 21
-7.5902885039370078
 31
0
  0
LINE
  5
146
330
1B
100
AcDbEntity
  8
BLACK
  6
CONTINUOUS
100
AcDbLine
 10
8.0045342125984256
 20
-7.5706034645669291
 30
0
 11
8.0045342125984256
 21
-7.6212221259842519
 31
0
  0
LINE
  5
147
330
1B
100
AcDbEntity
  8
BLACK
  6
CONTINUOUS
100
AcDbLine
 10
8.0045342125984256
 20
-7.6212221259842519
 30
0
 11
8.0073463779527554
 21
-7.6268464566929133
 31
0
  0
LINE
  5
148
330
1B
100
AcDbEntity
  8
BLACK
  6
CONTINUOUS
100
AcDbLine
 10
8.0073463779527554
 20
-7.6268464566929133
 30
0
 11
8.0129706692913381
 21
-7.6296585826771652
 31
0
  0
LINE
  5
149
330
1B
100
AcDbEntity
  8
BLACK
  6
CONTINUOUS
100
AcDbLine
 10
8.0129706692913381
 20
-7.6296585826771652
 30
0
 11
8.0185949606299207
 21
-7.6296585826771652
 31
0
  0
LINE
  5
14A
330
1B
100
AcDbEntity
  8
BLACK
  6
CONTINUOUS
100
AcDbLine
 10
8.0607772047244097
 20
-7.6268464566929133
 30
0
 11
8.0551529133858271
 21
-7.6296585826771652
 31
0
  0
LINE
  5
14B
330
1B
100
AcDbEntity
  8
BLACK
  6
CONTINUOUS
100
AcDbLine
 10
8.0551529133858271
 20
-7.6296585826771652
 30
0
 11
8.0439043307086617
 21
-7.6296585826771652
 31
0
  0
LINE
  5
14C
330
1B
100
AcDbEntity
  8
BLACK
  6
CONTINUOUS
100
AcDbLine
 10
8.0439043307086617
 20
-7.6296585826771652
 30
0
 11
8.0382800000000003
 21
-7.6268464566929133
 31
0
  0
LINE
  5
14D
330
1B
100
AcDbEntity
  8
BLACK
  6
CONTINUOUS
100
AcDbLine
 10
8.0382800000000003
 20
-7.6268464566929133
 30
0
 11
8.0354678740157475
 21
-7.6212221259842519
 31
0
  0
LINE
  5
14E
330
1B
100
AcDbEntity
  8
BLACK
  6
CONTINUOUS
100
AcDbLine
 10
8.0354678740157475
 20
-7.6212221259842519
 30
0
 11
8.0354678740157475
 21
-7.5987249606299212
 31
0
  0
LINE
  5
14F
330
1B
100
AcDbEntity
  8
BLACK
  6
CONTINUOUS
100
AcDbLine
 10
8.0354678740157475
 20
-7.5987249606299212
 30
0
 11
8.0382800000000003
 21
-7.5931006692913385
 31
0
  0
LINE
  5
150
330
1B
100
AcDbEntity
  8
BLACK
  6
CONTINUOUS
100
AcDbLine
 10
8.0382800000000003
 20
-7.5931006692913385
 30
0
 11
8.0439043307086617
 21
-7.5902885039370078
 31
0
  0
LINE
  5
151
330
1B
100
AcDbEntity
  8
BLACK
  6
CONTINUOUS
100
AcDbLine
 10
8.0439043307086617
 20
-7.5902885039370078
 30
0
 11
8.0551529133858271
 21
-7.5902885039370078
 31
0
  0
LINE
  5
152
330
1B
100
AcDbEntity
  8
BLACK
  6
CONTINUOUS
100
AcDbLine
 10
8.0551529133858271
 20
-7.5902885039370078
 30
0
 11
8.0607772047244097
 21
-7.5931006692913385
 31
0
  0
LINE
  5
153
330
1B
100
AcDbEntity
  8
BLACK
  6
CONTINUOUS
100
AcDbLine
 10
8.0607772047244097
 20
-7.5931006692913385
 30
0
 11
8.0635893700787395
 21
-7.5987249606299212
 31
0
  0
LINE
  5
154
330
1B
100
AcDbEntity
  8
BLACK
  6
CONTINUOUS
100
AcDbLine
 10
8.0635893700787395
 20
-7.5987249606299212
 30
0
 11
8.0635893700787395
 21
-7.6043492519685039
 31
0
  0
LINE
  5
155
330
1B
100
AcDbEntity
  8
BLACK
  6
CONTINUOUS
100
AcDbLine
 10
8.0635893700787395
 20
-7.6043492519685039
 30
0
 11
8.0354678740157475
 21
-7.6099735433070865
 31
0
  0
LINE
  5
156
330
1B
100
AcDbEntity
  8
BLACK
  6
CONTINUOUS
100
AcDbLine
 10
8.0888986614173231
 20
-7.6240342913385826
 30
0
 11
8.0917108267716529
 21
-7.6268464566929133
 31
0
  0
LINE
  5
157
330
1B
100
AcDbEntity
  8
BLACK
  6
CONTINUOUS
100
AcDbLine
 10
8.0917108267716529
 20
-7.6268464566929133
 30
0
 11
8.0888986614173231
 21
-7.6296585826771652
 31
0
  0
LINE
  5
158
330
1B
100
AcDbEntity
  8
BLACK
  6
CONTINUOUS
100
AcDbLine
 10
8.0888986614173231
 20
-7.6296585826771652
 30
0
 11
8.0860865354330702
 21
-7.6268464566929133
 31
0
  0
LINE
  5
159
330
1B
100
AcDbEntity
  8
BLACK
  6
CONTINUOUS
100
AcDbLine
 10
8.0860865354330702
 20
-7.6268464566929133
 30
0
 11
8.0888986614173231
 21
-7.6240342913385826
 31
0
  0
LINE
  5
15A
330
1B
100
AcDbEntity
  8
BLACK
  6
CONTINUOUS
100
AcDbLine
 10
8.0888986614173231
 20
-7.6240342913385826
 30
0
 11
8.0888986614173231
 21
-7.6296585826771652
 31
0
  0
LINE
  5
15B
330
1B
100
AcDbEntity
  8
BLACK
  6
CONTINUOUS
100
AcDbLine
 10
8.0888986614173231
 20
-7.5931006692913385
 30
0
 11
8.0917108267716529
 21
-7.5959127952755905
 31
0
  0
LINE
  5
15C
330
1B
100
AcDbEntity
  8
BLACK
  6
CONTINUOUS
100
AcDbLine
 10
8.0917108267716529
 20
-7.5959127952755905
 30
0
 11
8.0888986614173231
 21
-7.5987249606299212
 31
0
  0
LINE
  5
15D
330
1B
100
AcDbEntity
  8
BLACK
  6
CONTINUOUS
100
AcDbLine
 10
8.0888986614173231
 20
-7.5987249606299212
 30
0
 11
8.0860865354330702
 21
-7.5959127952755905
 31
0
  0
LINE
  5
15E
330
1B
100
AcDbEntity
  8
BLACK
  6
CONTINUOUS
100
AcDbLine
 10
8.0860865354330702
 20
-7.5959127952755905
 30
0
 11
8.0888986614173231
 21
-7.5931006692913385
 31
0
  0
LINE
  5
15F
330
1B
100
AcDbEntity
  8
BLACK
  6
CONTINUOUS
100
AcDbLine
 10
8.0888986614173231
 20
-7.5931006692913385
 30
0
 11
8.0888986614173231
 21
-7.5987249606299212
 31
0
  0
LINE
  5
160
330
1B
100
AcDbEntity
  8
BLACK
  6
CONTINUOUS
100
AcDbLine
 10
6.9685905511811024
 20
-7.657763779527559
 30
0
 11
11.2205590551181107
 21
-7.657763779527559
 31
0
  0
LINE
  5
161
330
1B
100
AcDbEntity
  8
BLACK
  6
CONTINUOUS
100
AcDbLine
 10
7.0259065354330703
 20
-7.739894803149606
 30
0
 11
7.0259065354330703
 21
-7.6808396850393699
 31
0
  0
LINE
  5
162
330
1B
100
AcDbEntity
  8
BLACK
  6
CONTINUOUS
100
AcDbLine
 10
7.0596523228346459
 20
-7.739894803149606
 30
0
 11
7.0343429921259837
 21
-7.7061490157480312
 31
0
  0
LINE
  5
163
330
1B
100
AcDbEntity
  8
BLACK
  6
CONTINUOUS
100
AcDbLine
 10
7.0596523228346459
 20
-7.6808396850393699
 30
0
 11
7.0259065354330703
 21
-7.7145854724409446
 31
0
  0
LINE
  5
164
330
1B
100
AcDbEntity
  8
BLACK
  6
CONTINUOUS
100
AcDbLine
 10
7.0849616535433073
 20
-7.739894803149606
 30
0
 11
7.0849616535433073
 21
-7.7005247244094486
 31
0
  0
LINE
  5
165
330
1B
100
AcDbEntity
  8
BLACK
  6
CONTINUOUS
100
AcDbLine
 10
7.0849616535433073
 20
-7.6808396850393699
 30
0
 11
7.0821495275590554
 21
-7.6836518503937006
 31
0
  0
LINE
  5
166
330
1B
100
AcDbEntity
  8
BLACK
  6
CONTINUOUS
100
AcDbLine
 10
7.0821495275590554
 20
-7.6836518503937006
 30
0
 11
7.0849616535433073
 21
-7.6864639763779525
 31
0
  0
LINE
  5
167
330
1B
100
AcDbEntity
  8
BLACK
  6
CONTINUOUS
100
AcDbLine
 10
7.0849616535433073
 20
-7.6864639763779525
 30
0
 11
7.087773818897638
 21
-7.6836518503937006
 31
0
  0
LINE
  5
168
330
1B
100
AcDbEntity
  8
BLACK
  6
CONTINUOUS
100
AcDbLine
 10
7.087773818897638
 20
-7.6836518503937006
 30
0
 11
7.0849616535433073
 21
-7.6808396850393699
 31
0
  0
LINE
  5
169
330
1B
100
AcDbEntity
  8
BLACK
  6
CONTINUOUS
100
AcDbLine
 10
7.0849616535433073
 20
-7.6808396850393699
 30
0
 11
7.0849616535433073
 21
-7.6864639763779525
 31
0
  0
LINE
  5
16A
330
1B
100
AcDbEntity
  8
BLACK
  6
CONTINUOUS
100
AcDbLine
 10
7.1468289370078741
 20
-7.7342705118110233
 30
0
 11
7.1440168110236222
 21
-7.737082677165354
 31
0
  0
LINE
  5
16B
330
1B
100
AcDbEntity
  8
BLACK
  6
CONTINUOUS
100
AcDbLine
 10
7.1440168110236222
 20
-7.737082677165354
 30
0
 11
7.1355803543307088
 21
-7.739894803149606
 31
0
  0
LINE
  5
16C
330
1B
100
AcDbEntity
  8
BLACK
  6
CONTINUOUS
100
AcDbLine
 10
7.1355803543307088
 20
-7.739894803149606
 30
0
 11
7.1299560629921261
 21
-7.739894803149606
 31
0
  0
LINE
  5
16D
330
1B
100
AcDbEntity
  8
BLACK
  6
CONTINUOUS
100
AcDbLine
 10
7.1299560629921261
 20
-7.739894803149606
 30
0
 11
7.1215196062992128
 21
-7.737082677165354
 31
0
  0
LINE
  5
16E
330
1B
100
AcDbEntity
  8
BLACK
  6
CONTINUOUS
100
AcDbLine
 10
7.1215196062992128
 20
-7.737082677165354
 30
0
 11
7.1158953149606301
 21
-7.7314583464566926
 31
0
  0
LINE
  5
16F
330
1B
100
AcDbEntity
  8
BLACK
  6
CONTINUOUS
100
AcDbLine
 10
7.1158953149606301
 20
-7.7314583464566926
 30
0
 11
7.1130831496062994
 21
-7.7258340551181099
 31
0
  0
LINE
  5
170
330
1B
100
AcDbEntity
  8
BLACK
  6
CONTINUOUS
100
AcDbLine
 10
7.1130831496062994
 20
-7.7258340551181099
 30
0
 11
7.1102710236220474
 21
-7.7145854724409446
 31
0
  0
LINE
  5
171
330
1B
100
AcDbEntity
  8
BLACK
  6
CONTINUOUS
100
AcDbLine
 10
7.1102710236220474
 20
-7.7145854724409446
 30
0
 11
7.1102710236220474
 21
-7.7061490157480312
 31
0
  0
LINE
  5
172
330
1B
100
AcDbEntity
  8
BLACK
  6
CONTINUOUS
100
AcDbLine
 10
7.1102710236220474
 20
-7.7061490157480312
 30
0
 11
7.1130831496062994
 21
-7.6949004330708659
 31
0
  0
LINE
  5
173
330
1B
100
AcDbEntity
  8
BLACK
  6
CONTINUOUS
100
AcDbLine
 10
7.1130831496062994
 20
-7.6949004330708659
 30
0
 11
7.1158953149606301
 21
-7.6892761417322832
 31
0
  0
LINE
  5
174
330
1B
100
AcDbEntity
  8
BLACK
  6
CONTINUOUS
100
AcDbLine
 10
7.1158953149606301
 20
-7.6892761417322832
 30
0
 11
7.1215196062992128
 21
-7.6836518503937006
 31
0
  0
LINE
  5
175
330
1B
100
AcDbEntity
  8
BLACK
  6
CONTINUOUS
100
AcDbLine
 10
7.1215196062992128
 20
-7.6836518503937006
 30
0
 11
7.1299560629921261
 21
-7.6808396850393699
 31
0
  0
LINE
  5
176
330
1B
100
AcDbEntity
  8
BLACK
  6
CONTINUOUS
100
AcDbLine
 10
7.1299560629921261
 20
-7.6808396850393699
 30
0
 11
7.1355803543307088
 21
-7.6808396850393699
 31
0
  0
LINE
  5
177
330
1B
100
AcDbEntity
  8
BLACK
  6
CONTINUOUS
100
AcDbLine
 10
7.1355803543307088
 20
-7.6808396850393699
 30
0
 11
7.1440168110236222
 21
-7.6836518503937006
 31
0
  0
LINE
  5
178
330
1B
100
AcDbEntity
  8
BLACK
  6
CONTINUOUS
100
AcDbLine
 10
7.1440168110236222
 20
-7.6836518503937006
 30
0
 11
7.1468289370078741
 21
-7.6864639763779525
 31
0
  0
LINE
  5
179
330
1B
100
AcDbEntity
  8
BLACK
  6
CONTINUOUS
100
AcDbLine
 10
7.1974476377952756
 20
-7.739894803149606
 30
0
 11
7.1974476377952756
 21
-7.7089611811023619
 31
0
  0
LINE
  5
17A
330
1B
100
AcDbEntity
  8
BLACK
  6
CONTINUOUS
100
AcDbLine
 10
7.1974476377952756
 20
-7.7089611811023619
 30
0
 11
7.1946354724409449
 21
-7.7033368897637793
 31
0
  0
LINE
  5
17B
330
1B
100
AcDbEntity
  8
BLACK
  6
CONTINUOUS
100
AcDbLine
 10
7.1946354724409449
 20
-7.7033368897637793
 30
0
 11
7.1890111811023623
 21
-7.7005247244094486
 31
0
  0
LINE
  5
17C
330
1B
100
AcDbEntity
  8
BLACK
  6
CONTINUOUS
100
AcDbLine
 10
7.1890111811023623
 20
-7.7005247244094486
 30
0
 11
7.1777625984251969
 21
-7.7005247244094486
 31
0
  0
LINE
  5
17D
330
1B
100
AcDbEntity
  8
BLACK
  6
CONTINUOUS
100
AcDbLine
 10
7.1777625984251969
 20
-7.7005247244094486
 30
0
 11
7.1721382677165355
 21
-7.7033368897637793
 31
0
  0
LINE
  5
17E
330
1B
100
AcDbEntity
  8
BLACK
  6
CONTINUOUS
100
AcDbLine
 10
7.1974476377952756
 20
-7.737082677165354
 30
0
 11
7.1918233070866142
 21
-7.739894803149606
 31
0
  0
LINE
  5
17F
330
1B
100
AcDbEntity
  8
BLACK
  6
CONTINUOUS
100
AcDbLine
 10
7.1918233070866142
 20
-7.739894803149606
 30
0
 11
7.1777625984251969
 21
-7.739894803149606
 31
0
  0
LINE
  5
180
330
1B
100
AcDbEntity
  8
BLACK
  6
CONTINUOUS
100
AcDbLine
 10
7.1777625984251969
 20
-7.739894803149606
 30
0
 11
7.1721382677165355
 21
-7.737082677165354
 31
0
  0
LINE
  5
181
330
1B
100
AcDbEntity
  8
BLACK
  6
CONTINUOUS
100
AcDbLine
 10
7.1721382677165355
 20
-7.737082677165354
 30
0
 11
7.1693261417322836
 21
-7.7314583464566926
 31
0
  0
LINE
  5
182
330
1B
100
AcDbEntity
  8
BLACK
  6
CONTINUOUS
100
AcDbLine
 10
7.1693261417322836
 20
-7.7314583464566926
 30
0
 11
7.1693261417322836
 21
-7.7258340551181099
 31
0
  0
LINE
  5
183
330
1B
100
AcDbEntity
  8
BLACK
  6
CONTINUOUS
100
AcDbLine
 10
7.1693261417322836
 20
-7.7258340551181099
 30
0
 11
7.1721382677165355
 21
-7.7202097637795273
 31
0
  0
LINE
  5
184
330
1B
100
AcDbEntity
  8
BLACK
  6
CONTINUOUS
100
AcDbLine
 10
7.1721382677165355
 20
-7.7202097637795273
 30
0
 11
7.1777625984251969
 21
-7.7173976377952753
 31
0
  0
LINE
  5
185
330
1B
100
AcDbEntity
  8
BLACK
  6
CONTINUOUS
100
AcDbLine
 10
7.1777625984251969
 20
-7.7173976377952753
 30
0
 11
7.1918233070866142
 21
-7.7173976377952753
 31
0
  0
LINE
  5
186
330
1B
100
AcDbEntity
  8
BLACK
  6
CONTINUOUS
100
AcDbLine
 10
7.1918233070866142
 20
-7.7173976377952753
 30
0
 11
7.1974476377952756
 21
-7.7145854724409446
 31
0
  0
LINE
  5
187
330
1B
100
AcDbEntity
  8
BLACK
  6
CONTINUOUS
100
AcDbLine
 10
7.2508784645669291
 20
-7.739894803149606
 30
0
 11
7.2508784645669291
 21
-7.6808396850393699
 31
0
  0
LINE
  5
188
330
1B
100
AcDbEntity
  8
BLACK
  6
CONTINUOUS
100
AcDbLine
 10
7.2508784645669291
 20
-7.737082677165354
 30
0
 11
7.2452541338582677
 21
-7.739894803149606
 31
0
  0
LINE
  5
189
330
1B
100
AcDbEntity
  8
BLACK
  6
CONTINUOUS
100
AcDbLine
 10
7.2452541338582677
 20
-7.739894803149606
 30
0
 11
7.2340055511811023
 21
-7.739894803149606
 31
0
  0
LINE
  5
18A
330
1B
100
AcDbEntity
  8
BLACK
  6
CONTINUOUS
100
AcDbLine
 10
7.2340055511811023
 20
-7.739894803149606
 30
0
 11
7.2283812598425197
 21
-7.737082677165354
 31
0
  0
LINE
  5
18B
330
1B
100
AcDbEntity
  8
BLACK
  6
CONTINUOUS
100
AcDbLine
 10
7.2283812598425197
 20
-7.737082677165354
 30
0
 11
7.225569094488189
 21
-7.7342705118110233
 31
0
  0
LINE
  5
18C
330
1B
100
AcDbEntity
  8
BLACK
  6
CONTINUOUS
100
AcDbLine
 10
7.225569094488189
 20
-7.7342705118110233
 30
0
 11
7.222756968503937
 21
-7.7286462204724407
 31
0
  0
LINE
  5
18D
330
1B
100
AcDbEntity
  8
BLACK
  6
CONTINUOUS
100
AcDbLine
 10
7.222756968503937
 20
-7.7286462204724407
 30
0
 11
7.222756968503937
 21
-7.7117733070866139
 31
0
  0
LINE
  5
18E
330
1B
100
AcDbEntity
  8
BLACK
  6
CONTINUOUS
100
AcDbLine
 10
7.222756968503937
 20
-7.7117733070866139
 30
0
 11
7.225569094488189
 21
-7.7061490157480312
 31
0
  0
LINE
  5
18F
330
1B
100
AcDbEntity
  8
BLACK
  6
CONTINUOUS
100
AcDbLine
 10
7.225569094488189
 20
-7.7061490157480312
 30
0
 11
7.2283812598425197
 21
-7.7033368897637793
 31
0
  0
LINE
  5
190
330
1B
100
AcDbEntity
  8
BLACK
  6
CONTINUOUS
100
AcDbLine
 10
7.2283812598425197
 20
-7.7033368897637793
 30
0
 11
7.2340055511811023
 21
-7.7005247244094486
 31
0
  0
LINE
  5
191
330
1B
100
AcDbEntity
  8
BLACK
  6
CONTINUOUS
100
AcDbLine
 10
7.2340055511811023
 20
-7.7005247244094486
 30
0
 11
7.2452541338582677
 21
-7.7005247244094486
 31
0
  0
LINE
  5
192
330
1B
100
AcDbEntity
  8
BLACK
  6
CONTINUOUS
100
AcDbLine
 10
7.2452541338582677
 20
-7.7005247244094486
 30
0
 11
7.2508784645669291
 21
-7.7033368897637793
 31
0
  0
LINE
  5
193
330
1B
100
AcDbEntity
  8
BLACK
  6
CONTINUOUS
100
AcDbLine
 10
7.3239942913385825
 20
-7.7089611811023619
 30
0
 11
7.3436793307086612
 21
-7.7089611811023619
 31
0
  0
LINE
  5
194
330
1B
100
AcDbEntity
  8
BLACK
  6
CONTINUOUS
100
AcDbLine
 10
7.3521157874015746
 20
-7.739894803149606
 30
0
 11
7.3239942913385825
 21
-7.739894803149606
 31
0
  0
LINE
  5
195
330
1B
100
AcDbEntity
  8
BLACK
  6
CONTINUOUS
100
AcDbLine
 10
7.3239942913385825
 20
-7.739894803149606
 30
0
 11
7.3239942913385825
 21
-7.6808396850393699
 31
0
  0
LINE
  5
196
330
1B
100
AcDbEntity
  8
BLACK
  6
CONTINUOUS
100
AcDbLine
 10
7.3239942913385825
 20
-7.6808396850393699
 30
0
 11
7.3521157874015746
 21
-7.6808396850393699
 31
0
  0
LINE
  5
197
330
1B
100
AcDbEntity
  8
BLACK
  6
CONTINUOUS
100
AcDbLine
 10
7.3774251181102359
 20
-7.7342705118110233
 30
0
 11
7.3802372834645666
 21
-7.737082677165354
 31
0
  0
LINE
  5
198
330
1B
100
AcDbEntity
  8
BLACK
  6
CONTINUOUS
100
AcDbLine
 10
7.3802372834645666
 20
-7.737082677165354
 30
0
 11
7.3774251181102359
 21
-7.739894803149606
 31
0
  0
LINE
  5
199
330
1B
100
AcDbEntity
  8
BLACK
  6
CONTINUOUS
100
AcDbLine
 10
7.3774251181102359
 20
-7.739894803149606
 30
0
 11
7.374612992125984
 21
-7.737082677165354
 31
0
  0
LINE
  5
19A
330
1B
100
AcDbEntity
  8
BLACK
  6
CONTINUOUS
100
AcDbLine
 10
7.374612992125984
 20
-7.737082677165354
 30
0
 11
7.3774251181102359
 21
-7.7342705118110233
 31
0
  0
LINE
  5
19B
330
1B
100
AcDbEntity
  8
BLACK
  6
CONTINUOUS
100
AcDbLine
 10
7.3774251181102359
 20
-7.7342705118110233
 30
0
 11
7.3774251181102359
 21
-7.739894803149606
 31
0
  0
LINE
  5
19C
330
1B
100
AcDbEntity
  8
BLACK
  6
CONTINUOUS
100
AcDbLine
 10
7.405546614173228
 20
-7.739894803149606
 30
0
 11
7.405546614173228
 21
-7.6808396850393699
 31
0
  0
LINE
  5
19D
330
1B
100
AcDbEntity
  8
BLACK
  6
CONTINUOUS
100
AcDbLine
 10
7.405546614173228
 20
-7.6808396850393699
 30
0
 11
7.4196073622047241
 21
-7.6808396850393699
 31
0
  0
LINE
  5
19E
330
1B
100
AcDbEntity
  8
BLACK
  6
CONTINUOUS
100
AcDbLine
 10
7.4196073622047241
 20
-7.6808396850393699
 30
0
 11
7.4280438188976374
 21
-7.6836518503937006
 31
0
  0
LINE
  5
19F
330
1B
100
AcDbEntity
  8
BLACK
  6
CONTINUOUS
100
AcDbLine
 10
7.4280438188976374
 20
-7.6836518503937006
 30
0
 11
7.4336681102362201
 21
-7.6892761417322832
 31
0
  0
LINE
  5
1A0
330
1B
100
AcDbEntity
  8
BLACK
  6
CONTINUOUS
100
AcDbLine
 10
7.4336681102362201
 20
-7.6892761417322832
 30
0
 11
7.4364802755905508
 21
-7.6949004330708659
 31
0
  0
LINE
  5
1A1
330
1B
100
AcDbEntity
  8
BLACK
  6
CONTINUOUS
100
AcDbLine
 10
7.4364802755905508
 20
-7.6949004330708659
 30
0
 11
7.4392924015748028
 21
-7.7061490157480312
 31
0
  0
LINE
  5
1A2
330
1B
100
AcDbEntity
  8
BLACK
  6
CONTINUOUS
100
AcDbLine
 10
7.4392924015748028
 20
-7.7061490157480312
 30
0
 11
7.4392924015748028
 21
-7.7145854724409446
 31
0
  0
LINE
  5
1A3
330
1B
100
AcDbEntity
  8
BLACK
  6
CONTINUOUS
100
AcDbLine
 10
7.4392924015748028
 20
-7.7145854724409446
 30
0
 11
7.4364802755905508
 21
-7.7258340551181099
 31
0
  0
LINE
  5
1A4
330
1B
100
AcDbEntity
  8
BLACK
  6
CONTINUOUS
100
AcDbLine
 10
7.4364802755905508
 20
-7.7258340551181099
 30
0
 11
7.4336681102362201
 21
-7.7314583464566926
 31
0
  0
LINE
  5
1A5
330
1B
100
AcDbEntity
  8
BLACK
  6
CONTINUOUS
100
AcDbLine
 10
7.4336681102362201
 20
-7.7314583464566926
 30
0
 11
7.4280438188976374
 21
-7.737082677165354
 31
0
  0
LINE
  5
1A6
330
1B
100
AcDbEntity
  8
BLACK
  6
CONTINUOUS
100
AcDbLine
 10
7.4280438188976374
 20
-7.737082677165354
 30
0
 11
7.4196073622047241
 21
-7.739894803149606
 31
0
  0
LINE
  5
1A7
330
1B
100
AcDbEntity
  8
BLACK
  6
CONTINUOUS
100
AcDbLine
 10
7.4196073622047241
 20
-7.739894803149606
 30
0
 11
7.405546614173228
 21
-7.739894803149606
 31
0
  0
LINE
  5
1A8
330
1B
100
AcDbEntity
  8
BLACK
  6
CONTINUOUS
100
AcDbLine
 10
7.4646017322834641
 20
-7.7342705118110233
 30
0
 11
7.4674138976377948
 21
-7.737082677165354
 31
0
  0
LINE
  5
1A9
330
1B
100
AcDbEntity
  8
BLACK
  6
CONTINUOUS
100
AcDbLine
 10
7.4674138976377948
 20
-7.737082677165354
 30
0
 11
7.4646017322834641
 21
-7.739894803149606
 31
0
  0
LINE
  5
1AA
330
1B
100
AcDbEntity
  8
BLACK
  6
CONTINUOUS
100
AcDbLine
 10
7.4646017322834641
 20
-7.739894803149606
 30
0
 11
7.4617896062992122
 21
-7.737082677165354
 31
0
  0
LINE
  5
1AB
330
1B
100
AcDbEntity
  8
BLACK
  6
CONTINUOUS
100
AcDbLine
 10
7.4617896062992122
 20
-7.737082677165354
 30
0
 11
7.4646017322834641
 21
-7.7342705118110233
 31
0
  0
LINE
  5
1AC
330
1B
100
AcDbEntity
  8
BLACK
  6
CONTINUOUS
100
AcDbLine
 10
7.4646017322834641
 20
-7.7342705118110233
 30
0
 11
7.4646017322834641
 21
-7.739894803149606
 31
0
  0
LINE
  5
1AD
330
1B
100
AcDbEntity
  8
BLACK
  6
CONTINUOUS
100
AcDbLine
 10
7.4899111023622043
 20
-7.723021929133858
 30
0
 11
7.5180325984251963
 21
-7.723021929133858
 31
0
  0
LINE
  5
1AE
330
1B
100
AcDbEntity
  8
BLACK
  6
CONTINUOUS
100
AcDbLine
 10
7.4842868110236216
 20
-7.739894803149606
 30
0
 11
7.5039718503937003
 21
-7.6808396850393699
 31
0
  0
LINE
  5
1AF
330
1B
100
AcDbEntity
  8
BLACK
  6
CONTINUOUS
100
AcDbLine
 10
7.5039718503937003
 20
-7.6808396850393699
 30
0
 11
7.523656889763779
 21
-7.739894803149606
 31
0
  0
LINE
  5
1B0
330
1B
100
AcDbEntity
  8
BLACK
  6
CONTINUOUS
100
AcDbLine
 10
7.543341889763779
 20
-7.7342705118110233
 30
0
 11
7.5461540551181097
 21
-7.737082677165354
 31
0
  0
LINE
  5
1B1
330
1B
100
AcDbEntity
  8
BLACK
  6
CONTINUOUS
100
AcDbLine
 10
7.5461540551181097
 20
-7.737082677165354
 30
0
 11
7.543341889763779
 21
-7.739894803149606
 31
0
  0
LINE
  5
1B2
330
1B
100
AcDbEntity
  8
BLACK
  6
CONTINUOUS
100
AcDbLine
 10
7.543341889763779
 20
-7.739894803149606
 30
0
 11
7.540529763779527
 21
-7.737082677165354
 31
0
  0
LINE
  5
1B3
330
1B
100
AcDbEntity
  8
BLACK
  6
CONTINUOUS
100
AcDbLine
 10
7.540529763779527
 20
-7.737082677165354
 30
0
 11
7.543341889763779
 21
-7.7342705118110233
 31
0
  0
LINE
  5
1B4
330
1B
100
AcDbEntity
  8
BLACK
  6
CONTINUOUS
100
AcDbLine
 10
7.543341889763779
 20
-7.7342705118110233
 30
0
 11
7.543341889763779
 21
-7.739894803149606
 31
0
  0
LINE
  5
1B5
330
1B
100
AcDbEntity
  8
BLACK
  6
CONTINUOUS
100
AcDbLine
 10
7.6473914173228348
 20
-7.739894803149606
 30
0
 11
7.61364562992126
 21
-7.739894803149606
 31
0
  0
LINE
  5
1B6
330
1B
100
AcDbEntity
  8
BLACK
  6
CONTINUOUS
100
AcDbLine
 10
7.630518503937008
 20
-7.739894803149606
 30
0
 11
7.630518503937008
 21
-7.6808396850393699
 31
0
  0
LINE
  5
1B7
330
1B
100
AcDbEntity
  8
BLACK
  6
CONTINUOUS
100
AcDbLine
 10
7.630518503937008
 20
-7.6808396850393699
 30
0
 11
7.6248942125984254
 21
-7.6892761417322832
 31
0
  0
LINE
  5
1B8
330
1B
100
AcDbEntity
  8
BLACK
  6
CONTINUOUS
100
AcDbLine
 10
7.6248942125984254
 20
-7.6892761417322832
 30
0
 11
7.6192699212598427
 21
-7.6949004330708659
 31
0
  0
LINE
  5
1B9
330
1B
100
AcDbEntity
  8
BLACK
  6
CONTINUOUS
100
AcDbLine
 10
7.6192699212598427
 20
-7.6949004330708659
 30
0
 11
7.61364562992126
 21
-7.6977125984251966
 31
0
  0
LINE
  5
1BA
330
1B
100
AcDbEntity
  8
BLACK
  6
CONTINUOUS
100
AcDbLine
 10
7.6839493307086615
 20
-7.6808396850393699
 30
0
 11
7.6895736220472442
 21
-7.6808396850393699
 31
0
  0
LINE
  5
1BB
330
1B
100
AcDbEntity
  8
BLACK
  6
CONTINUOUS
100
AcDbLine
 10
7.6895736220472442
 20
-7.6808396850393699
 30
0
 11
7.6951979133858268
 21
-7.6836518503937006
 31
0
  0
LINE
  5
1BC
330
1B
100
AcDbEntity
  8
BLACK
  6
CONTINUOUS
100
AcDbLine
 10
7.6951979133858268
 20
-7.6836518503937006
 30
0
 11
7.6980100787401575
 21
-7.6864639763779525
 31
0
  0
LINE
  5
1BD
330
1B
100
AcDbEntity
  8
BLACK
  6
CONTINUOUS
100
AcDbLine
 10
7.6980100787401575
 20
-7.6864639763779525
 30
0
 11
7.7008222047244095
 21
-7.6920882677165352
 31
0
  0
LINE
  5
1BE
330
1B
100
AcDbEntity
  8
BLACK
  6
CONTINUOUS
100
AcDbLine
 10
7.7008222047244095
 20
-7.6920882677165352
 30
0
 11
7.7036343700787402
 21
-7.7033368897637793
 31
0
  0
LINE
  5
1BF
330
1B
100
AcDbEntity
  8
BLACK
  6
CONTINUOUS
100
AcDbLine
 10
7.7036343700787402
 20
-7.7033368897637793
 30
0
 11
7.7036343700787402
 21
-7.7173976377952753
 31
0
  0
LINE
  5
1C0
330
1B
100
AcDbEntity
  8
BLACK
  6
CONTINUOUS
100
AcDbLine
 10
7.7036343700787402
 20
-7.7173976377952753
 30
0
 11
7.7008222047244095
 21
-7.7286462204724407
 31
0
  0
LINE
  5
1C1
330
1B
100
AcDbEntity
  8
BLACK
  6
CONTINUOUS
100
AcDbLine
 10
7.7008222047244095
 20
-7.7286462204724407
 30
0
 11
7.6980100787401575
 21
-7.7342705118110233
 31
0
  0
LINE
  5
1C2
330
1B
100
AcDbEntity
  8
BLACK
  6
CONTINUOUS
100
AcDbLine
 10
7.6980100787401575
 20
-7.7342705118110233
 30
0
 11
7.6951979133858268
 21
-7.737082677165354
 31
0
  0
LINE
  5
1C3
330
1B
100
AcDbEntity
  8
BLACK
  6
CONTINUOUS
100
AcDbLine
 10
7.6951979133858268
 20
-7.737082677165354
 30
0
 11
7.6895736220472442
 21
-7.739894803149606
 31
0
  0
LINE
  5
1C4
330
1B
100
AcDbEntity
  8
BLACK
  6
CONTINUOUS
100
AcDbLine
 10
7.6895736220472442
 20
-7.739894803149606
 30
0
 11
7.6839493307086615
 21
-7.739894803149606
 31
0
  0
LINE
  5
1C5
330
1B
100
AcDbEntity
  8
BLACK
  6
CONTINUOUS
100
AcDbLine
 10
7.6839493307086615
 20
-7.739894803149606
 30
0
 11
7.6783250393700788
 21
-7.737082677165354
 31
0
  0
LINE
  5
1C6
330
1B
100
AcDbEntity
  8
BLACK
  6
CONTINUOUS
100
AcDbLine
 10
7.6783250393700788
 20
-7.737082677165354
 30
0
 11
7.6755128740157481
 21
-7.7342705118110233
 31
0
  0
LINE
  5
1C7
330
1B
100
AcDbEntity
  8
BLACK
  6
CONTINUOUS
100
AcDbLine
 10
7.6755128740157481
 20
-7.7342705118110233
 30
0
 11
7.6727007086614174
 21
-7.7286462204724407
 31
0
  0
LINE
  5
1C8
330
1B
100
AcDbEntity
  8
BLACK
  6
CONTINUOUS
100
AcDbLine
 10
7.6727007086614174
 20
-7.7286462204724407
 30
0
 11
7.6698885826771654
 21
-7.7173976377952753
 31
0
  0
LINE
  5
1C9
330
1B
100
AcDbEntity
  8
BLACK
  6
CONTINUOUS
100
AcDbLine
 10
7.6698885826771654
 20
-7.7173976377952753
 30
0
 11
7.6698885826771654
 21
-7.7033368897637793
 31
0
  0
LINE
  5
1CA
330
1B
100
AcDbEntity
  8
BLACK
  6
CONTINUOUS
100
AcDbLine
 10
7.6698885826771654
 20
-7.7033368897637793
 30
0
 11
7.6727007086614174
 21
-7.6920882677165352
 31
0
  0
LINE
  5
1CB
330
1B
100
AcDbEntity
  8
BLACK
  6
CONTINUOUS
100
AcDbLine
 10
7.6727007086614174
 20
-7.6920882677165352
 30
0
 11
7.6755128740157481
 21
-7.6864639763779525
 31
0
  0
LINE
  5
1CC
330
1B
100
AcDbEntity
  8
BLACK
  6
CONTINUOUS
100
AcDbLine
 10
7.6755128740157481
 20
-7.6864639763779525
 30
0
 11
7.6783250393700788
 21
-7.6836518503937006
 31
0
  0
LINE
  5
1CD
330
1B
100
AcDbEntity
  8
BLACK
  6
CONTINUOUS
100
AcDbLine
 10
7.6783250393700788
 20
-7.6836518503937006
 30
0
 11
7.6839493307086615
 21
-7.6808396850393699
 31
0
  0
LINE
  5
1CE
330
1B
100
AcDbEntity
  8
BLACK
  6
CONTINUOUS
100
AcDbLine
 10
7.7289436614173228
 20
-7.7342705118110233
 30
0
 11
7.7317558267716535
 21
-7.737082677165354
 31
0
  0
LINE
  5
1CF
330
1B
100
AcDbEntity
  8
BLACK
  6
CONTINUOUS
100
AcDbLine
 10
7.7317558267716535
 20
-7.737082677165354
 30
0
 11
7.7289436614173228
 21
-7.739894803149606
 31
0
  0
LINE
  5
1D0
330
1B
100
AcDbEntity
  8
BLACK
  6
CONTINUOUS
100
AcDbLine
 10
7.7289436614173228
 20
-7.739894803149606
 30
0
 11
7.7261315354330709
 21
-7.737082677165354
 31
0
  0
LINE
  5
1D1
330
1B
100
AcDbEntity
  8
BLACK
  6
CONTINUOUS
100
AcDbLine
 10
7.7261315354330709
 20
-7.737082677165354
 30
0
 11
7.7289436614173228
 21
-7.7342705118110233
 31
0
  0
LINE
  5
1D2
330
1B
100
AcDbEntity
  8
BLACK
  6
CONTINUOUS
100
AcDbLine
 10
7.7289436614173228
 20
-7.7342705118110233
 30
0
 11
7.7289436614173228
 21
-7.739894803149606
 31
0
  0
LINE
  5
1D3
330
1B
100
AcDbEntity
  8
BLACK
  6
CONTINUOUS
100
AcDbLine
 10
7.768313779527559
 20
-7.6808396850393699
 30
0
 11
7.7739380708661416
 21
-7.6808396850393699
 31
0
  0
LINE
  5
1D4
330
1B
100
AcDbEntity
  8
BLACK
  6
CONTINUOUS
100
AcDbLine
 10
7.7739380708661416
 20
-7.6808396850393699
 30
0
 11
7.7795623622047243
 21
-7.6836518503937006
 31
0
  0
LINE
  5
1D5
330
1B
100
AcDbEntity
  8
BLACK
  6
CONTINUOUS
100
AcDbLine
 10
7.7795623622047243
 20
-7.6836518503937006
 30
0
 11
7.782374527559055
 21
-7.6864639763779525
 31
0
  0
LINE
  5
1D6
330
1B
100
AcDbEntity
  8
BLACK
  6
CONTINUOUS
100
AcDbLine
 10
7.782374527559055
 20
-7.6864639763779525
 30
0
 11
7.785186653543307
 21
-7.6920882677165352
 31
0
  0
LINE
  5
1D7
330
1B
100
AcDbEntity
  8
BLACK
  6
CONTINUOUS
100
AcDbLine
 10
7.785186653543307
 20
-7.6920882677165352
 30
0
 11
7.7879988188976377
 21
-7.7033368897637793
 31
0
  0
LINE
  5
1D8
330
1B
100
AcDbEntity
  8
BLACK
  6
CONTINUOUS
100
AcDbLine
 10
7.7879988188976377
 20
-7.7033368897637793
 30
0
 11
7.7879988188976377
 21
-7.7173976377952753
 31
0
  0
LINE
  5
1D9
330
1B
100
AcDbEntity
  8
BLACK
  6
CONTINUOUS
100
AcDbLine
 10
7.7879988188976377
 20
-7.7173976377952753
 30
0
 11
7.785186653543307
 21
-7.7286462204724407
 31
0
  0
LINE
  5
1DA
330
1B
100
AcDbEntity
  8
BLACK
  6
CONTINUOUS
100
AcDbLine
 10
7.785186653543307
 20
-7.7286462204724407
 30
0
 11
7.782374527559055
 21
-7.7342705118110233
 31
0
  0
LINE
  5
1DB
330
1B
100
AcDbEntity
  8
BLACK
  6
CONTINUOUS
100
AcDbLine
 10
7.782374527559055
 20
-7.7342705118110233
 30
0
 11
7.7795623622047243
 21
-7.737082677165354
 31
0
  0
LINE
  5
1DC
330
1B
100
AcDbEntity
  8
BLACK
  6
CONTINUOUS
100
AcDbLine
 10
7.7795623622047243
 20
-7.737082677165354
 30
0
 11
7.7739380708661416
 21
-7.739894803149606
 31
0
  0
LINE
  5
1DD
330
1B
100
AcDbEntity
  8
BLACK
  6
CONTINUOUS
100
AcDbLine
 10
7.7739380708661416
 20
-7.739894803149606
 30
0
 11
7.768313779527559
 21
-7.739894803149606
 31
0
  0
LINE
  5
1DE
330
1B
100
AcDbEntity
  8
BLACK
  6
CONTINUOUS
100
AcDbLine
 10
7.768313779527559
 20
-7.739894803149606
 30
0
 11
7.7626894881889763
 21
-7.737082677165354
 31
0
  0
LINE
  5
1DF
330
1B
100
AcDbEntity
  8
BLACK
  6
CONTINUOUS
100
AcDbLine
 10
7.7626894881889763
 20
-7.737082677165354
 30
0
 11
7.7598773228346456
 21
-7.7342705118110233
 31
0
  0
LINE
  5
1E0
330
1B
100
AcDbEntity
  8
BLACK
  6
CONTINUOUS
100
AcDbLine
 10
7.7598773228346456
 20
-7.7342705118110233
 30
0
 11
7.7570651574803149
 21
-7.7286462204724407
 31
0
  0
LINE
  5
1E1
330
1B
100
AcDbEntity
  8
BLACK
  6
CONTINUOUS
100
AcDbLine
 10
7.7570651574803149
 20
-7.7286462204724407
 30
0
 11
7.7542530314960629
 21
-7.7173976377952753
 31
0
  0
LINE
  5
1E2
330
1B
100
AcDbEntity
  8
BLACK
  6
CONTINUOUS
100
AcDbLine
 10
7.7542530314960629
 20
-7.7173976377952753
 30
0
 11
7.7542530314960629
 21
-7.7033368897637793
 31
0
  0
LINE
  5
1E3
330
1B
100
AcDbEntity
  8
BLACK
  6
CONTINUOUS
100
AcDbLine
 10
7.7542530314960629
 20
-7.7033368897637793
 30
0
 11
7.7570651574803149
 21
-7.6920882677165352
 31
0
  0
LINE
  5
1E4
330
1B
100
AcDbEntity
  8
BLACK
  6
CONTINUOUS
100
AcDbLine
 10
7.7570651574803149
 20
-7.6920882677165352
 30
0
 11
7.7598773228346456
 21
-7.6864639763779525
 31
0
  0
LINE
  5
1E5
330
1B
100
AcDbEntity
  8
BLACK
  6
CONTINUOUS
100
AcDbLine
 10
7.7598773228346456
 20
-7.6864639763779525
 30
0
 11
7.7626894881889763
 21
-7.6836518503937006
 31
0
  0
LINE
  5
1E6
330
1B
100
AcDbEntity
  8
BLACK
  6
CONTINUOUS
100
AcDbLine
 10
7.7626894881889763
 20
-7.6836518503937006
 30
0
 11
7.768313779527559
 21
-7.6808396850393699
 31
0
  0
LINE
  5
1E7
330
1B
100
AcDbEntity
  8
BLACK
  6
CONTINUOUS
100
AcDbLine
 10
7.8133081102362203
 20
-7.7342705118110233
 30
0
 11
7.816120275590551
 21
-7.737082677165354
 31
0
  0
LINE
  5
1E8
330
1B
100
AcDbEntity
  8
BLACK
  6
CONTINUOUS
100
AcDbLine
 10
7.816120275590551
 20
-7.737082677165354
 30
0
 11
7.8133081102362203
 21
-7.739894803149606
 31
0
  0
LINE
  5
1E9
330
1B
100
AcDbEntity
  8
BLACK
  6
CONTINUOUS
100
AcDbLine
 10
7.8133081102362203
 20
-7.739894803149606
 30
0
 11
7.8104959842519683
 21
-7.737082677165354
 31
0
  0
LINE
  5
1EA
330
1B
100
AcDbEntity
  8
BLACK
  6
CONTINUOUS
100
AcDbLine
 10
7.8104959842519683
 20
-7.737082677165354
 30
0
 11
7.8133081102362203
 21
-7.7342705118110233
 31
0
  0
LINE
  5
1EB
330
1B
100
AcDbEntity
  8
BLACK
  6
CONTINUOUS
100
AcDbLine
 10
7.8133081102362203
 20
-7.7342705118110233
 30
0
 11
7.8133081102362203
 21
-7.739894803149606
 31
0
  0
LINE
  5
1EC
330
1B
100
AcDbEntity
  8
BLACK
  6
CONTINUOUS
100
AcDbLine
 10
7.8667389763779525
 20
-7.6808396850393699
 30
0
 11
7.8554903543307084
 21
-7.6808396850393699
 31
0
  0
LINE
  5
1ED
330
1B
100
AcDbEntity
  8
BLACK
  6
CONTINUOUS
100
AcDbLine
 10
7.8554903543307084
 20
-7.6808396850393699
 30
0
 11
7.8498660629921257
 21
-7.6836518503937006
 31
0
  0
LINE
  5
1EE
330
1B
100
AcDbEntity
  8
BLACK
  6
CONTINUOUS
100
AcDbLine
 10
7.8498660629921257
 20
-7.6836518503937006
 30
0
 11
7.8470539370078738
 21
-7.6864639763779525
 31
0
  0
LINE
  5
1EF
330
1B
100
AcDbEntity
  8
BLACK
  6
CONTINUOUS
100
AcDbLine
 10
7.8470539370078738
 20
-7.6864639763779525
 30
0
 11
7.8414296062992124
 21
-7.6949004330708659
 31
0
  0
LINE
  5
1F0
330
1B
100
AcDbEntity
  8
BLACK
  6
CONTINUOUS
100
AcDbLine
 10
7.8414296062992124
 20
-7.6949004330708659
 30
0
 11
7.8386174803149604
 21
-7.7061490157480312
 31
0
  0
LINE
  5
1F1
330
1B
100
AcDbEntity
  8
BLACK
  6
CONTINUOUS
100
AcDbLine
 10
7.8386174803149604
 20
-7.7061490157480312
 30
0
 11
7.8386174803149604
 21
-7.7286462204724407
 31
0
  0
LINE
  5
1F2
330
1B
100
AcDbEntity
  8
BLACK
  6
CONTINUOUS
100
AcDbLine
 10
7.8386174803149604
 20
-7.7286462204724407
 30
0
 11
7.8414296062992124
 21
-7.7342705118110233
 31
0
  0
LINE
  5
1F3
330
1B
100
AcDbEntity
  8
BLACK
  6
CONTINUOUS
100
AcDbLine
 10
7.8414296062992124
 20
-7.7342705118110233
 30
0
 11
7.8442417716535431
 21
-7.737082677165354
 31
0
  0
LINE
  5
1F4
330
1B
100
AcDbEntity
  8
BLACK
  6
CONTINUOUS
100
AcDbLine
 10
7.8442417716535431
 20
-7.737082677165354
 30
0
 11
7.8498660629921257
 21
-7.739894803149606
 31
0
  0
LINE
  5
1F5
330
1B
100
AcDbEntity
  8
BLACK
  6
CONTINUOUS
100
AcDbLine
 10
7.8498660629921257
 20
-7.739894803149606
 30
0
 11
7.8611146456692911
 21
-7.739894803149606
 31
0
  0
LINE
  5
1F6
330
1B
100
AcDbEntity
  8
BLACK
  6
CONTINUOUS
100
AcDbLine
 10
7.8611146456692911
 20
-7.739894803149606
 30
0
 11
7.8667389763779525
 21
-7.737082677165354
 31
0
  0
LINE
  5
1F7
330
1B
100
AcDbEntity
  8
BLACK
  6
CONTINUOUS
100
AcDbLine
 10
7.8667389763779525
 20
-7.737082677165354
 30
0
 11
7.8695511023622045
 21
-7.7342705118110233
 31
0
  0
LINE
  5
1F8
330
1B
100
AcDbEntity
  8
BLACK
  6
CONTINUOUS
100
AcDbLine
 10
7.8695511023622045
 20
-7.7342705118110233
 30
0
 11
7.8723632677165352
 21
-7.7286462204724407
 31
0
  0
LINE
  5
1F9
330
1B
100
AcDbEntity
  8
BLACK
  6
CONTINUOUS
100
AcDbLine
 10
7.8723632677165352
 20
-7.7286462204724407
 30
0
 11
7.8723632677165352
 21
-7.7145854724409446
 31
0
  0
LINE
  5
1FA
330
1B
100
AcDbEntity
  8
BLACK
  6
CONTINUOUS
100
AcDbLine
 10
7.8723632677165352
 20
-7.7145854724409446
 30
0
 11
7.8695511023622045
 21
-7.7089611811023619
 31
0
  0
LINE
  5
1FB
330
1B
100
AcDbEntity
  8
BLACK
  6
CONTINUOUS
100
AcDbLine
 10
7.8695511023622045
 20
-7.7089611811023619
 30
0
 11
7.8667389763779525
 21
-7.7061490157480312
 31
0
  0
LINE
  5
1FC
330
1B
100
AcDbEntity
  8
BLACK
  6
CONTINUOUS
100
AcDbLine
 10
7.8667389763779525
 20
-7.7061490157480312
 30
0
 11
7.8611146456692911
 21
-7.7033368897637793
 31
0
  0
LINE
  5
1FD
330
1B
100
AcDbEntity
  8
BLACK
  6
CONTINUOUS
100
AcDbLine
 10
7.8611146456692911
 20
-7.7033368897637793
 30
0
 11
7.8498660629921257
 21
-7.7033368897637793
 31
0
  0
LINE
  5
1FE
330
1B
100
AcDbEntity
  8
BLACK
  6
CONTINUOUS
100
AcDbLine
 10
7.8498660629921257
 20
-7.7033368897637793
 30
0
 11
7.8442417716535431
 21
-7.7061490157480312
 31
0
  0
LINE
  5
1FF
330
1B
100
AcDbEntity
  8
BLACK
  6
CONTINUOUS
100
AcDbLine
 10
7.8442417716535431
 20
-7.7061490157480312
 30
0
 11
7.8414296062992124
 21
-7.7089611811023619
 31
0
  0
LINE
  5
200
330
1B
100
AcDbEntity
  8
BLACK
  6
CONTINUOUS
100
AcDbLine
 10
7.8414296062992124
 20
-7.7089611811023619
 30
0
 11
7.8386174803149604
 21
-7.7145854724409446
 31
0
  0
LINE
  5
201
330
1B
100
AcDbEntity
  8
BLACK
  6
CONTINUOUS
100
AcDbLine
 10
6.9685905511811024
 20
-7.5396535433070868
 30
0
 11
11.2205590551181107
 21
-7.5396535433070868
 31
0
  0
LINE
  5
202
330
1B
100
AcDbEntity
  8
BLACK
  6
CONTINUOUS
100
AcDbLine
 10
10.4099942125984253
 20
-7.6293514960629922
 30
0
 11
10.3903091732283457
 21
-7.6012300000000002
 31
0
  0
LINE
  5
203
330
1B
100
AcDbEntity
  8
BLACK
  6
CONTINUOUS
100
AcDbLine
 10
10.3762484251968505
 20
-7.6293514960629922
 30
0
 11
10.3762484251968505
 21
-7.5702963779527561
 31
0
  0
LINE
  5
204
330
1B
100
AcDbEntity
  8
BLACK
  6
CONTINUOUS
100
AcDbLine
 10
10.3762484251968505
 20
-7.5702963779527561
 30
0
 11
10.3987456299212599
 21
-7.5702963779527561
 31
0
  0
LINE
  5
205
330
1B
100
AcDbEntity
  8
BLACK
  6
CONTINUOUS
100
AcDbLine
 10
10.3987456299212599
 20
-7.5702963779527561
 30
0
 11
10.4043699212598426
 21
-7.5731085433070868
 31
0
  0
LINE
  5
206
330
1B
100
AcDbEntity
  8
BLACK
  6
CONTINUOUS
100
AcDbLine
 10
10.4043699212598426
 20
-7.5731085433070868
 30
0
 11
10.4071820866141724
 21
-7.5759206692913388
 31
0
  0
LINE
  5
207
330
1B
100
AcDbEntity
  8
BLACK
  6
CONTINUOUS
100
AcDbLine
 10
10.4071820866141724
 20
-7.5759206692913388
 30
0
 11
10.4099942125984253
 21
-7.5815449606299214
 31
0
  0
LINE
  5
208
330
1B
100
AcDbEntity
  8
BLACK
  6
CONTINUOUS
100
AcDbLine
 10
10.4099942125984253
 20
-7.5815449606299214
 30
0
 11
10.4099942125984253
 21
-7.5899814173228348
 31
0
  0
LINE
  5
209
330
1B
100
AcDbEntity
  8
BLACK
  6
CONTINUOUS
100
AcDbLine
 10
10.4099942125984253
 20
-7.5899814173228348
 30
0
 11
10.4071820866141724
 21
-7.5956057086614175
 31
0
  0
LINE
  5
20A
330
1B
100
AcDbEntity
  8
BLACK
  6
CONTINUOUS
100
AcDbLine
 10
10.4071820866141724
 20
-7.5956057086614175
 30
0
 11
10.4043699212598426
 21
-7.5984178740157482
 31
0
  0
LINE
  5
20B
330
1B
100
AcDbEntity
  8
BLACK
  6
CONTINUOUS
100
AcDbLine
 10
10.4043699212598426
 20
-7.5984178740157482
 30
0
 11
10.3987456299212599
 21
-7.6012300000000002
 31
0
  0
LINE
  5
20C
330
1B
100
AcDbEntity
  8
BLACK
  6
CONTINUOUS
100
AcDbLine
 10
10.3987456299212599
 20
-7.6012300000000002
 30
0
 11
10.3762484251968505
 21
-7.6012300000000002
 31
0
  0
LINE
  5
20D
330
1B
100
AcDbEntity
  8
BLACK
  6
CONTINUOUS
100
AcDbLine
 10
10.4578007480314952
 20
-7.6265393700787403
 30
0
 11
10.4521764566929125
 21
-7.6293514960629922
 31
0
  0
LINE
  5
20E
330
1B
100
AcDbEntity
  8
BLACK
  6
CONTINUOUS
100
AcDbLine
 10
10.4521764566929125
 20
-7.6293514960629922
 30
0
 11
10.4409278740157472
 21
-7.6293514960629922
 31
0
  0
LINE
  5
20F
330
1B
100
AcDbEntity
  8
BLACK
  6
CONTINUOUS
100
AcDbLine
 10
10.4409278740157472
 20
-7.6293514960629922
 30
0
 11
10.4353035433070858
 21
-7.6265393700787403
 31
0
  0
LINE
  5
210
330
1B
100
AcDbEntity
  8
BLACK
  6
CONTINUOUS
100
AcDbLine
 10
10.4353035433070858
 20
-7.6265393700787403
 30
0
 11
10.4324914173228347
 21
-7.6209150393700789
 31
0
  0
LINE
  5
211
330
1B
100
AcDbEntity
  8
BLACK
  6
CONTINUOUS
100
AcDbLine
 10
10.4324914173228347
 20
-7.6209150393700789
 30
0
 11
10.4324914173228347
 21
-7.5984178740157482
 31
0
  0
LINE
  5
212
330
1B
100
AcDbEntity
  8
BLACK
  6
CONTINUOUS
100
AcDbLine
 10
10.4324914173228347
 20
-7.5984178740157482
 30
0
 11
10.4353035433070858
 21
-7.5927935826771655
 31
0
  0
LINE
  5
213
330
1B
100
AcDbEntity
  8
BLACK
  6
CONTINUOUS
100
AcDbLine
 10
10.4353035433070858
 20
-7.5927935826771655
 30
0
 11
10.4409278740157472
 21
-7.5899814173228348
 31
0
  0
LINE
  5
214
330
1B
100
AcDbEntity
  8
BLACK
  6
CONTINUOUS
100
AcDbLine
 10
10.4409278740157472
 20
-7.5899814173228348
 30
0
 11
10.4521764566929125
 21
-7.5899814173228348
 31
0
  0
LINE
  5
215
330
1B
100
AcDbEntity
  8
BLACK
  6
CONTINUOUS
100
AcDbLine
 10
10.4521764566929125
 20
-7.5899814173228348
 30
0
 11
10.4578007480314952
 21
-7.5927935826771655
 31
0
  0
LINE
  5
216
330
1B
100
AcDbEntity
  8
BLACK
  6
CONTINUOUS
100
AcDbLine
 10
10.4578007480314952
 20
-7.5927935826771655
 30
0
 11
10.4606129133858268
 21
-7.5984178740157482
 31
0
  0
LINE
  5
217
330
1B
100
AcDbEntity
  8
BLACK
  6
CONTINUOUS
100
AcDbLine
 10
10.4606129133858268
 20
-7.5984178740157482
 30
0
 11
10.4606129133858268
 21
-7.6040421653543309
 31
0
  0
LINE
  5
218
330
1B
100
AcDbEntity
  8
BLACK
  6
CONTINUOUS
100
AcDbLine
 10
10.4606129133858268
 20
-7.6040421653543309
 30
0
 11
10.4324914173228347
 21
-7.6096664566929135
 31
0
  0
LINE
  5
219
330
1B
100
AcDbEntity
  8
BLACK
  6
CONTINUOUS
100
AcDbLine
 10
10.4802979133858258
 20
-7.5899814173228348
 30
0
 11
10.4943586614173228
 21
-7.6293514960629922
 31
0
  0
LINE
  5
21A
330
1B
100
AcDbEntity
  8
BLACK
  6
CONTINUOUS
100
AcDbLine
 10
10.4943586614173228
 20
-7.6293514960629922
 30
0
 11
10.5084194094488179
 21
-7.5899814173228348
 31
0
  0
LINE
  5
21B
330
1B
100
AcDbEntity
  8
BLACK
  6
CONTINUOUS
100
AcDbLine
 10
10.5309165748031486
 20
-7.6237272047244096
 30
0
 11
10.5337287401574802
 21
-7.6265393700787403
 31
0
  0
LINE
  5
21C
330
1B
100
AcDbEntity
  8
BLACK
  6
CONTINUOUS
100
AcDbLine
 10
10.5337287401574802
 20
-7.6265393700787403
 30
0
 11
10.5309165748031486
 21
-7.6293514960629922
 31
0
  0
LINE
  5
21D
330
1B
100
AcDbEntity
  8
BLACK
  6
CONTINUOUS
100
AcDbLine
 10
10.5309165748031486
 20
-7.6293514960629922
 30
0
 11
10.5281044488188975
 21
-7.6265393700787403
 31
0
  0
LINE
  5
21E
330
1B
100
AcDbEntity
  8
BLACK
  6
CONTINUOUS
100
AcDbLine
 10
10.5281044488188975
 20
-7.6265393700787403
 30
0
 11
10.5309165748031486
 21
-7.6237272047244096
 31
0
  0
LINE
  5
21F
330
1B
100
AcDbEntity
  8
BLACK
  6
CONTINUOUS
100
AcDbLine
 10
10.5309165748031486
 20
-7.6237272047244096
 30
0
 11
10.5309165748031486
 21
-7.6293514960629922
 31
0
  0
LINE
  5
220
330
1B
100
AcDbEntity
  8
BLACK
  6
CONTINUOUS
100
AcDbLine
 10
10.5309165748031486
 20
-7.5927935826771655
 30
0
 11
10.5337287401574802
 21
-7.5956057086614175
 31
0
  0
LINE
  5
221
330
1B
100
AcDbEntity
  8
BLACK
  6
CONTINUOUS
100
AcDbLine
 10
10.5337287401574802
 20
-7.5956057086614175
 30
0
 11
10.5309165748031486
 21
-7.5984178740157482
 31
0
  0
LINE
  5
222
330
1B
100
AcDbEntity
  8
BLACK
  6
CONTINUOUS
100
AcDbLine
 10
10.5309165748031486
 20
-7.5984178740157482
 30
0
 11
10.5281044488188975
 21
-7.5956057086614175
 31
0
  0
LINE
  5
223
330
1B
100
AcDbEntity
  8
BLACK
  6
CONTINUOUS
100
AcDbLine
 10
10.5281044488188975
 20
-7.5956057086614175
 30
0
 11
10.5309165748031486
 21
-7.5927935826771655
 31
0
  0
LINE
  5
224
330
1B
100
AcDbEntity
  8
BLACK
  6
CONTINUOUS
100
AcDbLine
 10
10.5309165748031486
 20
-7.5927935826771655
 30
0
 11
10.5309165748031486
 21
-7.5984178740157482
 31
0
  0
LINE
  5
225
330
1B
100
AcDbEntity
  8
BLACK
  6
CONTINUOUS
100
AcDbLine
 10
7.0230944094488184
 20
-7.6268464566929133
 30
0
 11
7.0315308661417317
 21
-7.6296585826771652
 31
0
  0
LINE
  5
226
330
1B
100
AcDbEntity
  8
BLACK
  6
CONTINUOUS
100
AcDbLine
 10
7.0315308661417317
 20
-7.6296585826771652
 30
0
 11
7.045591574803149
 21
-7.6296585826771652
 31
0
  0
LINE
  5
227
330
1B
100
AcDbEntity
  8
BLACK
  6
CONTINUOUS
100
AcDbLine
 10
7.045591574803149
 20
-7.6296585826771652
 30
0
 11
7.0512159055118104
 21
-7.6268464566929133
 31
0
  0
LINE
  5
228
330
1B
100
AcDbEntity
  8
BLACK
  6
CONTINUOUS
100
AcDbLine
 10
7.0512159055118104
 20
-7.6268464566929133
 30
0
 11
7.0540280314960624
 21
-7.6240342913385826
 31
0
  0
LINE
  5
229
330
1B
100
AcDbEntity
  8
BLACK
  6
CONTINUOUS
100
AcDbLine
 10
7.0540280314960624
 20
-7.6240342913385826
 30
0
 11
7.0568401968503931
 21
-7.6184099999999999
 31
0
  0
LINE
  5
22A
330
1B
100
AcDbEntity
  8
BLACK
  6
CONTINUOUS
100
AcDbLine
 10
7.0568401968503931
 20
-7.6184099999999999
 30
0
 11
7.0568401968503931
 21
-7.6127857086614172
 31
0
  0
LINE
  5
22B
330
1B
100
AcDbEntity
  8
BLACK
  6
CONTINUOUS
100
AcDbLine
 10
7.0568401968503931
 20
-7.6127857086614172
 30
0
 11
7.0540280314960624
 21
-7.6071614173228346
 31
0
  0
LINE
  5
22C
330
1B
100
AcDbEntity
  8
BLACK
  6
CONTINUOUS
100
AcDbLine
 10
7.0540280314960624
 20
-7.6071614173228346
 30
0
 11
7.0512159055118104
 21
-7.6043492519685039
 31
0
  0
LINE
  5
22D
330
1B
100
AcDbEntity
  8
BLACK
  6
CONTINUOUS
100
AcDbLine
 10
7.0512159055118104
 20
-7.6043492519685039
 30
0
 11
7.045591574803149
 21
-7.6015370866141732
 31
0
  0
LINE
  5
22E
330
1B
100
AcDbEntity
  8
BLACK
  6
CONTINUOUS
100
AcDbLine
 10
7.045591574803149
 20
-7.6015370866141732
 30
0
 11
7.0343429921259837
 21
-7.5987249606299212
 31
0
  0
LINE
  5
22F
330
1B
100
AcDbEntity
  8
BLACK
  6
CONTINUOUS
100
AcDbLine
 10
7.0343429921259837
 20
-7.5987249606299212
 30
0
 11
7.028718700787401
 21
-7.5959127952755905
 31
0
  0
LINE
  5
230
330
1B
100
AcDbEntity
  8
BLACK
  6
CONTINUOUS
100
AcDbLine
 10
7.028718700787401
 20
-7.5959127952755905
 30
0
 11
7.0259065354330703
 21
-7.5931006692913385
 31
0
  0
LINE
  5
231
330
1B
100
AcDbEntity
  8
BLACK
  6
CONTINUOUS
100
AcDbLine
 10
7.0259065354330703
 20
-7.5931006692913385
 30
0
 11
7.0230944094488184
 21
-7.5874763779527559
 31
0
  0
LINE
  5
232
330
1B
100
AcDbEntity
  8
BLACK
  6
CONTINUOUS
100
AcDbLine
 10
7.0230944094488184
 20
-7.5874763779527559
 30
0
 11
7.0230944094488184
 21
-7.5818520472440945
 31
0
  0
LINE
  5
233
330
1B
100
AcDbEntity
  8
BLACK
  6
CONTINUOUS
100
AcDbLine
 10
7.0230944094488184
 20
-7.5818520472440945
 30
0
 11
7.0259065354330703
 21
-7.5762277559055118
 31
0
  0
LINE
  5
234
330
1B
100
AcDbEntity
  8
BLACK
  6
CONTINUOUS
100
AcDbLine
 10
7.0259065354330703
 20
-7.5762277559055118
 30
0
 11
7.028718700787401
 21
-7.5734156299212598
 31
0
  0
LINE
  5
235
330
1B
100
AcDbEntity
  8
BLACK
  6
CONTINUOUS
100
AcDbLine
 10
7.028718700787401
 20
-7.5734156299212598
 30
0
 11
7.0343429921259837
 21
-7.5706034645669291
 31
0
  0
LINE
  5
236
330
1B
100
AcDbEntity
  8
BLACK
  6
CONTINUOUS
100
AcDbLine
 10
7.0343429921259837
 20
-7.5706034645669291
 30
0
 11
7.0484037401574797
 21
-7.5706034645669291
 31
0
  0
LINE
  5
237
330
1B
100
AcDbEntity
  8
BLACK
  6
CONTINUOUS
100
AcDbLine
 10
7.0484037401574797
 20
-7.5706034645669291
 30
0
 11
7.0568401968503931
 21
-7.5734156299212598
 31
0
  0
LINE
  5
238
330
1B
100
AcDbEntity
  8
BLACK
  6
CONTINUOUS
100
AcDbLine
 10
7.0821494881889766
 20
-7.6296585826771652
 30
0
 11
7.0821494881889766
 21
-7.5902885039370078
 31
0
  0
LINE
  5
239
330
1B
100
AcDbEntity
  8
BLACK
  6
CONTINUOUS
100
AcDbLine
 10
7.0821494881889766
 20
-7.5706034645669291
 30
0
 11
7.0793373622047246
 21
-7.5734156299212598
 31
0
  0
LINE
  5
23A
330
1B
100
AcDbEntity
  8
BLACK
  6
CONTINUOUS
100
AcDbLine
 10
7.0793373622047246
 20
-7.5734156299212598
 30
0
 11
7.0821494881889766
 21
-7.5762277559055118
 31
0
  0
LINE
  5
23B
330
1B
100
AcDbEntity
  8
BLACK
  6
CONTINUOUS
100
AcDbLine
 10
7.0821494881889766
 20
-7.5762277559055118
 30
0
 11
7.0849616535433073
 21
-7.5734156299212598
 31
0
  0
LINE
  5
23C
330
1B
100
AcDbEntity
  8
BLACK
  6
CONTINUOUS
100
AcDbLine
 10
7.0849616535433073
 20
-7.5734156299212598
 30
0
 11
7.0821494881889766
 21
-7.5706034645669291
 31
0
  0
LINE
  5
23D
330
1B
100
AcDbEntity
  8
BLACK
  6
CONTINUOUS
100
AcDbLine
 10
7.0821494881889766
 20
-7.5706034645669291
 30
0
 11
7.0821494881889766
 21
-7.5762277559055118
 31
0
  0
LINE
  5
23E
330
1B
100
AcDbEntity
  8
BLACK
  6
CONTINUOUS
100
AcDbLine
 10
7.104646692913386
 20
-7.5902885039370078
 30
0
 11
7.1355803543307088
 21
-7.5902885039370078
 31
0
  0
LINE
  5
23F
330
1B
100
AcDbEntity
  8
BLACK
  6
CONTINUOUS
100
AcDbLine
 10
7.1355803543307088
 20
-7.5902885039370078
 30
0
 11
7.104646692913386
 21
-7.6296585826771652
 31
0
  0
LINE
  5
240
330
1B
100
AcDbEntity
  8
BLACK
  6
CONTINUOUS
100
AcDbLine
 10
7.104646692913386
 20
-7.6296585826771652
 30
0
 11
7.1355803543307088
 21
-7.6296585826771652
 31
0
  0
LINE
  5
241
330
1B
100
AcDbEntity
  8
BLACK
  6
CONTINUOUS
100
AcDbLine
 10
7.1805747244094489
 20
-7.6268464566929133
 30
0
 11
7.1749504330708662
 21
-7.6296585826771652
 31
0
  0
LINE
  5
242
330
1B
100
AcDbEntity
  8
BLACK
  6
CONTINUOUS
100
AcDbLine
 10
7.1749504330708662
 20
-7.6296585826771652
 30
0
 11
7.1637018503937009
 21
-7.6296585826771652
 31
0
  0
LINE
  5
243
330
1B
100
AcDbEntity
  8
BLACK
  6
CONTINUOUS
100
AcDbLine
 10
7.1637018503937009
 20
-7.6296585826771652
 30
0
 11
7.1580775196850395
 21
-7.6268464566929133
 31
0
  0
LINE
  5
244
330
1B
100
AcDbEntity
  8
BLACK
  6
CONTINUOUS
100
AcDbLine
 10
7.1580775196850395
 20
-7.6268464566929133
 30
0
 11
7.1552653937007875
 21
-7.6212221259842519
 31
0
  0
LINE
  5
245
330
1B
100
AcDbEntity
  8
BLACK
  6
CONTINUOUS
100
AcDbLine
 10
7.1552653937007875
 20
-7.6212221259842519
 30
0
 11
7.1552653937007875
 21
-7.5987249606299212
 31
0
  0
LINE
  5
246
330
1B
100
AcDbEntity
  8
BLACK
  6
CONTINUOUS
100
AcDbLine
 10
7.1552653937007875
 20
-7.5987249606299212
 30
0
 11
7.1580775196850395
 21
-7.5931006692913385
 31
0
  0
LINE
  5
247
330
1B
100
AcDbEntity
  8
BLACK
  6
CONTINUOUS
100
AcDbLine
 10
7.1580775196850395
 20
-7.5931006692913385
 30
0
 11
7.1637018503937009
 21
-7.5902885039370078
 31
0
  0
LINE
  5
248
330
1B
100
AcDbEntity
  8
BLACK
  6
CONTINUOUS
100
AcDbLine
 10
7.1637018503937009
 20
-7.5902885039370078
 30
0
 11
7.1749504330708662
 21
-7.5902885039370078
 31
0
  0
LINE
  5
249
330
1B
100
AcDbEntity
  8
BLACK
  6
CONTINUOUS
100
AcDbLine
 10
7.1749504330708662
 20
-7.5902885039370078
 30
0
 11
7.1805747244094489
 21
-7.5931006692913385
 31
0
  0
LINE
  5
24A
330
1B
100
AcDbEntity
  8
BLACK
  6
CONTINUOUS
100
AcDbLine
 10
7.1805747244094489
 20
-7.5931006692913385
 30
0
 11
7.1833868897637796
 21
-7.5987249606299212
 31
0
  0
LINE
  5
24B
330
1B
100
AcDbEntity
  8
BLACK
  6
CONTINUOUS
100
AcDbLine
 10
7.1833868897637796
 20
-7.5987249606299212
 30
0
 11
7.1833868897637796
 21
-7.6043492519685039
 31
0
  0
LINE
  5
24C
330
1B
100
AcDbEntity
  8
BLACK
  6
CONTINUOUS
100
AcDbLine
 10
7.1833868897637796
 20
-7.6043492519685039
 30
0
 11
7.1552653937007875
 21
-7.6099735433070865
 31
0
  0
LINE
  5
24D
330
1B
100
AcDbEntity
  8
BLACK
  6
CONTINUOUS
100
AcDbLine
 10
7.2086961811023622
 20
-7.6240342913385826
 30
0
 11
7.2115083464566929
 21
-7.6268464566929133
 31
0
  0
LINE
  5
24E
330
1B
100
AcDbEntity
  8
BLACK
  6
CONTINUOUS
100
AcDbLine
 10
7.2115083464566929
 20
-7.6268464566929133
 30
0
 11
7.2086961811023622
 21
-7.6296585826771652
 31
0
  0
LINE
  5
24F
330
1B
100
AcDbEntity
  8
BLACK
  6
CONTINUOUS
100
AcDbLine
 10
7.2086961811023622
 20
-7.6296585826771652
 30
0
 11
7.2058840551181103
 21
-7.6268464566929133
 31
0
  0
LINE
  5
250
330
1B
100
AcDbEntity
  8
BLACK
  6
CONTINUOUS
100
AcDbLine
 10
7.2058840551181103
 20
-7.6268464566929133
 30
0
 11
7.2086961811023622
 21
-7.6240342913385826
 31
0
  0
LINE
  5
251
330
1B
100
AcDbEntity
  8
BLACK
  6
CONTINUOUS
100
AcDbLine
 10
7.2086961811023622
 20
-7.6240342913385826
 30
0
 11
7.2086961811023622
 21
-7.6296585826771652
 31
0
  0
LINE
  5
252
330
1B
100
AcDbEntity
  8
BLACK
  6
CONTINUOUS
100
AcDbLine
 10
7.2086961811023622
 20
-7.5931006692913385
 30
0
 11
7.2115083464566929
 21
-7.5959127952755905
 31
0
  0
LINE
  5
253
330
1B
100
AcDbEntity
  8
BLACK
  6
CONTINUOUS
100
AcDbLine
 10
7.2115083464566929
 20
-7.5959127952755905
 30
0
 11
7.2086961811023622
 21
-7.5987249606299212
 31
0
  0
LINE
  5
254
330
1B
100
AcDbEntity
  8
BLACK
  6
CONTINUOUS
100
AcDbLine
 10
7.2086961811023622
 20
-7.5987249606299212
 30
0
 11
7.2058840551181103
 21
-7.5959127952755905
 31
0
  0
LINE
  5
255
330
1B
100
AcDbEntity
  8
BLACK
  6
CONTINUOUS
100
AcDbLine
 10
7.2058840551181103
 20
-7.5959127952755905
 30
0
 11
7.2086961811023622
 21
-7.5931006692913385
 31
0
  0
LINE
  5
256
330
1B
100
AcDbEntity
  8
BLACK
  6
CONTINUOUS
100
AcDbLine
 10
7.2086961811023622
 20
-7.5931006692913385
 30
0
 11
7.2086961811023622
 21
-7.5987249606299212
 31
0
  0
LINE
  5
257
330
1B
100
AcDbEntity
  8
BLACK
  6
CONTINUOUS
100
AcDbLine
 10
7.2789999212598424
 20
-7.6127857086614172
 30
0
 11
7.3071214173228345
 21
-7.6127857086614172
 31
0
  0
LINE
  5
258
330
1B
100
AcDbEntity
  8
BLACK
  6
CONTINUOUS
100
AcDbLine
 10
7.2733756299212597
 20
-7.6296585826771652
 30
0
 11
7.2930606692913384
 21
-7.5706034645669291
 31
0
  0
LINE
  5
259
330
1B
100
AcDbEntity
  8
BLACK
  6
CONTINUOUS
100
AcDbLine
 10
7.2930606692913384
 20
-7.5706034645669291
 30
0
 11
7.3127457086614172
 21
-7.6296585826771652
 31
0
  0
LINE
  5
25A
330
1B
100
AcDbEntity
  8
BLACK
  6
CONTINUOUS
100
AcDbLine
 10
7.3577400787401572
 20
-7.5902885039370078
 30
0
 11
7.3577400787401572
 21
-7.6296585826771652
 31
0
  0
LINE
  5
25B
330
1B
100
AcDbEntity
  8
BLACK
  6
CONTINUOUS
100
AcDbLine
 10
7.3436793307086612
 20
-7.5677913385826772
 30
0
 11
7.3296185826771652
 21
-7.6099735433070865
 31
0
  0
LINE
  5
25C
330
1B
100
AcDbEntity
  8
BLACK
  6
CONTINUOUS
100
AcDbLine
 10
7.3296185826771652
 20
-7.6099735433070865
 30
0
 11
7.3661764960629919
 21
-7.6099735433070865
 31
0
  0
LINE
  5
25D
330
1B
100
AcDbEntity
  8
BLACK
  6
CONTINUOUS
100
AcDbLine
 10
10.3723632283464564
 20
-7.739894803149606
 30
0
 11
10.3723632283464564
 21
-7.6808396850393699
 31
0
  0
LINE
  5
25E
330
1B
100
AcDbEntity
  8
BLACK
  6
CONTINUOUS
100
AcDbLine
 10
10.4257940944881895
 20
-7.739894803149606
 30
0
 11
10.4257940944881895
 21
-7.6808396850393699
 31
0
  0
LINE
  5
25F
330
1B
100
AcDbEntity
  8
BLACK
  6
CONTINUOUS
100
AcDbLine
 10
10.4257940944881895
 20
-7.737082677165354
 30
0
 11
10.4201697637795281
 21
-7.739894803149606
 31
0
  0
LINE
  5
260
330
1B
100
AcDbEntity
  8
BLACK
  6
CONTINUOUS
100
AcDbLine
 10
10.4201697637795281
 20
-7.739894803149606
 30
0
 11
10.4089211811023628
 21
-7.739894803149606
 31
0
  0
LINE
  5
261
330
1B
100
AcDbEntity
  8
BLACK
  6
CONTINUOUS
100
AcDbLine
 10
10.4089211811023628
 20
-7.739894803149606
 30
0
 11
10.4032968897637801
 21
-7.737082677165354
 31
0
  0
LINE
  5
262
330
1B
100
AcDbEntity
  8
BLACK
  6
CONTINUOUS
100
AcDbLine
 10
10.4032968897637801
 20
-7.737082677165354
 30
0
 11
10.4004847244094485
 21
-7.7342705118110233
 31
0
  0
LINE
  5
263
330
1B
100
AcDbEntity
  8
BLACK
  6
CONTINUOUS
100
AcDbLine
 10
10.4004847244094485
 20
-7.7342705118110233
 30
0
 11
10.3976725984251974
 21
-7.7286462204724407
 31
0
  0
LINE
  5
264
330
1B
100
AcDbEntity
  8
BLACK
  6
CONTINUOUS
100
AcDbLine
 10
10.3976725984251974
 20
-7.7286462204724407
 30
0
 11
10.3976725984251974
 21
-7.7117733070866139
 31
0
  0
LINE
  5
265
330
1B
100
AcDbEntity
  8
BLACK
  6
CONTINUOUS
100
AcDbLine
 10
10.3976725984251974
 20
-7.7117733070866139
 30
0
 11
10.4004847244094485
 21
-7.7061490157480312
 31
0
  0
LINE
  5
266
330
1B
100
AcDbEntity
  8
BLACK
  6
CONTINUOUS
100
AcDbLine
 10
10.4004847244094485
 20
-7.7061490157480312
 30
0
 11
10.4032968897637801
 21
-7.7033368897637793
 31
0
  0
LINE
  5
267
330
1B
100
AcDbEntity
  8
BLACK
  6
CONTINUOUS
100
AcDbLine
 10
10.4032968897637801
 20
-7.7033368897637793
 30
0
 11
10.4089211811023628
 21
-7.7005247244094486
 31
0
  0
LINE
  5
268
330
1B
100
AcDbEntity
  8
BLACK
  6
CONTINUOUS
100
AcDbLine
 10
10.4089211811023628
 20
-7.7005247244094486
 30
0
 11
10.4201697637795281
 21
-7.7005247244094486
 31
0
  0
LINE
  5
269
330
1B
100
AcDbEntity
  8
BLACK
  6
CONTINUOUS
100
AcDbLine
 10
10.4201697637795281
 20
-7.7005247244094486
 30
0
 11
10.4257940944881895
 21
-7.7033368897637793
 31
0
  0
LINE
  5
26A
330
1B
100
AcDbEntity
  8
BLACK
  6
CONTINUOUS
100
AcDbLine
 10
10.4539155511811028
 20
-7.7342705118110233
 30
0
 11
10.4567277165354326
 21
-7.737082677165354
 31
0
  0
LINE
  5
26B
330
1B
100
AcDbEntity
  8
BLACK
  6
CONTINUOUS
100
AcDbLine
 10
10.4567277165354326
 20
-7.737082677165354
 30
0
 11
10.4539155511811028
 21
-7.739894803149606
 31
0
  0
LINE
  5
26C
330
1B
100
AcDbEntity
  8
BLACK
  6
CONTINUOUS
100
AcDbLine
 10
10.4539155511811028
 20
-7.739894803149606
 30
0
 11
10.45110342519685
 21
-7.737082677165354
 31
0
  0
LINE
  5
26D
330
1B
100
AcDbEntity
  8
BLACK
  6
CONTINUOUS
100
AcDbLine
 10
10.45110342519685
 20
-7.737082677165354
 30
0
 11
10.4539155511811028
 21
-7.7342705118110233
 31
0
  0
LINE
  5
26E
330
1B
100
AcDbEntity
  8
BLACK
  6
CONTINUOUS
100
AcDbLine
 10
10.4539155511811028
 20
-7.7342705118110233
 30
0
 11
10.4539155511811028
 21
-7.739894803149606
 31
0
  0
LINE
  5
26F
330
1B
100
AcDbEntity
  8
BLACK
  6
CONTINUOUS
100
AcDbLine
 10
10.4539155511811028
 20
-7.7033368897637793
 30
0
 11
10.4567277165354326
 21
-7.7061490157480312
 31
0
  0
LINE
  5
270
330
1B
100
AcDbEntity
  8
BLACK
  6
CONTINUOUS
100
AcDbLine
 10
10.4567277165354326
 20
-7.7061490157480312
 30
0
 11
10.4539155511811028
 21
-7.7089611811023619
 31
0
  0
LINE
  5
271
330
1B
100
AcDbEntity
  8
BLACK
  6
CONTINUOUS
100
AcDbLine
 10
10.4539155511811028
 20
-7.7089611811023619
 30
0
 11
10.45110342519685
 21
-7.7061490157480312
 31
0
  0
LINE
  5
272
330
1B
100
AcDbEntity
  8
BLACK
  6
CONTINUOUS
100
AcDbLine
 10
10.45110342519685
 20
-7.7061490157480312
 30
0
 11
10.4539155511811028
 21
-7.7033368897637793
 31
0
  0
LINE
  5
273
330
1B
100
AcDbEntity
  8
BLACK
  6
CONTINUOUS
100
AcDbLine
 10
10.4539155511811028
 20
-7.7033368897637793
 30
0
 11
10.4539155511811028
 21
-7.7089611811023619
 31
0
  0
LINE
  5
274
330
1B
100
AcDbEntity
  8
BLACK
  6
CONTINUOUS
100
AcDbLine
 10
10.5242192913385821
 20
-7.6864639763779525
 30
0
 11
10.527031417322835
 21
-7.6836518503937006
 31
0
  0
LINE
  5
275
330
1B
100
AcDbEntity
  8
BLACK
  6
CONTINUOUS
100
AcDbLine
 10
10.527031417322835
 20
-7.6836518503937006
 30
0
 11
10.5326557480314964
 21
-7.6808396850393699
 31
0
  0
LINE
  5
276
330
1B
100
AcDbEntity
  8
BLACK
  6
CONTINUOUS
100
AcDbLine
 10
10.5326557480314964
 20
-7.6808396850393699
 30
0
 11
10.5467164566929128
 21
-7.6808396850393699
 31
0
  0
LINE
  5
277
330
1B
100
AcDbEntity
  8
BLACK
  6
CONTINUOUS
100
AcDbLine
 10
10.5467164566929128
 20
-7.6808396850393699
 30
0
 11
10.5523407874015742
 21
-7.6836518503937006
 31
0
  0
LINE
  5
278
330
1B
100
AcDbEntity
  8
BLACK
  6
CONTINUOUS
100
AcDbLine
 10
10.5523407874015742
 20
-7.6836518503937006
 30
0
 11
10.5551529133858271
 21
-7.6864639763779525
 31
0
  0
LINE
  5
279
330
1B
100
AcDbEntity
  8
BLACK
  6
CONTINUOUS
100
AcDbLine
 10
10.5551529133858271
 20
-7.6864639763779525
 30
0
 11
10.5579650787401569
 21
-7.6920882677165352
 31
0
  0
LINE
  5
27A
330
1B
100
AcDbEntity
  8
BLACK
  6
CONTINUOUS
100
AcDbLine
 10
10.5579650787401569
 20
-7.6920882677165352
 30
0
 11
10.5579650787401569
 21
-7.6977125984251966
 31
0
  0
LINE
  5
27B
330
1B
100
AcDbEntity
  8
BLACK
  6
CONTINUOUS
100
AcDbLine
 10
10.5579650787401569
 20
-7.6977125984251966
 30
0
 11
10.5551529133858271
 21
-7.7061490157480312
 31
0
  0
LINE
  5
27C
330
1B
100
AcDbEntity
  8
BLACK
  6
CONTINUOUS
100
AcDbLine
 10
10.5551529133858271
 20
-7.7061490157480312
 30
0
 11
10.5214071259842523
 21
-7.739894803149606
 31
0
  0
LINE
  5
27D
330
1B
100
AcDbEntity
  8
BLACK
  6
CONTINUOUS
100
AcDbLine
 10
10.5214071259842523
 20
-7.739894803149606
 30
0
 11
10.5579650787401569
 21
-7.739894803149606
 31
0
  0
LINE
  5
27E
330
1B
100
AcDbEntity
  8
BLACK
  6
CONTINUOUS
100
AcDbLine
 10
10.6254566141732276
 20
-7.6780275590551179
 30
0
 11
10.5748379527559049
 21
-7.753955551181102
 31
0
  0
LINE
  5
27F
330
1B
100
AcDbEntity
  8
BLACK
  6
CONTINUOUS
100
AcDbLine
 10
10.6423295275590544
 20
-7.6864639763779525
 30
0
 11
10.6451416535433072
 21
-7.6836518503937006
 31
0
  0
LINE
  5
280
330
1B
100
AcDbEntity
  8
BLACK
  6
CONTINUOUS
100
AcDbLine
 10
10.6451416535433072
 20
-7.6836518503937006
 30
0
 11
10.6507659842519686
 21
-7.6808396850393699
 31
0
  0
LINE
  5
281
330
1B
100
AcDbEntity
  8
BLACK
  6
CONTINUOUS
100
AcDbLine
 10
10.6507659842519686
 20
-7.6808396850393699
 30
0
 11
10.664826692913385
 21
-7.6808396850393699
 31
0
  0
LINE
  5
282
330
1B
100
AcDbEntity
  8
BLACK
  6
CONTINUOUS
100
AcDbLine
 10
10.664826692913385
 20
-7.6808396850393699
 30
0
 11
10.6704510236220464
 21
-7.6836518503937006
 31
0
  0
LINE
  5
283
330
1B
100
AcDbEntity
  8
BLACK
  6
CONTINUOUS
100
AcDbLine
 10
10.6704510236220464
 20
-7.6836518503937006
 30
0
 11
10.6732631496062993
 21
-7.6864639763779525
 31
0
  0
LINE
  5
284
330
1B
100
AcDbEntity
  8
BLACK
  6
CONTINUOUS
100
AcDbLine
 10
10.6732631496062993
 20
-7.6864639763779525
 30
0
 11
10.6760753149606291
 21
-7.6920882677165352
 31
0
  0
LINE
  5
285
330
1B
100
AcDbEntity
  8
BLACK
  6
CONTINUOUS
100
AcDbLine
 10
10.6760753149606291
 20
-7.6920882677165352
 30
0
 11
10.6760753149606291
 21
-7.6977125984251966
 31
0
  0
LINE
  5
286
330
1B
100
AcDbEntity
  8
BLACK
  6
CONTINUOUS
100
AcDbLine
 10
10.6760753149606291
 20
-7.6977125984251966
 30
0
 11
10.6732631496062993
 21
-7.7061490157480312
 31
0
  0
LINE
  5
287
330
1B
100
AcDbEntity
  8
BLACK
  6
CONTINUOUS
100
AcDbLine
 10
10.6732631496062993
 20
-7.7061490157480312
 30
0
 11
10.6395173622047245
 21
-7.739894803149606
 31
0
  0
LINE
  5
288
330
1B
100
AcDbEntity
  8
BLACK
  6
CONTINUOUS
100
AcDbLine
 10
10.6395173622047245
 20
-7.739894803149606
 30
0
 11
10.6760753149606291
 21
-7.739894803149606
 31
0
  0
LINE
  5
289
330
1B
100
AcDbEntity
  8
BLACK
  6
CONTINUOUS
100
AcDbLine
 10
6.9685905511811024
 20
-7.3821732283464563
 30
0
 11
11.2205590551181107
 21
-7.3821732283464563
 31
0
  0
LINE
  5
28A
330
1B
100
AcDbEntity
  8
BLACK
  6
CONTINUOUS
100
AcDbLine
 10
7.035194015748031
 20
-7.4099070078740157
 30
0
 11
7.0801883858267711
 21
-7.4099070078740157
 31
0
  0
LINE
  5
28B
330
1B
100
AcDbEntity
  8
BLACK
  6
CONTINUOUS
100
AcDbLine
 10
7.0478487007874016
 20
-7.4886471653543305
 30
0
 11
7.0576912204724405
 21
-7.4099070078740157
 31
0
  0
LINE
  5
28C
330
1B
100
AcDbEntity
  8
BLACK
  6
CONTINUOUS
100
AcDbLine
 10
7.0965925984251967
 20
-7.4886471653543305
 30
0
 11
7.1031542913385826
 21
-7.4361537007874015
 31
0
  0
LINE
  5
28D
330
1B
100
AcDbEntity
  8
BLACK
  6
CONTINUOUS
100
AcDbLine
 10
7.1064351181102356
 20
-7.4099070078740157
 30
0
 11
7.1022168897637794
 21
-7.4136565354330708
 31
0
  0
LINE
  5
28E
330
1B
100
AcDbEntity
  8
BLACK
  6
CONTINUOUS
100
AcDbLine
 10
7.1022168897637794
 20
-7.4136565354330708
 30
0
 11
7.1054977559055112
 21
-7.4174060629921259
 31
0
  0
LINE
  5
28F
330
1B
100
AcDbEntity
  8
BLACK
  6
CONTINUOUS
100
AcDbLine
 10
7.1054977559055112
 20
-7.4174060629921259
 30
0
 11
7.1097159842519684
 21
-7.4136565354330708
 31
0
  0
LINE
  5
290
330
1B
100
AcDbEntity
  8
BLACK
  6
CONTINUOUS
100
AcDbLine
 10
7.1097159842519684
 20
-7.4136565354330708
 30
0
 11
7.1064351181102356
 21
-7.4099070078740157
 31
0
  0
LINE
  5
291
330
1B
100
AcDbEntity
  8
BLACK
  6
CONTINUOUS
100
AcDbLine
 10
7.1064351181102356
 20
-7.4099070078740157
 30
0
 11
7.1054977559055112
 21
-7.4174060629921259
 31
0
  0
LINE
  5
292
330
1B
100
AcDbEntity
  8
BLACK
  6
CONTINUOUS
100
AcDbLine
 10
7.1294010236220471
 20
-7.4361537007874015
 30
0
 11
7.159397244094488
 21
-7.4361537007874015
 31
0
  0
LINE
  5
293
330
1B
100
AcDbEntity
  8
BLACK
  6
CONTINUOUS
100
AcDbLine
 10
7.1439304330708664
 20
-7.4099070078740157
 30
0
 11
7.1354940157480318
 21
-7.4773985433070864
 31
0
  0
LINE
  5
294
330
1B
100
AcDbEntity
  8
BLACK
  6
CONTINUOUS
100
AcDbLine
 10
7.1354940157480318
 20
-7.4773985433070864
 30
0
 11
7.1383061417322837
 21
-7.4848976377952754
 31
0
  0
LINE
  5
295
330
1B
100
AcDbEntity
  8
BLACK
  6
CONTINUOUS
100
AcDbLine
 10
7.1383061417322837
 20
-7.4848976377952754
 30
0
 11
7.1453365354330707
 21
-7.4886471653543305
 31
0
  0
LINE
  5
296
330
1B
100
AcDbEntity
  8
BLACK
  6
CONTINUOUS
100
AcDbLine
 10
7.1453365354330707
 20
-7.4886471653543305
 30
0
 11
7.1528355905511809
 21
-7.4886471653543305
 31
0
  0
LINE
  5
297
330
1B
100
AcDbEntity
  8
BLACK
  6
CONTINUOUS
100
AcDbLine
 10
7.1903309055118108
 20
-7.4886471653543305
 30
0
 11
7.1833005118110238
 21
-7.4848976377952754
 31
0
  0
LINE
  5
298
330
1B
100
AcDbEntity
  8
BLACK
  6
CONTINUOUS
100
AcDbLine
 10
7.1833005118110238
 20
-7.4848976377952754
 30
0
 11
7.1804883858267718
 21
-7.4773985433070864
 31
0
  0
LINE
  5
299
330
1B
100
AcDbEntity
  8
BLACK
  6
CONTINUOUS
100
AcDbLine
 10
7.1804883858267718
 20
-7.4773985433070864
 30
0
 11
7.1889248031496065
 21
-7.4099070078740157
 31
0
  0
LINE
  5
29A
330
1B
100
AcDbEntity
  8
BLACK
  6
CONTINUOUS
100
AcDbLine
 10
7.2507920866141733
 20
-7.4848976377952754
 30
0
 11
7.2428243307086611
 21
-7.4886471653543305
 31
0
  0
LINE
  5
29B
330
1B
100
AcDbEntity
  8
BLACK
  6
CONTINUOUS
100
AcDbLine
 10
7.2428243307086611
 20
-7.4886471653543305
 30
0
 11
7.2278261811023619
 21
-7.4886471653543305
 31
0
  0
LINE
  5
29C
330
1B
100
AcDbEntity
  8
BLACK
  6
CONTINUOUS
100
AcDbLine
 10
7.2278261811023619
 20
-7.4886471653543305
 30
0
 11
7.2207958267716537
 21
-7.4848976377952754
 31
0
  0
LINE
  5
29D
330
1B
100
AcDbEntity
  8
BLACK
  6
CONTINUOUS
100
AcDbLine
 10
7.2207958267716537
 20
-7.4848976377952754
 30
0
 11
7.2179836614173229
 21
-7.4773985433070864
 31
0
  0
LINE
  5
29E
330
1B
100
AcDbEntity
  8
BLACK
  6
CONTINUOUS
100
AcDbLine
 10
7.2179836614173229
 20
-7.4773985433070864
 30
0
 11
7.2217332283464568
 21
-7.4474023228346455
 31
0
  0
LINE
  5
29F
330
1B
100
AcDbEntity
  8
BLACK
  6
CONTINUOUS
100
AcDbLine
 10
7.2217332283464568
 20
-7.4474023228346455
 30
0
 11
7.2264201181102363
 21
-7.4399032283464566
 31
0
  0
LINE
  5
2A0
330
1B
100
AcDbEntity
  8
BLACK
  6
CONTINUOUS
100
AcDbLine
 10
7.2264201181102363
 20
-7.4399032283464566
 30
0
 11
7.2343878740157477
 21
-7.4361537007874015
 31
0
  0
LINE
  5
2A1
330
1B
100
AcDbEntity
  8
BLACK
  6
CONTINUOUS
100
AcDbLine
 10
7.2343878740157477
 20
-7.4361537007874015
 30
0
 11
7.2493859842519681
 21
-7.4361537007874015
 31
0
  0
LINE
  5
2A2
330
1B
100
AcDbEntity
  8
BLACK
  6
CONTINUOUS
100
AcDbLine
 10
7.2493859842519681
 20
-7.4361537007874015
 30
0
 11
7.256416377952756
 21
-7.4399032283464566
 31
0
  0
LINE
  5
2A3
330
1B
100
AcDbEntity
  8
BLACK
  6
CONTINUOUS
100
AcDbLine
 10
7.256416377952756
 20
-7.4399032283464566
 30
0
 11
7.2592285039370079
 21
-7.4474023228346455
 31
0
  0
LINE
  5
2A4
330
1B
100
AcDbEntity
  8
BLACK
  6
CONTINUOUS
100
AcDbLine
 10
7.2592285039370079
 20
-7.4474023228346455
 30
0
 11
7.2582911417322835
 21
-7.4549013779527558
 31
0
  0
LINE
  5
2A5
330
1B
100
AcDbEntity
  8
BLACK
  6
CONTINUOUS
100
AcDbLine
 10
7.2582911417322835
 20
-7.4549013779527558
 30
0
 11
7.2198584251968505
 21
-7.462400433070866
 31
0
  0
LINE
  5
2A6
330
1B
100
AcDbEntity
  8
BLACK
  6
CONTINUOUS
100
AcDbLine
 10
7.2887561023622043
 20
-7.4811480708661415
 30
0
 11
7.2920369291338583
 21
-7.4848976377952754
 31
0
  0
LINE
  5
2A7
330
1B
100
AcDbEntity
  8
BLACK
  6
CONTINUOUS
100
AcDbLine
 10
7.2920369291338583
 20
-7.4848976377952754
 30
0
 11
7.2878187007874011
 21
-7.4886471653543305
 31
0
  0
LINE
  5
2A8
330
1B
100
AcDbEntity
  8
BLACK
  6
CONTINUOUS
100
AcDbLine
 10
7.2878187007874011
 20
-7.4886471653543305
 30
0
 11
7.284537874015748
 21
-7.4848976377952754
 31
0
  0
LINE
  5
2A9
330
1B
100
AcDbEntity
  8
BLACK
  6
CONTINUOUS
100
AcDbLine
 10
7.284537874015748
 20
-7.4848976377952754
 30
0
 11
7.2887561023622043
 21
-7.4811480708661415
 31
0
  0
LINE
  5
2AA
330
1B
100
AcDbEntity
  8
BLACK
  6
CONTINUOUS
100
AcDbLine
 10
7.2887561023622043
 20
-7.4811480708661415
 30
0
 11
7.2878187007874011
 21
-7.4886471653543305
 31
0
  0
LINE
  5
2AB
330
1B
100
AcDbEntity
  8
BLACK
  6
CONTINUOUS
100
AcDbLine
 10
7.2939116929133858
 20
-7.4399032283464566
 30
0
 11
7.2971925196850389
 21
-7.4436527559055117
 31
0
  0
LINE
  5
2AC
330
1B
100
AcDbEntity
  8
BLACK
  6
CONTINUOUS
100
AcDbLine
 10
7.2971925196850389
 20
-7.4436527559055117
 30
0
 11
7.2929743307086614
 21
-7.4474023228346455
 31
0
  0
LINE
  5
2AD
330
1B
100
AcDbEntity
  8
BLACK
  6
CONTINUOUS
100
AcDbLine
 10
7.2929743307086614
 20
-7.4474023228346455
 30
0
 11
7.2896934645669287
 21
-7.4436527559055117
 31
0
  0
LINE
  5
2AE
330
1B
100
AcDbEntity
  8
BLACK
  6
CONTINUOUS
100
AcDbLine
 10
7.2896934645669287
 20
-7.4436527559055117
 30
0
 11
7.2939116929133858
 21
-7.4399032283464566
 31
0
  0
LINE
  5
2AF
330
1B
100
AcDbEntity
  8
BLACK
  6
CONTINUOUS
100
AcDbLine
 10
7.2939116929133858
 20
-7.4399032283464566
 30
0
 11
7.2929743307086614
 21
-7.4474023228346455
 31
0
  0
LINE
  5
2B0
330
1B
100
AcDbEntity
  8
BLACK
  6
CONTINUOUS
100
AcDbLine
 10
7.045591574803149
 20
-7.3073863779527555
 30
0
 11
7.0259065354330703
 21
-7.3073863779527555
 31
0
  0
LINE
  5
2B1
330
1B
100
AcDbEntity
  8
BLACK
  6
CONTINUOUS
100
AcDbLine
 10
7.0259065354330703
 20
-7.3383199999999995
 30
0
 11
7.0259065354330703
 21
-7.2792648818897634
 31
0
  0
LINE
  5
2B2
330
1B
100
AcDbEntity
  8
BLACK
  6
CONTINUOUS
100
AcDbLine
 10
7.0259065354330703
 20
-7.2792648818897634
 30
0
 11
7.0540280314960624
 21
-7.2792648818897634
 31
0
  0
LINE
  5
2B3
330
1B
100
AcDbEntity
  8
BLACK
  6
CONTINUOUS
100
AcDbLine
 10
7.0765251968503939
 20
-7.3383199999999995
 30
0
 11
7.0765251968503939
 21
-7.2989499212598421
 31
0
  0
LINE
  5
2B4
330
1B
100
AcDbEntity
  8
BLACK
  6
CONTINUOUS
100
AcDbLine
 10
7.0765251968503939
 20
-7.2792648818897634
 30
0
 11
7.073713070866142
 21
-7.2820770472440941
 31
0
  0
LINE
  5
2B5
330
1B
100
AcDbEntity
  8
BLACK
  6
CONTINUOUS
100
AcDbLine
 10
7.073713070866142
 20
-7.2820770472440941
 30
0
 11
7.0765251968503939
 21
-7.2848891732283461
 31
0
  0
LINE
  5
2B6
330
1B
100
AcDbEntity
  8
BLACK
  6
CONTINUOUS
100
AcDbLine
 10
7.0765251968503939
 20
-7.2848891732283461
 30
0
 11
7.0793373622047246
 21
-7.2820770472440941
 31
0
  0
LINE
  5
2B7
330
1B
100
AcDbEntity
  8
BLACK
  6
CONTINUOUS
100
AcDbLine
 10
7.0793373622047246
 20
-7.2820770472440941
 30
0
 11
7.0765251968503939
 21
-7.2792648818897634
 31
0
  0
LINE
  5
2B8
330
1B
100
AcDbEntity
  8
BLACK
  6
CONTINUOUS
100
AcDbLine
 10
7.0765251968503939
 20
-7.2792648818897634
 30
0
 11
7.0765251968503939
 21
-7.2848891732283461
 31
0
  0
LINE
  5
2B9
330
1B
100
AcDbEntity
  8
BLACK
  6
CONTINUOUS
100
AcDbLine
 10
7.1130831496062994
 20
-7.3383199999999995
 30
0
 11
7.1074588582677167
 21
-7.3355078740157476
 31
0
  0
LINE
  5
2BA
330
1B
100
AcDbEntity
  8
BLACK
  6
CONTINUOUS
100
AcDbLine
 10
7.1074588582677167
 20
-7.3355078740157476
 30
0
 11
7.104646692913386
 21
-7.3298835433070861
 31
0
  0
LINE
  5
2BB
330
1B
100
AcDbEntity
  8
BLACK
  6
CONTINUOUS
100
AcDbLine
 10
7.104646692913386
 20
-7.3298835433070861
 30
0
 11
7.104646692913386
 21
-7.2792648818897634
 31
0
  0
LINE
  5
2BC
330
1B
100
AcDbEntity
  8
BLACK
  6
CONTINUOUS
100
AcDbLine
 10
7.1580775196850395
 20
-7.3355078740157476
 30
0
 11
7.1524532283464568
 21
-7.3383199999999995
 31
0
  0
LINE
  5
2BD
330
1B
100
AcDbEntity
  8
BLACK
  6
CONTINUOUS
100
AcDbLine
 10
7.1524532283464568
 20
-7.3383199999999995
 30
0
 11
7.1412046456692915
 21
-7.3383199999999995
 31
0
  0
LINE
  5
2BE
330
1B
100
AcDbEntity
  8
BLACK
  6
CONTINUOUS
100
AcDbLine
 10
7.1412046456692915
 20
-7.3383199999999995
 30
0
 11
7.1355803149606301
 21
-7.3355078740157476
 31
0
  0
LINE
  5
2BF
330
1B
100
AcDbEntity
  8
BLACK
  6
CONTINUOUS
100
AcDbLine
 10
7.1355803149606301
 20
-7.3355078740157476
 30
0
 11
7.1327681889763781
 21
-7.3298835433070861
 31
0
  0
LINE
  5
2C0
330
1B
100
AcDbEntity
  8
BLACK
  6
CONTINUOUS
100
AcDbLine
 10
7.1327681889763781
 20
-7.3298835433070861
 30
0
 11
7.1327681889763781
 21
-7.3073863779527555
 31
0
  0
LINE
  5
2C1
330
1B
100
AcDbEntity
  8
BLACK
  6
CONTINUOUS
100
AcDbLine
 10
7.1327681889763781
 20
-7.3073863779527555
 30
0
 11
7.1355803149606301
 21
-7.3017620866141728
 31
0
  0
LINE
  5
2C2
330
1B
100
AcDbEntity
  8
BLACK
  6
CONTINUOUS
100
AcDbLine
 10
7.1355803149606301
 20
-7.3017620866141728
 30
0
 11
7.1412046456692915
 21
-7.2989499212598421
 31
0
  0
LINE
  5
2C3
330
1B
100
AcDbEntity
  8
BLACK
  6
CONTINUOUS
100
AcDbLine
 10
7.1412046456692915
 20
-7.2989499212598421
 30
0
 11
7.1524532283464568
 21
-7.2989499212598421
 31
0
  0
LINE
  5
2C4
330
1B
100
AcDbEntity
  8
BLACK
  6
CONTINUOUS
100
AcDbLine
 10
7.1524532283464568
 20
-7.2989499212598421
 30
0
 11
7.1580775196850395
 21
-7.3017620866141728
 31
0
  0
LINE
  5
2C5
330
1B
100
AcDbEntity
  8
BLACK
  6
CONTINUOUS
100
AcDbLine
 10
7.1580775196850395
 20
-7.3017620866141728
 30
0
 11
7.1608896850393702
 21
-7.3073863779527555
 31
0
  0
LINE
  5
2C6
330
1B
100
AcDbEntity
  8
BLACK
  6
CONTINUOUS
100
AcDbLine
 10
7.1608896850393702
 20
-7.3073863779527555
 30
0
 11
7.1608896850393702
 21
-7.3130106692913381
 31
0
  0
LINE
  5
2C7
330
1B
100
AcDbEntity
  8
BLACK
  6
CONTINUOUS
100
AcDbLine
 10
7.1608896850393702
 20
-7.3130106692913381
 30
0
 11
7.1327681889763781
 21
-7.3186349606299208
 31
0
  0
LINE
  5
2C8
330
1B
100
AcDbEntity
  8
BLACK
  6
CONTINUOUS
100
AcDbLine
 10
7.1861989763779528
 20
-7.3326957086614168
 30
0
 11
7.1890111417322835
 21
-7.3355078740157476
 31
0
  0
LINE
  5
2C9
330
1B
100
AcDbEntity
  8
BLACK
  6
CONTINUOUS
100
AcDbLine
 10
7.1890111417322835
 20
-7.3355078740157476
 30
0
 11
7.1861989763779528
 21
-7.3383199999999995
 31
0
  0
LINE
  5
2CA
330
1B
100
AcDbEntity
  8
BLACK
  6
CONTINUOUS
100
AcDbLine
 10
7.1861989763779528
 20
-7.3383199999999995
 30
0
 11
7.1833868503937008
 21
-7.3355078740157476
 31
0
  0
LINE
  5
2CB
330
1B
100
AcDbEntity
  8
BLACK
  6
CONTINUOUS
100
AcDbLine
 10
7.1833868503937008
 20
-7.3355078740157476
 30
0
 11
7.1861989763779528
 21
-7.3326957086614168
 31
0
  0
LINE
  5
2CC
330
1B
100
AcDbEntity
  8
BLACK
  6
CONTINUOUS
100
AcDbLine
 10
7.1861989763779528
 20
-7.3326957086614168
 30
0
 11
7.1861989763779528
 21
-7.3383199999999995
 31
0
  0
LINE
  5
2CD
330
1B
100
AcDbEntity
  8
BLACK
  6
CONTINUOUS
100
AcDbLine
 10
7.1861989763779528
 20
-7.3017620866141728
 30
0
 11
7.1890111417322835
 21
-7.3045742125984248
 31
0
  0
LINE
  5
2CE
330
1B
100
AcDbEntity
  8
BLACK
  6
CONTINUOUS
100
AcDbLine
 10
7.1890111417322835
 20
-7.3045742125984248
 30
0
 11
7.1861989763779528
 21
-7.3073863779527555
 31
0
  0
LINE
  5
2CF
330
1B
100
AcDbEntity
  8
BLACK
  6
CONTINUOUS
100
AcDbLine
 10
7.1861989763779528
 20
-7.3073863779527555
 30
0
 11
7.1833868503937008
 21
-7.3045742125984248
 31
0
  0
LINE
  5
2D0
330
1B
100
AcDbEntity
  8
BLACK
  6
CONTINUOUS
100
AcDbLine
 10
7.1833868503937008
 20
-7.3045742125984248
 30
0
 11
7.1861989763779528
 21
-7.3017620866141728
 31
0
  0
LINE
  5
2D1
330
1B
100
AcDbEntity
  8
BLACK
  6
CONTINUOUS
100
AcDbLine
 10
7.1861989763779528
 20
-7.3017620866141728
 30
0
 11
7.1861989763779528
 21
-7.3073863779527555
 31
0
  0
LINE
  5
2D2
330
1B
100
AcDbEntity
  8
BLACK
  6
CONTINUOUS
100
AcDbLine
 10
7.259314842519685
 20
-7.3383199999999995
 30
0
 11
7.259314842519685
 21
-7.2792648818897634
 31
0
  0
LINE
  5
2D3
330
1B
100
AcDbEntity
  8
BLACK
  6
CONTINUOUS
100
AcDbLine
 10
7.259314842519685
 20
-7.2792648818897634
 30
0
 11
7.273375590551181
 21
-7.2792648818897634
 31
0
  0
LINE
  5
2D4
330
1B
100
AcDbEntity
  8
BLACK
  6
CONTINUOUS
100
AcDbLine
 10
7.273375590551181
 20
-7.2792648818897634
 30
0
 11
7.2818120472440944
 21
-7.2820770472440941
 31
0
  0
LINE
  5
2D5
330
1B
100
AcDbEntity
  8
BLACK
  6
CONTINUOUS
100
AcDbLine
 10
7.2818120472440944
 20
-7.2820770472440941
 30
0
 11
7.287436338582677
 21
-7.2877013385826768
 31
0
  0
LINE
  5
2D6
330
1B
100
AcDbEntity
  8
BLACK
  6
CONTINUOUS
100
AcDbLine
 10
7.287436338582677
 20
-7.2877013385826768
 30
0
 11
7.2902485039370077
 21
-7.2933256299212594
 31
0
  0
LINE
  5
2D7
330
1B
100
AcDbEntity
  8
BLACK
  6
CONTINUOUS
100
AcDbLine
 10
7.2902485039370077
 20
-7.2933256299212594
 30
0
 11
7.2930606299212597
 21
-7.3045742125984248
 31
0
  0
LINE
  5
2D8
330
1B
100
AcDbEntity
  8
BLACK
  6
CONTINUOUS
100
AcDbLine
 10
7.2930606299212597
 20
-7.3045742125984248
 30
0
 11
7.2930606299212597
 21
-7.3130106692913381
 31
0
  0
LINE
  5
2D9
330
1B
100
AcDbEntity
  8
BLACK
  6
CONTINUOUS
100
AcDbLine
 10
7.2930606299212597
 20
-7.3130106692913381
 30
0
 11
7.2902485039370077
 21
-7.3242592519685035
 31
0
  0
LINE
  5
2DA
330
1B
100
AcDbEntity
  8
BLACK
  6
CONTINUOUS
100
AcDbLine
 10
7.2902485039370077
 20
-7.3242592519685035
 30
0
 11
7.287436338582677
 21
-7.3298835433070861
 31
0
  0
LINE
  5
2DB
330
1B
100
AcDbEntity
  8
BLACK
  6
CONTINUOUS
100
AcDbLine
 10
7.287436338582677
 20
-7.3298835433070861
 30
0
 11
7.2818120472440944
 21
-7.3355078740157476
 31
0
  0
LINE
  5
2DC
330
1B
100
AcDbEntity
  8
BLACK
  6
CONTINUOUS
100
AcDbLine
 10
7.2818120472440944
 20
-7.3355078740157476
 30
0
 11
7.273375590551181
 21
-7.3383199999999995
 31
0
  0
LINE
  5
2DD
330
1B
100
AcDbEntity
  8
BLACK
  6
CONTINUOUS
100
AcDbLine
 10
7.273375590551181
 20
-7.3383199999999995
 30
0
 11
7.259314842519685
 21
-7.3383199999999995
 31
0
  0
LINE
  5
2DE
330
1B
100
AcDbEntity
  8
BLACK
  6
CONTINUOUS
100
AcDbLine
 10
7.3155578346456691
 20
-7.3214471259842515
 30
0
 11
7.3436793307086612
 21
-7.3214471259842515
 31
0
  0
LINE
  5
2DF
330
1B
100
AcDbEntity
  8
BLACK
  6
CONTINUOUS
100
AcDbLine
 10
7.3099335433070864
 20
-7.3383199999999995
 30
0
 11
7.3296185826771652
 21
-7.2792648818897634
 31
0
  0
LINE
  5
2E0
330
1B
100
AcDbEntity
  8
BLACK
  6
CONTINUOUS
100
AcDbLine
 10
7.3296185826771652
 20
-7.2792648818897634
 30
0
 11
7.3493036220472439
 21
-7.3383199999999995
 31
0
  0
LINE
  5
2E1
330
1B
100
AcDbEntity
  8
BLACK
  6
CONTINUOUS
100
AcDbLine
 10
7.4083587007874012
 20
-7.3439442913385822
 30
0
 11
7.4027344094488186
 21
-7.3411321653543302
 31
0
  0
LINE
  5
2E2
330
1B
100
AcDbEntity
  8
BLACK
  6
CONTINUOUS
100
AcDbLine
 10
7.4027344094488186
 20
-7.3411321653543302
 30
0
 11
7.3971101181102359
 21
-7.3355078740157476
 31
0
  0
LINE
  5
2E3
330
1B
100
AcDbEntity
  8
BLACK
  6
CONTINUOUS
100
AcDbLine
 10
7.3971101181102359
 20
-7.3355078740157476
 30
0
 11
7.3886736614173225
 21
-7.3270714173228342
 31
0
  0
LINE
  5
2E4
330
1B
100
AcDbEntity
  8
BLACK
  6
CONTINUOUS
100
AcDbLine
 10
7.3886736614173225
 20
-7.3270714173228342
 30
0
 11
7.3830493700787398
 21
-7.3242592519685035
 31
0
  0
LINE
  5
2E5
330
1B
100
AcDbEntity
  8
BLACK
  6
CONTINUOUS
100
AcDbLine
 10
7.3830493700787398
 20
-7.3242592519685035
 30
0
 11
7.3774250787401572
 21
-7.3242592519685035
 31
0
  0
LINE
  5
2E6
330
1B
100
AcDbEntity
  8
BLACK
  6
CONTINUOUS
100
AcDbLine
 10
7.3802372440944879
 20
-7.3383199999999995
 30
0
 11
7.3746129527559052
 21
-7.3355078740157476
 31
0
  0
LINE
  5
2E7
330
1B
100
AcDbEntity
  8
BLACK
  6
CONTINUOUS
100
AcDbLine
 10
7.3746129527559052
 20
-7.3355078740157476
 30
0
 11
7.3689886220472438
 21
-7.3298835433070861
 31
0
  0
LINE
  5
2E8
330
1B
100
AcDbEntity
  8
BLACK
  6
CONTINUOUS
100
AcDbLine
 10
7.3689886220472438
 20
-7.3298835433070861
 30
0
 11
7.3661764960629919
 21
-7.3186349606299208
 31
0
  0
LINE
  5
2E9
330
1B
100
AcDbEntity
  8
BLACK
  6
CONTINUOUS
100
AcDbLine
 10
7.3661764960629919
 20
-7.3186349606299208
 30
0
 11
7.3661764960629919
 21
-7.2989499212598421
 31
0
  0
LINE
  5
2EA
330
1B
100
AcDbEntity
  8
BLACK
  6
CONTINUOUS
100
AcDbLine
 10
7.3661764960629919
 20
-7.2989499212598421
 30
0
 11
7.3689886220472438
 21
-7.2877013385826768
 31
0
  0
LINE
  5
2EB
330
1B
100
AcDbEntity
  8
BLACK
  6
CONTINUOUS
100
AcDbLine
 10
7.3689886220472438
 20
-7.2877013385826768
 30
0
 11
7.3746129527559052
 21
-7.2820770472440941
 31
0
  0
LINE
  5
2EC
330
1B
100
AcDbEntity
  8
BLACK
  6
CONTINUOUS
100
AcDbLine
 10
7.3746129527559052
 20
-7.2820770472440941
 30
0
 11
7.3802372440944879
 21
-7.2792648818897634
 31
0
  0
LINE
  5
2ED
330
1B
100
AcDbEntity
  8
BLACK
  6
CONTINUOUS
100
AcDbLine
 10
7.3802372440944879
 20
-7.2792648818897634
 30
0
 11
7.3914858267716532
 21
-7.2792648818897634
 31
0
  0
LINE
  5
2EE
330
1B
100
AcDbEntity
  8
BLACK
  6
CONTINUOUS
100
AcDbLine
 10
7.3914858267716532
 20
-7.2792648818897634
 30
0
 11
7.3971101181102359
 21
-7.2820770472440941
 31
0
  0
LINE
  5
2EF
330
1B
100
AcDbEntity
  8
BLACK
  6
CONTINUOUS
100
AcDbLine
 10
7.3971101181102359
 20
-7.2820770472440941
 30
0
 11
7.4027344094488186
 21
-7.2877013385826768
 31
0
  0
LINE
  5
2F0
330
1B
100
AcDbEntity
  8
BLACK
  6
CONTINUOUS
100
AcDbLine
 10
7.4027344094488186
 20
-7.2877013385826768
 30
0
 11
7.4055465748031493
 21
-7.2989499212598421
 31
0
  0
LINE
  5
2F1
330
1B
100
AcDbEntity
  8
BLACK
  6
CONTINUOUS
100
AcDbLine
 10
7.4055465748031493
 20
-7.2989499212598421
 30
0
 11
7.4055465748031493
 21
-7.3186349606299208
 31
0
  0
LINE
  5
2F2
330
1B
100
AcDbEntity
  8
BLACK
  6
CONTINUOUS
100
AcDbLine
 10
7.4055465748031493
 20
-7.3186349606299208
 30
0
 11
7.4027344094488186
 21
-7.3298835433070861
 31
0
  0
LINE
  5
2F3
330
1B
100
AcDbEntity
  8
BLACK
  6
CONTINUOUS
100
AcDbLine
 10
7.4027344094488186
 20
-7.3298835433070861
 30
0
 11
7.3971101181102359
 21
-7.3355078740157476
 31
0
  0
LINE
  5
2F4
330
1B
100
AcDbEntity
  8
BLACK
  6
CONTINUOUS
100
AcDbLine
 10
7.3971101181102359
 20
-7.3355078740157476
 30
0
 11
7.3914858267716532
 21
-7.3383199999999995
 31
0
  0
LINE
  5
2F5
330
1B
100
AcDbEntity
  8
BLACK
  6
CONTINUOUS
100
AcDbLine
 10
7.3914858267716532
 20
-7.3383199999999995
 30
0
 11
7.3802372440944879
 21
-7.3383199999999995
 31
0
  0
LINE
  5
2F6
330
1B
100
AcDbEntity
  8
BLACK
  6
CONTINUOUS
100
AcDbLine
 10
7.4167951968503933
 20
-7.3439442913385822
 30
0
 11
7.4617895669291334
 21
-7.3439442913385822
 31
0
  0
LINE
  5
2F7
330
1B
100
AcDbEntity
  8
BLACK
  6
CONTINUOUS
100
AcDbLine
 10
7.4674138582677161
 20
-7.2792648818897634
 30
0
 11
7.4870988976377948
 21
-7.3383199999999995
 31
0
  0
LINE
  5
2F8
330
1B
100
AcDbEntity
  8
BLACK
  6
CONTINUOUS
100
AcDbLine
 10
7.4870988976377948
 20
-7.3383199999999995
 30
0
 11
7.5067839370078735
 21
-7.2792648818897634
 31
0
  0
LINE
  5
2F9
330
1B
100
AcDbEntity
  8
BLACK
  6
CONTINUOUS
100
AcDbLine
 10
7.5574025984251962
 20
-7.3383199999999995
 30
0
 11
7.5236568110236215
 21
-7.3383199999999995
 31
0
  0
LINE
  5
2FA
330
1B
100
AcDbEntity
  8
BLACK
  6
CONTINUOUS
100
AcDbLine
 10
7.5405296850393695
 20
-7.3383199999999995
 30
0
 11
7.5405296850393695
 21
-7.2792648818897634
 31
0
  0
LINE
  5
2FB
330
1B
100
AcDbEntity
  8
BLACK
  6
CONTINUOUS
100
AcDbLine
 10
7.5405296850393695
 20
-7.2792648818897634
 30
0
 11
7.5349053937007868
 21
-7.2877013385826768
 31
0
  0
LINE
  5
2FC
330
1B
100
AcDbEntity
  8
BLACK
  6
CONTINUOUS
100
AcDbLine
 10
7.5349053937007868
 20
-7.2877013385826768
 30
0
 11
7.5292811023622042
 21
-7.2933256299212594
 31
0
  0
LINE
  5
2FD
330
1B
100
AcDbEntity
  8
BLACK
  6
CONTINUOUS
100
AcDbLine
 10
7.5292811023622042
 20
-7.2933256299212594
 30
0
 11
7.5236568110236215
 21
-7.2961377952755901
 31
0
  0
LINE
  5
2FE
330
1B
100
AcDbEntity
  8
BLACK
  6
CONTINUOUS
100
AcDbLine
 10
7.5827118897637797
 20
-7.3326957086614168
 30
0
 11
7.5855240551181105
 21
-7.3355078740157476
 31
0
  0
LINE
  5
2FF
330
1B
100
AcDbEntity
  8
BLACK
  6
CONTINUOUS
100
AcDbLine
 10
7.5855240551181105
 20
-7.3355078740157476
 30
0
 11
7.5827118897637797
 21
-7.3383199999999995
 31
0
  0
LINE
  5
300
330
1B
100
AcDbEntity
  8
BLACK
  6
CONTINUOUS
100
AcDbLine
 10
7.5827118897637797
 20
-7.3383199999999995
 30
0
 11
7.5798997637795278
 21
-7.3355078740157476
 31
0
  0
LINE
  5
301
330
1B
100
AcDbEntity
  8
BLACK
  6
CONTINUOUS
100
AcDbLine
 10
7.5798997637795278
 20
-7.3355078740157476
 30
0
 11
7.5827118897637797
 21
-7.3326957086614168
 31
0
  0
LINE
  5
302
330
1B
100
AcDbEntity
  8
BLACK
  6
CONTINUOUS
100
AcDbLine
 10
7.5827118897637797
 20
-7.3326957086614168
 30
0
 11
7.5827118897637797
 21
-7.3383199999999995
 31
0
  0
LINE
  5
303
330
1B
100
AcDbEntity
  8
BLACK
  6
CONTINUOUS
100
AcDbLine
 10
7.6417670472440946
 20
-7.3383199999999995
 30
0
 11
7.6080212598425199
 21
-7.3383199999999995
 31
0
  0
LINE
  5
304
330
1B
100
AcDbEntity
  8
BLACK
  6
CONTINUOUS
100
AcDbLine
 10
7.6248941338582679
 20
-7.3383199999999995
 30
0
 11
7.6248941338582679
 21
-7.2792648818897634
 31
0
  0
LINE
  5
305
330
1B
100
AcDbEntity
  8
BLACK
  6
CONTINUOUS
100
AcDbLine
 10
7.6248941338582679
 20
-7.2792648818897634
 30
0
 11
7.6192698425196852
 21
-7.2877013385826768
 31
0
  0
LINE
  5
306
330
1B
100
AcDbEntity
  8
BLACK
  6
CONTINUOUS
100
AcDbLine
 10
7.6192698425196852
 20
-7.2877013385826768
 30
0
 11
7.6136455511811025
 21
-7.2933256299212594
 31
0
  0
LINE
  5
307
330
1B
100
AcDbEntity
  8
BLACK
  6
CONTINUOUS
100
AcDbLine
 10
7.6136455511811025
 20
-7.2933256299212594
 30
0
 11
7.6080212598425199
 21
-7.2961377952755901
 31
0
  0
LINE
  5
308
330
1B
100
AcDbEntity
  8
BLACK
  6
CONTINUOUS
100
AcDbLine
 10
7.6670763385826772
 20
-7.3326957086614168
 30
0
 11
7.6698885039370079
 21
-7.3355078740157476
 31
0
  0
LINE
  5
309
330
1B
100
AcDbEntity
  8
BLACK
  6
CONTINUOUS
100
AcDbLine
 10
7.6698885039370079
 20
-7.3355078740157476
 30
0
 11
7.6670763385826772
 21
-7.3383199999999995
 31
0
  0
LINE
  5
30A
330
1B
100
AcDbEntity
  8
BLACK
  6
CONTINUOUS
100
AcDbLine
 10
7.6670763385826772
 20
-7.3383199999999995
 30
0
 11
7.6642642125984253
 21
-7.3355078740157476
 31
0
  0
LINE
  5
30B
330
1B
100
AcDbEntity
  8
BLACK
  6
CONTINUOUS
100
AcDbLine
 10
7.6642642125984253
 20
-7.3355078740157476
 30
0
 11
7.6670763385826772
 21
-7.3326957086614168
 31
0
  0
LINE
  5
30C
330
1B
100
AcDbEntity
  8
BLACK
  6
CONTINUOUS
100
AcDbLine
 10
7.6670763385826772
 20
-7.3326957086614168
 30
0
 11
7.6670763385826772
 21
-7.3383199999999995
 31
0
  0
LINE
  5
30D
330
1B
100
AcDbEntity
  8
BLACK
  6
CONTINUOUS
100
AcDbLine
 10
7.6951978346456693
 20
-7.3383199999999995
 30
0
 11
7.6951978346456693
 21
-7.2792648818897634
 31
0
  0
LINE
  5
30E
330
1B
100
AcDbEntity
  8
BLACK
  6
CONTINUOUS
100
AcDbLine
 10
7.7008221653543307
 20
-7.3158228346456688
 30
0
 11
7.7176950393700787
 21
-7.3383199999999995
 31
0
  0
LINE
  5
30F
330
1B
100
AcDbEntity
  8
BLACK
  6
CONTINUOUS
100
AcDbLine
 10
7.7176950393700787
 20
-7.2989499212598421
 30
0
 11
7.6951978346456693
 21
-7.3214471259842515
 31
0
  0
LINE
  5
310
330
1B
100
AcDbEntity
  8
BLACK
  6
CONTINUOUS
100
AcDbLine
 10
7.7430043700787401
 20
-7.3383199999999995
 30
0
 11
7.7430043700787401
 21
-7.2989499212598421
 31
0
  0
LINE
  5
311
330
1B
100
AcDbEntity
  8
BLACK
  6
CONTINUOUS
100
AcDbLine
 10
7.7430043700787401
 20
-7.2792648818897634
 30
0
 11
7.7401922440944881
 21
-7.2820770472440941
 31
0
  0
LINE
  5
312
330
1B
100
AcDbEntity
  8
BLACK
  6
CONTINUOUS
100
AcDbLine
 10
7.7401922440944881
 20
-7.2820770472440941
 30
0
 11
7.7430043700787401
 21
-7.2848891732283461
 31
0
  0
LINE
  5
313
330
1B
100
AcDbEntity
  8
BLACK
  6
CONTINUOUS
100
AcDbLine
 10
7.7430043700787401
 20
-7.2848891732283461
 30
0
 11
7.7458165354330708
 21
-7.2820770472440941
 31
0
  0
LINE
  5
314
330
1B
100
AcDbEntity
  8
BLACK
  6
CONTINUOUS
100
AcDbLine
 10
7.7458165354330708
 20
-7.2820770472440941
 30
0
 11
7.7430043700787401
 21
-7.2792648818897634
 31
0
  0
LINE
  5
315
330
1B
100
AcDbEntity
  8
BLACK
  6
CONTINUOUS
100
AcDbLine
 10
7.7430043700787401
 20
-7.2792648818897634
 30
0
 11
7.7430043700787401
 21
-7.2848891732283461
 31
0
  0
LINE
  5
316
330
1B
100
AcDbEntity
  8
BLACK
  6
CONTINUOUS
100
AcDbLine
 10
7.7964352362204723
 20
-7.3355078740157476
 30
0
 11
7.7908109055118109
 21
-7.3383199999999995
 31
0
  0
LINE
  5
317
330
1B
100
AcDbEntity
  8
BLACK
  6
CONTINUOUS
100
AcDbLine
 10
7.7908109055118109
 20
-7.3383199999999995
 30
0
 11
7.7795623228346455
 21
-7.3383199999999995
 31
0
  0
LINE
  5
318
330
1B
100
AcDbEntity
  8
BLACK
  6
CONTINUOUS
100
AcDbLine
 10
7.7795623228346455
 20
-7.3383199999999995
 30
0
 11
7.7739380314960629
 21
-7.3355078740157476
 31
0
  0
LINE
  5
319
330
1B
100
AcDbEntity
  8
BLACK
  6
CONTINUOUS
100
AcDbLine
 10
7.7739380314960629
 20
-7.3355078740157476
 30
0
 11
7.7711258661417322
 21
-7.3326957086614168
 31
0
  0
LINE
  5
31A
330
1B
100
AcDbEntity
  8
BLACK
  6
CONTINUOUS
100
AcDbLine
 10
7.7711258661417322
 20
-7.3326957086614168
 30
0
 11
7.7683137401574802
 21
-7.3270714173228342
 31
0
  0
LINE
  5
31B
330
1B
100
AcDbEntity
  8
BLACK
  6
CONTINUOUS
100
AcDbLine
 10
7.7683137401574802
 20
-7.3270714173228342
 30
0
 11
7.7683137401574802
 21
-7.3101985039370074
 31
0
  0
LINE
  5
31C
330
1B
100
AcDbEntity
  8
BLACK
  6
CONTINUOUS
100
AcDbLine
 10
7.7683137401574802
 20
-7.3101985039370074
 30
0
 11
7.7711258661417322
 21
-7.3045742125984248
 31
0
  0
LINE
  5
31D
330
1B
100
AcDbEntity
  8
BLACK
  6
CONTINUOUS
100
AcDbLine
 10
7.7711258661417322
 20
-7.3045742125984248
 30
0
 11
7.7739380314960629
 21
-7.3017620866141728
 31
0
  0
LINE
  5
31E
330
1B
100
AcDbEntity
  8
BLACK
  6
CONTINUOUS
100
AcDbLine
 10
7.7739380314960629
 20
-7.3017620866141728
 30
0
 11
7.7795623228346455
 21
-7.2989499212598421
 31
0
  0
LINE
  5
31F
330
1B
100
AcDbEntity
  8
BLACK
  6
CONTINUOUS
100
AcDbLine
 10
7.7795623228346455
 20
-7.2989499212598421
 30
0
 11
7.7908109055118109
 21
-7.2989499212598421
 31
0
  0
LINE
  5
320
330
1B
100
AcDbEntity
  8
BLACK
  6
CONTINUOUS
100
AcDbLine
 10
7.7908109055118109
 20
-7.2989499212598421
 30
0
 11
7.7964352362204723
 21
-7.3017620866141728
 31
0
  0
LINE
  5
321
330
1B
100
AcDbEntity
  8
BLACK
  6
CONTINUOUS
100
AcDbLine
 10
7.847053897637795
 20
-7.3383199999999995
 30
0
 11
7.847053897637795
 21
-7.3073863779527555
 31
0
  0
LINE
  5
322
330
1B
100
AcDbEntity
  8
BLACK
  6
CONTINUOUS
100
AcDbLine
 10
7.847053897637795
 20
-7.3073863779527555
 30
0
 11
7.8442417322834643
 21
-7.3017620866141728
 31
0
  0
LINE
  5
323
330
1B
100
AcDbEntity
  8
BLACK
  6
CONTINUOUS
100
AcDbLine
 10
7.8442417322834643
 20
-7.3017620866141728
 30
0
 11
7.8386174409448817
 21
-7.2989499212598421
 31
0
  0
LINE
  5
324
330
1B
100
AcDbEntity
  8
BLACK
  6
CONTINUOUS
100
AcDbLine
 10
7.8386174409448817
 20
-7.2989499212598421
 30
0
 11
7.8273688582677163
 21
-7.2989499212598421
 31
0
  0
LINE
  5
325
330
1B
100
AcDbEntity
  8
BLACK
  6
CONTINUOUS
100
AcDbLine
 10
7.8273688582677163
 20
-7.2989499212598421
 30
0
 11
7.8217445275590549
 21
-7.3017620866141728
 31
0
  0
LINE
  5
326
330
1B
100
AcDbEntity
  8
BLACK
  6
CONTINUOUS
100
AcDbLine
 10
7.847053897637795
 20
-7.3355078740157476
 30
0
 11
7.8414295669291336
 21
-7.3383199999999995
 31
0
  0
LINE
  5
327
330
1B
100
AcDbEntity
  8
BLACK
  6
CONTINUOUS
100
AcDbLine
 10
7.8414295669291336
 20
-7.3383199999999995
 30
0
 11
7.8273688582677163
 21
-7.3383199999999995
 31
0
  0
LINE
  5
328
330
1B
100
AcDbEntity
  8
BLACK
  6
CONTINUOUS
100
AcDbLine
 10
7.8273688582677163
 20
-7.3383199999999995
 30
0
 11
7.8217445275590549
 21
-7.3355078740157476
 31
0
  0
LINE
  5
329
330
1B
100
AcDbEntity
  8
BLACK
  6
CONTINUOUS
100
AcDbLine
 10
7.8217445275590549
 20
-7.3355078740157476
 30
0
 11
7.818932401574803
 21
-7.3298835433070861
 31
0
  0
LINE
  5
32A
330
1B
100
AcDbEntity
  8
BLACK
  6
CONTINUOUS
100
AcDbLine
 10
7.818932401574803
 20
-7.3298835433070861
 30
0
 11
7.818932401574803
 21
-7.3242592519685035
 31
0
  0
LINE
  5
32B
330
1B
100
AcDbEntity
  8
BLACK
  6
CONTINUOUS
100
AcDbLine
 10
7.818932401574803
 20
-7.3242592519685035
 30
0
 11
7.8217445275590549
 21
-7.3186349606299208
 31
0
  0
LINE
  5
32C
330
1B
100
AcDbEntity
  8
BLACK
  6
CONTINUOUS
100
AcDbLine
 10
7.8217445275590549
 20
-7.3186349606299208
 30
0
 11
7.8273688582677163
 21
-7.3158228346456688
 31
0
  0
LINE
  5
32D
330
1B
100
AcDbEntity
  8
BLACK
  6
CONTINUOUS
100
AcDbLine
 10
7.8273688582677163
 20
-7.3158228346456688
 30
0
 11
7.8414295669291336
 21
-7.3158228346456688
 31
0
  0
LINE
  5
32E
330
1B
100
AcDbEntity
  8
BLACK
  6
CONTINUOUS
100
AcDbLine
 10
7.8414295669291336
 20
-7.3158228346456688
 30
0
 11
7.847053897637795
 21
-7.3130106692913381
 31
0
  0
LINE
  5
32F
330
1B
100
AcDbEntity
  8
BLACK
  6
CONTINUOUS
100
AcDbLine
 10
7.9004847244094485
 20
-7.3383199999999995
 30
0
 11
7.9004847244094485
 21
-7.2792648818897634
 31
0
  0
LINE
  5
330
330
1B
100
AcDbEntity
  8
BLACK
  6
CONTINUOUS
100
AcDbLine
 10
7.9004847244094485
 20
-7.3355078740157476
 30
0
 11
7.8948603937007871
 21
-7.3383199999999995
 31
0
  0
LINE
  5
331
330
1B
100
AcDbEntity
  8
BLACK
  6
CONTINUOUS
100
AcDbLine
 10
7.8948603937007871
 20
-7.3383199999999995
 30
0
 11
7.8836118110236217
 21
-7.3383199999999995
 31
0
  0
LINE
  5
332
330
1B
100
AcDbEntity
  8
BLACK
  6
CONTINUOUS
100
AcDbLine
 10
7.8836118110236217
 20
-7.3383199999999995
 30
0
 11
7.8779875196850391
 21
-7.3355078740157476
 31
0
  0
LINE
  5
333
330
1B
100
AcDbEntity
  8
BLACK
  6
CONTINUOUS
100
AcDbLine
 10
7.8779875196850391
 20
-7.3355078740157476
 30
0
 11
7.8751753543307084
 21
-7.3326957086614168
 31
0
  0
LINE
  5
334
330
1B
100
AcDbEntity
  8
BLACK
  6
CONTINUOUS
100
AcDbLine
 10
7.8751753543307084
 20
-7.3326957086614168
 30
0
 11
7.8723632283464564
 21
-7.3270714173228342
 31
0
  0
LINE
  5
335
330
1B
100
AcDbEntity
  8
BLACK
  6
CONTINUOUS
100
AcDbLine
 10
7.8723632283464564
 20
-7.3270714173228342
 30
0
 11
7.8723632283464564
 21
-7.3101985039370074
 31
0
  0
LINE
  5
336
330
1B
100
AcDbEntity
  8
BLACK
  6
CONTINUOUS
100
AcDbLine
 10
7.8723632283464564
 20
-7.3101985039370074
 30
0
 11
7.8751753543307084
 21
-7.3045742125984248
 31
0
  0
LINE
  5
337
330
1B
100
AcDbEntity
  8
BLACK
  6
CONTINUOUS
100
AcDbLine
 10
7.8751753543307084
 20
-7.3045742125984248
 30
0
 11
7.8779875196850391
 21
-7.3017620866141728
 31
0
  0
LINE
  5
338
330
1B
100
AcDbEntity
  8
BLACK
  6
CONTINUOUS
100
AcDbLine
 10
7.8779875196850391
 20
-7.3017620866141728
 30
0
 11
7.8836118110236217
 21
-7.2989499212598421
 31
0
  0
LINE
  5
339
330
1B
100
AcDbEntity
  8
BLACK
  6
CONTINUOUS
100
AcDbLine
 10
7.8836118110236217
 20
-7.2989499212598421
 30
0
 11
7.8948603937007871
 21
-7.2989499212598421
 31
0
  0
LINE
  5
33A
330
1B
100
AcDbEntity
  8
BLACK
  6
CONTINUOUS
100
AcDbLine
 10
7.8948603937007871
 20
-7.2989499212598421
 30
0
 11
7.9004847244094485
 21
-7.3017620866141728
 31
0
  0
LINE
  5
33B
330
1B
100
AcDbEntity
  8
BLACK
  6
CONTINUOUS
100
AcDbLine
 10
7.9145454724409445
 20
-7.3439442913385822
 30
0
 11
7.9595398425196846
 21
-7.3439442913385822
 31
0
  0
LINE
  5
33C
330
1B
100
AcDbEntity
  8
BLACK
  6
CONTINUOUS
100
AcDbLine
 10
7.9736005511811019
 20
-7.2989499212598421
 30
0
 11
7.9736005511811019
 21
-7.3580050393700782
 31
0
  0
LINE
  5
33D
330
1B
100
AcDbEntity
  8
BLACK
  6
CONTINUOUS
100
AcDbLine
 10
7.9736005511811019
 20
-7.3017620866141728
 30
0
 11
7.9792248818897633
 21
-7.2989499212598421
 31
0
  0
LINE
  5
33E
330
1B
100
AcDbEntity
  8
BLACK
  6
CONTINUOUS
100
AcDbLine
 10
7.9792248818897633
 20
-7.2989499212598421
 30
0
 11
7.9904734645669286
 21
-7.2989499212598421
 31
0
  0
LINE
  5
33F
330
1B
100
AcDbEntity
  8
BLACK
  6
CONTINUOUS
100
AcDbLine
 10
7.9904734645669286
 20
-7.2989499212598421
 30
0
 11
7.9960977559055113
 21
-7.3017620866141728
 31
0
  0
LINE
  5
340
330
1B
100
AcDbEntity
  8
BLACK
  6
CONTINUOUS
100
AcDbLine
 10
7.9960977559055113
 20
-7.3017620866141728
 30
0
 11
7.998909921259842
 21
-7.3045742125984248
 31
0
  0
LINE
  5
341
330
1B
100
AcDbEntity
  8
BLACK
  6
CONTINUOUS
100
AcDbLine
 10
7.998909921259842
 20
-7.3045742125984248
 30
0
 11
8.001722047244094
 21
-7.3101985039370074
 31
0
  0
LINE
  5
342
330
1B
100
AcDbEntity
  8
BLACK
  6
CONTINUOUS
100
AcDbLine
 10
8.001722047244094
 20
-7.3101985039370074
 30
0
 11
8.001722047244094
 21
-7.3270714173228342
 31
0
  0
LINE
  5
343
330
1B
100
AcDbEntity
  8
BLACK
  6
CONTINUOUS
100
AcDbLine
 10
8.001722047244094
 20
-7.3270714173228342
 30
0
 11
7.998909921259842
 21
-7.3326957086614168
 31
0
  0
LINE
  5
344
330
1B
100
AcDbEntity
  8
BLACK
  6
CONTINUOUS
100
AcDbLine
 10
7.998909921259842
 20
-7.3326957086614168
 30
0
 11
7.9960977559055113
 21
-7.3355078740157476
 31
0
  0
LINE
  5
345
330
1B
100
AcDbEntity
  8
BLACK
  6
CONTINUOUS
100
AcDbLine
 10
7.9960977559055113
 20
-7.3355078740157476
 30
0
 11
7.9904734645669286
 21
-7.3383199999999995
 31
0
  0
LINE
  5
346
330
1B
100
AcDbEntity
  8
BLACK
  6
CONTINUOUS
100
AcDbLine
 10
7.9904734645669286
 20
-7.3383199999999995
 30
0
 11
7.9792248818897633
 21
-7.3383199999999995
 31
0
  0
LINE
  5
347
330
1B
100
AcDbEntity
  8
BLACK
  6
CONTINUOUS
100
AcDbLine
 10
7.9792248818897633
 20
-7.3383199999999995
 30
0
 11
7.9736005511811019
 21
-7.3355078740157476
 31
0
  0
LINE
  5
348
330
1B
100
AcDbEntity
  8
BLACK
  6
CONTINUOUS
100
AcDbLine
 10
8.0523407480314955
 20
-7.3355078740157476
 30
0
 11
8.046716417322834
 21
-7.3383199999999995
 31
0
  0
LINE
  5
349
330
1B
100
AcDbEntity
  8
BLACK
  6
CONTINUOUS
100
AcDbLine
 10
8.046716417322834
 20
-7.3383199999999995
 30
0
 11
8.0354678346456687
 21
-7.3383199999999995
 31
0
  0
LINE
  5
34A
330
1B
100
AcDbEntity
  8
BLACK
  6
CONTINUOUS
100
AcDbLine
 10
8.0354678346456687
 20
-7.3383199999999995
 30
0
 11
8.0298435433070861
 21
-7.3355078740157476
 31
0
  0
LINE
  5
34B
330
1B
100
AcDbEntity
  8
BLACK
  6
CONTINUOUS
100
AcDbLine
 10
8.0298435433070861
 20
-7.3355078740157476
 30
0
 11
8.0270313779527562
 21
-7.3326957086614168
 31
0
  0
LINE
  5
34C
330
1B
100
AcDbEntity
  8
BLACK
  6
CONTINUOUS
100
AcDbLine
 10
8.0270313779527562
 20
-7.3326957086614168
 30
0
 11
8.0242192519685034
 21
-7.3270714173228342
 31
0
  0
LINE
  5
34D
330
1B
100
AcDbEntity
  8
BLACK
  6
CONTINUOUS
100
AcDbLine
 10
8.0242192519685034
 20
-7.3270714173228342
 30
0
 11
8.0242192519685034
 21
-7.3101985039370074
 31
0
  0
LINE
  5
34E
330
1B
100
AcDbEntity
  8
BLACK
  6
CONTINUOUS
100
AcDbLine
 10
8.0242192519685034
 20
-7.3101985039370074
 30
0
 11
8.0270313779527562
 21
-7.3045742125984248
 31
0
  0
LINE
  5
34F
330
1B
100
AcDbEntity
  8
BLACK
  6
CONTINUOUS
100
AcDbLine
 10
8.0270313779527562
 20
-7.3045742125984248
 30
0
 11
8.0298435433070861
 21
-7.3017620866141728
 31
0
  0
LINE
  5
350
330
1B
100
AcDbEntity
  8
BLACK
  6
CONTINUOUS
100
AcDbLine
 10
8.0298435433070861
 20
-7.3017620866141728
 30
0
 11
8.0354678346456687
 21
-7.2989499212598421
 31
0
  0
LINE
  5
351
330
1B
100
AcDbEntity
  8
BLACK
  6
CONTINUOUS
100
AcDbLine
 10
8.0354678346456687
 20
-7.2989499212598421
 30
0
 11
8.046716417322834
 21
-7.2989499212598421
 31
0
  0
LINE
  5
352
330
1B
100
AcDbEntity
  8
BLACK
  6
CONTINUOUS
100
AcDbLine
 10
8.046716417322834
 20
-7.2989499212598421
 30
0
 11
8.0523407480314955
 21
-7.3017620866141728
 31
0
  0
LINE
  5
353
330
1B
100
AcDbEntity
  8
BLACK
  6
CONTINUOUS
100
AcDbLine
 10
8.077650039370079
 20
-7.3383199999999995
 30
0
 11
8.077650039370079
 21
-7.2792648818897634
 31
0
  0
LINE
  5
354
330
1B
100
AcDbEntity
  8
BLACK
  6
CONTINUOUS
100
AcDbLine
 10
8.077650039370079
 20
-7.3017620866141728
 30
0
 11
8.0832743700787404
 21
-7.2989499212598421
 31
0
  0
LINE
  5
355
330
1B
100
AcDbEntity
  8
BLACK
  6
CONTINUOUS
100
AcDbLine
 10
8.0832743700787404
 20
-7.2989499212598421
 30
0
 11
8.0945229527559057
 21
-7.2989499212598421
 31
0
  0
LINE
  5
356
330
1B
100
AcDbEntity
  8
BLACK
  6
CONTINUOUS
100
AcDbLine
 10
8.0945229527559057
 20
-7.2989499212598421
 30
0
 11
8.1001472440944884
 21
-7.3017620866141728
 31
0
  0
LINE
  5
357
330
1B
100
AcDbEntity
  8
BLACK
  6
CONTINUOUS
100
AcDbLine
 10
8.1001472440944884
 20
-7.3017620866141728
 30
0
 11
8.1029594094488182
 21
-7.3045742125984248
 31
0
  0
LINE
  5
358
330
1B
100
AcDbEntity
  8
BLACK
  6
CONTINUOUS
100
AcDbLine
 10
8.1029594094488182
 20
-7.3045742125984248
 30
0
 11
8.1057715354330711
 21
-7.3101985039370074
 31
0
  0
LINE
  5
359
330
1B
100
AcDbEntity
  8
BLACK
  6
CONTINUOUS
100
AcDbLine
 10
8.1057715354330711
 20
-7.3101985039370074
 30
0
 11
8.1057715354330711
 21
-7.3270714173228342
 31
0
  0
LINE
  5
35A
330
1B
100
AcDbEntity
  8
BLACK
  6
CONTINUOUS
100
AcDbLine
 10
8.1057715354330711
 20
-7.3270714173228342
 30
0
 11
8.1029594094488182
 21
-7.3326957086614168
 31
0
  0
LINE
  5
35B
330
1B
100
AcDbEntity
  8
BLACK
  6
CONTINUOUS
100
AcDbLine
 10
8.1029594094488182
 20
-7.3326957086614168
 30
0
 11
8.1001472440944884
 21
-7.3355078740157476
 31
0
  0
LINE
  5
35C
330
1B
100
AcDbEntity
  8
BLACK
  6
CONTINUOUS
100
AcDbLine
 10
8.1001472440944884
 20
-7.3355078740157476
 30
0
 11
8.0945229527559057
 21
-7.3383199999999995
 31
0
  0
LINE
  5
35D
330
1B
100
AcDbEntity
  8
BLACK
  6
CONTINUOUS
100
AcDbLine
 10
8.0945229527559057
 20
-7.3383199999999995
 30
0
 11
8.0832743700787404
 21
-7.3383199999999995
 31
0
  0
LINE
  5
35E
330
1B
100
AcDbEntity
  8
BLACK
  6
CONTINUOUS
100
AcDbLine
 10
8.0832743700787404
 20
-7.3383199999999995
 30
0
 11
8.077650039370079
 21
-7.3355078740157476
 31
0
  0
LINE
  5
35F
330
1B
100
AcDbEntity
  8
BLACK
  6
CONTINUOUS
100
AcDbLine
 10
6.9685905511811024
 20
-7.1459527559055118
 30
0
 11
11.2205590551181107
 21
-7.1459527559055118
 31
0
  0
LINE
  5
360
330
1B
100
AcDbEntity
  8
BLACK
  6
CONTINUOUS
100
AcDbLine
 10
7.0230944094488184
 20
-7.2292086614173225
 30
0
 11
7.0315308661417317
 21
-7.2320207874015745
 31
0
  0
LINE
  5
361
330
1B
100
AcDbEntity
  8
BLACK
  6
CONTINUOUS
100
AcDbLine
 10
7.0315308661417317
 20
-7.2320207874015745
 30
0
 11
7.045591574803149
 21
-7.2320207874015745
 31
0
  0
LINE
  5
362
330
1B
100
AcDbEntity
  8
BLACK
  6
CONTINUOUS
100
AcDbLine
 10
7.045591574803149
 20
-7.2320207874015745
 30
0
 11
7.0512159055118104
 21
-7.2292086614173225
 31
0
  0
LINE
  5
363
330
1B
100
AcDbEntity
  8
BLACK
  6
CONTINUOUS
100
AcDbLine
 10
7.0512159055118104
 20
-7.2292086614173225
 30
0
 11
7.0540280314960624
 21
-7.2263964960629918
 31
0
  0
LINE
  5
364
330
1B
100
AcDbEntity
  8
BLACK
  6
CONTINUOUS
100
AcDbLine
 10
7.0540280314960624
 20
-7.2263964960629918
 30
0
 11
7.0568401968503931
 21
-7.2207722047244092
 31
0
  0
LINE
  5
365
330
1B
100
AcDbEntity
  8
BLACK
  6
CONTINUOUS
100
AcDbLine
 10
7.0568401968503931
 20
-7.2207722047244092
 30
0
 11
7.0568401968503931
 21
-7.2151479133858265
 31
0
  0
LINE
  5
366
330
1B
100
AcDbEntity
  8
BLACK
  6
CONTINUOUS
100
AcDbLine
 10
7.0568401968503931
 20
-7.2151479133858265
 30
0
 11
7.0540280314960624
 21
-7.2095236220472438
 31
0
  0
LINE
  5
367
330
1B
100
AcDbEntity
  8
BLACK
  6
CONTINUOUS
100
AcDbLine
 10
7.0540280314960624
 20
-7.2095236220472438
 30
0
 11
7.0512159055118104
 21
-7.2067114566929131
 31
0
  0
LINE
  5
368
330
1B
100
AcDbEntity
  8
BLACK
  6
CONTINUOUS
100
AcDbLine
 10
7.0512159055118104
 20
-7.2067114566929131
 30
0
 11
7.045591574803149
 21
-7.2038992913385824
 31
0
  0
LINE
  5
369
330
1B
100
AcDbEntity
  8
BLACK
  6
CONTINUOUS
100
AcDbLine
 10
7.045591574803149
 20
-7.2038992913385824
 30
0
 11
7.0343429921259837
 21
-7.2010871653543305
 31
0
  0
LINE
  5
36A
330
1B
100
AcDbEntity
  8
BLACK
  6
CONTINUOUS
100
AcDbLine
 10
7.0343429921259837
 20
-7.2010871653543305
 30
0
 11
7.028718700787401
 21
-7.1982749999999998
 31
0
  0
LINE
  5
36B
330
1B
100
AcDbEntity
  8
BLACK
  6
CONTINUOUS
100
AcDbLine
 10
7.028718700787401
 20
-7.1982749999999998
 30
0
 11
7.0259065354330703
 21
-7.1954628740157478
 31
0
  0
LINE
  5
36C
330
1B
100
AcDbEntity
  8
BLACK
  6
CONTINUOUS
100
AcDbLine
 10
7.0259065354330703
 20
-7.1954628740157478
 30
0
 11
7.0230944094488184
 21
-7.1898385826771651
 31
0
  0
LINE
  5
36D
330
1B
100
AcDbEntity
  8
BLACK
  6
CONTINUOUS
100
AcDbLine
 10
7.0230944094488184
 20
-7.1898385826771651
 30
0
 11
7.0230944094488184
 21
-7.1842142519685037
 31
0
  0
LINE
  5
36E
330
1B
100
AcDbEntity
  8
BLACK
  6
CONTINUOUS
100
AcDbLine
 10
7.0230944094488184
 20
-7.1842142519685037
 30
0
 11
7.0259065354330703
 21
-7.1785899606299211
 31
0
  0
LINE
  5
36F
330
1B
100
AcDbEntity
  8
BLACK
  6
CONTINUOUS
100
AcDbLine
 10
7.0259065354330703
 20
-7.1785899606299211
 30
0
 11
7.028718700787401
 21
-7.1757778346456691
 31
0
  0
LINE
  5
370
330
1B
100
AcDbEntity
  8
BLACK
  6
CONTINUOUS
100
AcDbLine
 10
7.028718700787401
 20
-7.1757778346456691
 30
0
 11
7.0343429921259837
 21
-7.1729656692913384
 31
0
  0
LINE
  5
371
330
1B
100
AcDbEntity
  8
BLACK
  6
CONTINUOUS
100
AcDbLine
 10
7.0343429921259837
 20
-7.1729656692913384
 30
0
 11
7.0484037401574797
 21
-7.1729656692913384
 31
0
  0
LINE
  5
372
330
1B
100
AcDbEntity
  8
BLACK
  6
CONTINUOUS
100
AcDbLine
 10
7.0484037401574797
 20
-7.1729656692913384
 30
0
 11
7.0568401968503931
 21
-7.1757778346456691
 31
0
  0
LINE
  5
373
330
1B
100
AcDbEntity
  8
BLACK
  6
CONTINUOUS
100
AcDbLine
 10
7.0821494881889766
 20
-7.2320207874015745
 30
0
 11
7.0821494881889766
 21
-7.1729656692913384
 31
0
  0
LINE
  5
374
330
1B
100
AcDbEntity
  8
BLACK
  6
CONTINUOUS
100
AcDbLine
 10
7.1074588582677167
 20
-7.2320207874015745
 30
0
 11
7.1074588582677167
 21
-7.2010871653543305
 31
0
  0
LINE
  5
375
330
1B
100
AcDbEntity
  8
BLACK
  6
CONTINUOUS
100
AcDbLine
 10
7.1074588582677167
 20
-7.2010871653543305
 30
0
 11
7.104646692913386
 21
-7.1954628740157478
 31
0
  0
LINE
  5
376
330
1B
100
AcDbEntity
  8
BLACK
  6
CONTINUOUS
100
AcDbLine
 10
7.104646692913386
 20
-7.1954628740157478
 30
0
 11
7.0990224015748034
 21
-7.1926507086614171
 31
0
  0
LINE
  5
377
330
1B
100
AcDbEntity
  8
BLACK
  6
CONTINUOUS
100
AcDbLine
 10
7.0990224015748034
 20
-7.1926507086614171
 30
0
 11
7.09058594488189
 21
-7.1926507086614171
 31
0
  0
LINE
  5
378
330
1B
100
AcDbEntity
  8
BLACK
  6
CONTINUOUS
100
AcDbLine
 10
7.09058594488189
 20
-7.1926507086614171
 30
0
 11
7.0849616535433073
 21
-7.1954628740157478
 31
0
  0
LINE
  5
379
330
1B
100
AcDbEntity
  8
BLACK
  6
CONTINUOUS
100
AcDbLine
 10
7.0849616535433073
 20
-7.1954628740157478
 30
0
 11
7.0821494881889766
 21
-7.1982749999999998
 31
0
  0
LINE
  5
37A
330
1B
100
AcDbEntity
  8
BLACK
  6
CONTINUOUS
100
AcDbLine
 10
7.1580775196850395
 20
-7.2292086614173225
 30
0
 11
7.1524532283464568
 21
-7.2320207874015745
 31
0
  0
LINE
  5
37B
330
1B
100
AcDbEntity
  8
BLACK
  6
CONTINUOUS
100
AcDbLine
 10
7.1524532283464568
 20
-7.2320207874015745
 30
0
 11
7.1412046456692915
 21
-7.2320207874015745
 31
0
  0
LINE
  5
37C
330
1B
100
AcDbEntity
  8
BLACK
  6
CONTINUOUS
100
AcDbLine
 10
7.1412046456692915
 20
-7.2320207874015745
 30
0
 11
7.1355803149606301
 21
-7.2292086614173225
 31
0
  0
LINE
  5
37D
330
1B
100
AcDbEntity
  8
BLACK
  6
CONTINUOUS
100
AcDbLine
 10
7.1355803149606301
 20
-7.2292086614173225
 30
0
 11
7.1327681889763781
 21
-7.2235843307086611
 31
0
  0
LINE
  5
37E
330
1B
100
AcDbEntity
  8
BLACK
  6
CONTINUOUS
100
AcDbLine
 10
7.1327681889763781
 20
-7.2235843307086611
 30
0
 11
7.1327681889763781
 21
-7.2010871653543305
 31
0
  0
LINE
  5
37F
330
1B
100
AcDbEntity
  8
BLACK
  6
CONTINUOUS
100
AcDbLine
 10
7.1327681889763781
 20
-7.2010871653543305
 30
0
 11
7.1355803149606301
 21
-7.1954628740157478
 31
0
  0
LINE
  5
380
330
1B
100
AcDbEntity
  8
BLACK
  6
CONTINUOUS
100
AcDbLine
 10
7.1355803149606301
 20
-7.1954628740157478
 30
0
 11
7.1412046456692915
 21
-7.1926507086614171
 31
0
  0
LINE
  5
381
330
1B
100
AcDbEntity
  8
BLACK
  6
CONTINUOUS
100
AcDbLine
 10
7.1412046456692915
 20
-7.1926507086614171
 30
0
 11
7.1524532283464568
 21
-7.1926507086614171
 31
0
  0
LINE
  5
382
330
1B
100
AcDbEntity
  8
BLACK
  6
CONTINUOUS
100
AcDbLine
 10
7.1524532283464568
 20
-7.1926507086614171
 30
0
 11
7.1580775196850395
 21
-7.1954628740157478
 31
0
  0
LINE
  5
383
330
1B
100
AcDbEntity
  8
BLACK
  6
CONTINUOUS
100
AcDbLine
 10
7.1580775196850395
 20
-7.1954628740157478
 30
0
 11
7.1608896850393702
 21
-7.2010871653543305
 31
0
  0
LINE
  5
384
330
1B
100
AcDbEntity
  8
BLACK
  6
CONTINUOUS
100
AcDbLine
 10
7.1608896850393702
 20
-7.2010871653543305
 30
0
 11
7.1608896850393702
 21
-7.2067114566929131
 31
0
  0
LINE
  5
385
330
1B
100
AcDbEntity
  8
BLACK
  6
CONTINUOUS
100
AcDbLine
 10
7.1608896850393702
 20
-7.2067114566929131
 30
0
 11
7.1327681889763781
 21
-7.2123357480314958
 31
0
  0
LINE
  5
386
330
1B
100
AcDbEntity
  8
BLACK
  6
CONTINUOUS
100
AcDbLine
 10
7.2086961811023622
 20
-7.2292086614173225
 30
0
 11
7.2030718897637795
 21
-7.2320207874015745
 31
0
  0
LINE
  5
387
330
1B
100
AcDbEntity
  8
BLACK
  6
CONTINUOUS
100
AcDbLine
 10
7.2030718897637795
 20
-7.2320207874015745
 30
0
 11
7.1918233070866142
 21
-7.2320207874015745
 31
0
  0
LINE
  5
388
330
1B
100
AcDbEntity
  8
BLACK
  6
CONTINUOUS
100
AcDbLine
 10
7.1918233070866142
 20
-7.2320207874015745
 30
0
 11
7.1861989763779528
 21
-7.2292086614173225
 31
0
  0
LINE
  5
389
330
1B
100
AcDbEntity
  8
BLACK
  6
CONTINUOUS
100
AcDbLine
 10
7.1861989763779528
 20
-7.2292086614173225
 30
0
 11
7.1833868503937008
 21
-7.2235843307086611
 31
0
  0
LINE
  5
38A
330
1B
100
AcDbEntity
  8
BLACK
  6
CONTINUOUS
100
AcDbLine
 10
7.1833868503937008
 20
-7.2235843307086611
 30
0
 11
7.1833868503937008
 21
-7.2010871653543305
 31
0
  0
LINE
  5
38B
330
1B
100
AcDbEntity
  8
BLACK
  6
CONTINUOUS
100
AcDbLine
 10
7.1833868503937008
 20
-7.2010871653543305
 30
0
 11
7.1861989763779528
 21
-7.1954628740157478
 31
0
  0
LINE
  5
38C
330
1B
100
AcDbEntity
  8
BLACK
  6
CONTINUOUS
100
AcDbLine
 10
7.1861989763779528
 20
-7.1954628740157478
 30
0
 11
7.1918233070866142
 21
-7.1926507086614171
 31
0
  0
LINE
  5
38D
330
1B
100
AcDbEntity
  8
BLACK
  6
CONTINUOUS
100
AcDbLine
 10
7.1918233070866142
 20
-7.1926507086614171
 30
0
 11
7.2030718897637795
 21
-7.1926507086614171
 31
0
  0
LINE
  5
38E
330
1B
100
AcDbEntity
  8
BLACK
  6
CONTINUOUS
100
AcDbLine
 10
7.2030718897637795
 20
-7.1926507086614171
 30
0
 11
7.2086961811023622
 21
-7.1954628740157478
 31
0
  0
LINE
  5
38F
330
1B
100
AcDbEntity
  8
BLACK
  6
CONTINUOUS
100
AcDbLine
 10
7.2086961811023622
 20
-7.1954628740157478
 30
0
 11
7.2115083464566929
 21
-7.2010871653543305
 31
0
  0
LINE
  5
390
330
1B
100
AcDbEntity
  8
BLACK
  6
CONTINUOUS
100
AcDbLine
 10
7.2115083464566929
 20
-7.2010871653543305
 30
0
 11
7.2115083464566929
 21
-7.2067114566929131
 31
0
  0
LINE
  5
391
330
1B
100
AcDbEntity
  8
BLACK
  6
CONTINUOUS
100
AcDbLine
 10
7.2115083464566929
 20
-7.2067114566929131
 30
0
 11
7.1833868503937008
 21
-7.2123357480314958
 31
0
  0
LINE
  5
392
330
1B
100
AcDbEntity
  8
BLACK
  6
CONTINUOUS
100
AcDbLine
 10
7.2283812204724409
 20
-7.1926507086614171
 30
0
 11
7.2508783858267716
 21
-7.1926507086614171
 31
0
  0
LINE
  5
393
330
1B
100
AcDbEntity
  8
BLACK
  6
CONTINUOUS
100
AcDbLine
 10
7.2368176377952755
 20
-7.1729656692913384
 30
0
 11
7.2368176377952755
 21
-7.2235843307086611
 31
0
  0
LINE
  5
394
330
1B
100
AcDbEntity
  8
BLACK
  6
CONTINUOUS
100
AcDbLine
 10
7.2368176377952755
 20
-7.2235843307086611
 30
0
 11
7.2396298031496062
 21
-7.2292086614173225
 31
0
  0
LINE
  5
395
330
1B
100
AcDbEntity
  8
BLACK
  6
CONTINUOUS
100
AcDbLine
 10
7.2396298031496062
 20
-7.2292086614173225
 30
0
 11
7.2452540944881889
 21
-7.2320207874015745
 31
0
  0
LINE
  5
396
330
1B
100
AcDbEntity
  8
BLACK
  6
CONTINUOUS
100
AcDbLine
 10
7.2452540944881889
 20
-7.2320207874015745
 30
0
 11
7.2508783858267716
 21
-7.2320207874015745
 31
0
  0
LINE
  5
397
330
1B
100
AcDbEntity
  8
BLACK
  6
CONTINUOUS
100
AcDbLine
 10
7.2705634251968503
 20
-7.2263964960629918
 30
0
 11
7.273375590551181
 21
-7.2292086614173225
 31
0
  0
LINE
  5
398
330
1B
100
AcDbEntity
  8
BLACK
  6
CONTINUOUS
100
AcDbLine
 10
7.273375590551181
 20
-7.2292086614173225
 30
0
 11
7.2705634251968503
 21
-7.2320207874015745
 31
0
  0
LINE
  5
399
330
1B
100
AcDbEntity
  8
BLACK
  6
CONTINUOUS
100
AcDbLine
 10
7.2705634251968503
 20
-7.2320207874015745
 30
0
 11
7.2677512992125983
 21
-7.2292086614173225
 31
0
  0
LINE
  5
39A
330
1B
100
AcDbEntity
  8
BLACK
  6
CONTINUOUS
100
AcDbLine
 10
7.2677512992125983
 20
-7.2292086614173225
 30
0
 11
7.2705634251968503
 21
-7.2263964960629918
 31
0
  0
LINE
  5
39B
330
1B
100
AcDbEntity
  8
BLACK
  6
CONTINUOUS
100
AcDbLine
 10
7.2705634251968503
 20
-7.2263964960629918
 30
0
 11
7.2705634251968503
 21
-7.2320207874015745
 31
0
  0
LINE
  5
39C
330
1B
100
AcDbEntity
  8
BLACK
  6
CONTINUOUS
100
AcDbLine
 10
7.2705634251968503
 20
-7.1954628740157478
 30
0
 11
7.273375590551181
 21
-7.1982749999999998
 31
0
  0
LINE
  5
39D
330
1B
100
AcDbEntity
  8
BLACK
  6
CONTINUOUS
100
AcDbLine
 10
7.273375590551181
 20
-7.1982749999999998
 30
0
 11
7.2705634251968503
 21
-7.2010871653543305
 31
0
  0
LINE
  5
39E
330
1B
100
AcDbEntity
  8
BLACK
  6
CONTINUOUS
100
AcDbLine
 10
7.2705634251968503
 20
-7.2010871653543305
 30
0
 11
7.2677512992125983
 21
-7.1982749999999998
 31
0
  0
LINE
  5
39F
330
1B
100
AcDbEntity
  8
BLACK
  6
CONTINUOUS
100
AcDbLine
 10
7.2677512992125983
 20
-7.1982749999999998
 30
0
 11
7.2705634251968503
 21
-7.1954628740157478
 31
0
  0
LINE
  5
3A0
330
1B
100
AcDbEntity
  8
BLACK
  6
CONTINUOUS
100
AcDbLine
 10
7.2705634251968503
 20
-7.1954628740157478
 30
0
 11
7.2705634251968503
 21
-7.2010871653543305
 31
0
  0
LINE
  5
3A1
330
1B
100
AcDbEntity
  8
BLACK
  6
CONTINUOUS
100
AcDbLine
 10
7.7559921259842515
 20
-7.5396535433070868
 30
0
 11
7.7559921259842515
 21
-7.657763779527559
 31
0
  0
LINE
  5
3A2
330
1B
100
AcDbEntity
  8
BLACK
  6
CONTINUOUS
100
AcDbLine
 10
10.2756771653543311
 20
-7.5396535433070868
 30
0
 11
10.2756771653543311
 21
-7.79555905511811
 31
0
  0
LINE
  5
3A3
330
1B
100
AcDbEntity
  8
Edge.Cuts
  6
CONTINUOUS
100
AcDbLine
 10
7.4015748031496065
 20
-1.514763779527559
 30
0
 11
7.4140235826771654
 21
-1.5154161811023621
 31
0
  0
LINE
  5
3A4
330
1B
100
AcDbEntity
  8
Edge.Cuts
  6
CONTINUOUS
100
AcDbLine
 10
7.4140235826771654
 20
-1.5154161811023621
 30
0
 11
7.42633594488189
 21
-1.5173662992125985
 31
0
  0
LINE
  5
3A5
330
1B
100
AcDbEntity
  8
Edge.Cuts
  6
CONTINUOUS
100
AcDbLine
 10
7.42633594488189
 20
-1.5173662992125985
 30
0
 11
7.4383770078740152
 21
-1.5205926771653544
 31
0
  0
LINE
  5
3A6
330
1B
100
AcDbEntity
  8
Edge.Cuts
  6
CONTINUOUS
100
AcDbLine
 10
7.4383770078740152
 20
-1.5205926771653544
 30
0
 11
7.4500148818897634
 21
-1.5250600393700786
 31
0
  0
LINE
  5
3A7
330
1B
100
AcDbEntity
  8
Edge.Cuts
  6
CONTINUOUS
100
AcDbLine
 10
7.4500148818897634
 20
-1.5250600393700786
 30
0
 11
7.4611220472440944
 21
-1.5307194488188975
 31
0
  0
LINE
  5
3A8
330
1B
100
AcDbEntity
  8
Edge.Cuts
  6
CONTINUOUS
100
AcDbLine
 10
7.4611220472440944
 20
-1.5307194488188975
 30
0
 11
7.4715767716535435
 21
-1.5375088188976378
 31
0
  0
LINE
  5
3A9
330
1B
100
AcDbEntity
  8
Edge.Cuts
  6
CONTINUOUS
100
AcDbLine
 10
7.4715767716535435
 20
-1.5375088188976378
 30
0
 11
7.4812645669291333
 21
-1.5453538188976377
 31
0
  0
LINE
  5
3AA
330
1B
100
AcDbEntity
  8
Edge.Cuts
  6
CONTINUOUS
100
AcDbLine
 10
7.4812645669291333
 20
-1.5453538188976377
 30
0
 11
7.4900792519685035
 21
-1.5541685039370079
 31
0
  0
LINE
  5
3AB
330
1B
100
AcDbEntity
  8
Edge.Cuts
  6
CONTINUOUS
100
AcDbLine
 10
7.4900792519685035
 20
-1.5541685039370079
 30
0
 11
7.4979242519685041
 21
-1.5638562992125984
 31
0
  0
LINE
  5
3AC
330
1B
100
AcDbEntity
  8
Edge.Cuts
  6
CONTINUOUS
100
AcDbLine
 10
7.4979242519685041
 20
-1.5638562992125984
 30
0
 11
7.5047136220472437
 21
-1.5743110236220472
 31
0
  0
LINE
  5
3AD
330
1B
100
AcDbEntity
  8
Edge.Cuts
  6
CONTINUOUS
100
AcDbLine
 10
7.5047136220472437
 20
-1.5743110236220472
 30
0
 11
7.5103730314960631
 21
-1.5854181889763779
 31
0
  0
LINE
  5
3AE
330
1B
100
AcDbEntity
  8
Edge.Cuts
  6
CONTINUOUS
100
AcDbLine
 10
7.5103730314960631
 20
-1.5854181889763779
 30
0
 11
7.514840393700787
 21
-1.597056062992126
 31
0
  0
LINE
  5
3AF
330
1B
100
AcDbEntity
  8
Edge.Cuts
  6
CONTINUOUS
100
AcDbLine
 10
7.514840393700787
 20
-1.597056062992126
 30
0
 11
7.518066771653543
 21
-1.6090971259842519
 31
0
  0
LINE
  5
3B0
330
1B
100
AcDbEntity
  8
Edge.Cuts
  6
CONTINUOUS
100
AcDbLine
 10
7.518066771653543
 20
-1.6090971259842519
 30
0
 11
7.5200168897637791
 21
-1.6214094881889762
 31
0
  0
LINE
  5
3B1
330
1B
100
AcDbEntity
  8
Edge.Cuts
  6
CONTINUOUS
100
AcDbLine
 10
7.5200168897637791
 20
-1.6214094881889762
 30
0
 11
7.5206692913385824
 21
-1.6338582677165354
 31
0
  0
LINE
  5
3B2
330
1B
100
AcDbEntity
  8
Edge.Cuts
  6
CONTINUOUS
100
AcDbLine
 10
7.5206692913385824
 20
-1.6338582677165354
 30
0
 11
7.5206692913385824
 21
-5.3346456692913389
 31
0
  0
LINE
  5
3B3
330
1B
100
AcDbEntity
  8
Edge.Cuts
  6
CONTINUOUS
100
AcDbLine
 10
7.5206692913385824
 20
-5.3346456692913389
 30
0
 11
7.5200168897637791
 21
-5.3470944488188978
 31
0
  0
LINE
  5
3B4
330
1B
100
AcDbEntity
  8
Edge.Cuts
  6
CONTINUOUS
100
AcDbLine
 10
7.5200168897637791
 20
-5.3470944488188978
 30
0
 11
7.518066771653543
 21
-5.3594068110236215
 31
0
  0
LINE
  5
3B5
330
1B
100
AcDbEntity
  8
Edge.Cuts
  6
CONTINUOUS
100
AcDbLine
 10
7.518066771653543
 20
-5.3594068110236215
 30
0
 11
7.514840393700787
 21
-5.3714478740157476
 31
0
  0
LINE
  5
3B6
330
1B
100
AcDbEntity
  8
Edge.Cuts
  6
CONTINUOUS
100
AcDbLine
 10
7.514840393700787
 20
-5.3714478740157476
 30
0
 11
7.5103730314960631
 21
-5.3830857480314958
 31
0
  0
LINE
  5
3B7
330
1B
100
AcDbEntity
  8
Edge.Cuts
  6
CONTINUOUS
100
AcDbLine
 10
7.5103730314960631
 20
-5.3830857480314958
 30
0
 11
7.5047136220472437
 21
-5.3941929133858268
 31
0
  0
LINE
  5
3B8
330
1B
100
AcDbEntity
  8
Edge.Cuts
  6
CONTINUOUS
100
AcDbLine
 10
7.5047136220472437
 20
-5.3941929133858268
 30
0
 11
7.4979242519685041
 21
-5.4046476377952759
 31
0
  0
LINE
  5
3B9
330
1B
100
AcDbEntity
  8
Edge.Cuts
  6
CONTINUOUS
100
AcDbLine
 10
7.4979242519685041
 20
-5.4046476377952759
 30
0
 11
7.4900792519685035
 21
-5.4143354330708657
 31
0
  0
LINE
  5
3BA
330
1B
100
AcDbEntity
  8
Edge.Cuts
  6
CONTINUOUS
100
AcDbLine
 10
7.4900792519685035
 20
-5.4143354330708657
 30
0
 11
7.4812645669291333
 21
-5.423150118110236
 31
0
  0
LINE
  5
3BB
330
1B
100
AcDbEntity
  8
Edge.Cuts
  6
CONTINUOUS
100
AcDbLine
 10
7.4812645669291333
 20
-5.423150118110236
 30
0
 11
7.4715767716535435
 21
-5.4309951181102365
 31
0
  0
LINE
  5
3BC
330
1B
100
AcDbEntity
  8
Edge.Cuts
  6
CONTINUOUS
100
AcDbLine
 10
7.4715767716535435
 20
-5.4309951181102365
 30
0
 11
7.4611220472440944
 21
-5.4377844881889761
 31
0
  0
LINE
  5
3BD
330
1B
100
AcDbEntity
  8
Edge.Cuts
  6
CONTINUOUS
100
AcDbLine
 10
7.4611220472440944
 20
-5.4377844881889761
 30
0
 11
7.4500148818897634
 21
-5.4434438976377955
 31
0
  0
LINE
  5
3BE
330
1B
100
AcDbEntity
  8
Edge.Cuts
  6
CONTINUOUS
100
AcDbLine
 10
7.4500148818897634
 20
-5.4434438976377955
 30
0
 11
7.4383770078740152
 21
-5.4479112598425194
 31
0
  0
LINE
  5
3BF
330
1B
100
AcDbEntity
  8
Edge.Cuts
  6
CONTINUOUS
100
AcDbLine
 10
7.4383770078740152
 20
-5.4479112598425194
 30
0
 11
7.42633594488189
 21
-5.4511376377952754
 31
0
  0
LINE
  5
3C0
330
1B
100
AcDbEntity
  8
Edge.Cuts
  6
CONTINUOUS
100
AcDbLine
 10
7.42633594488189
 20
-5.4511376377952754
 30
0
 11
7.4140235826771654
 21
-5.4530877559055115
 31
0
  0
LINE
  5
3C1
330
1B
100
AcDbEntity
  8
Edge.Cuts
  6
CONTINUOUS
100
AcDbLine
 10
7.4140235826771654
 20
-5.4530877559055115
 30
0
 11
7.4015748031496065
 21
-5.4537401574803148
 31
0
  0
LINE
  5
3C2
330
1B
100
AcDbEntity
  8
Edge.Cuts
  6
CONTINUOUS
100
AcDbLine
 10
7.4015748031496065
 20
-5.4537401574803148
 30
0
 11
3.484251968503937
 21
-5.4537401574803148
 31
0
  0
LINE
  5
3C3
330
1B
100
AcDbEntity
  8
Edge.Cuts
  6
CONTINUOUS
100
AcDbLine
 10
3.484251968503937
 20
-5.4537401574803148
 30
0
 11
3.4718031889763781
 21
-5.4530877559055115
 31
0
  0
LINE
  5
3C4
330
1B
100
AcDbEntity
  8
Edge.Cuts
  6
CONTINUOUS
100
AcDbLine
 10
3.4718031889763781
 20
-5.4530877559055115
 30
0
 11
3.4594908267716535
 21
-5.4511376377952754
 31
0
  0
LINE
  5
3C5
330
1B
100
AcDbEntity
  8
Edge.Cuts
  6
CONTINUOUS
100
AcDbLine
 10
3.4594908267716535
 20
-5.4511376377952754
 30
0
 11
3.4474497637795274
 21
-5.4479112598425194
 31
0
  0
LINE
  5
3C6
330
1B
100
AcDbEntity
  8
Edge.Cuts
  6
CONTINUOUS
100
AcDbLine
 10
3.4474497637795274
 20
-5.4479112598425194
 30
0
 11
3.4358118897637793
 21
-5.4434438976377955
 31
0
  0
LINE
  5
3C7
330
1B
100
AcDbEntity
  8
Edge.Cuts
  6
CONTINUOUS
100
AcDbLine
 10
3.4358118897637793
 20
-5.4434438976377955
 30
0
 11
3.4247047244094486
 21
-5.4377844881889761
 31
0
  0
LINE
  5
3C8
330
1B
100
AcDbEntity
  8
Edge.Cuts
  6
CONTINUOUS
100
AcDbLine
 10
3.4247047244094486
 20
-5.4377844881889761
 30
0
 11
3.41425
 21
-5.4309951181102365
 31
0
  0
LINE
  5
3C9
330
1B
100
AcDbEntity
  8
Edge.Cuts
  6
CONTINUOUS
100
AcDbLine
 10
3.41425
 20
-5.4309951181102365
 30
0
 11
3.4045622047244093
 21
-5.423150118110236
 31
0
  0
LINE
  5
3CA
330
1B
100
AcDbEntity
  8
Edge.Cuts
  6
CONTINUOUS
100
AcDbLine
 10
3.4045622047244093
 20
-5.423150118110236
 30
0
 11
3.3957475196850391
 21
-5.4143354330708657
 31
0
  0
LINE
  5
3CB
330
1B
100
AcDbEntity
  8
Edge.Cuts
  6
CONTINUOUS
100
AcDbLine
 10
3.3957475196850391
 20
-5.4143354330708657
 30
0
 11
3.3879025196850394
 21
-5.4046476377952759
 31
0
  0
LINE
  5
3CC
330
1B
100
AcDbEntity
  8
Edge.Cuts
  6
CONTINUOUS
100
AcDbLine
 10
3.3879025196850394
 20
-5.4046476377952759
 30
0
 11
3.3811131496062989
 21
-5.3941929133858268
 31
0
  0
LINE
  5
3CD
330
1B
100
AcDbEntity
  8
Edge.Cuts
  6
CONTINUOUS
100
AcDbLine
 10
3.3811131496062989
 20
-5.3941929133858268
 30
0
 11
3.3754537401574805
 21
-5.3830857480314958
 31
0
  0
LINE
  5
3CE
330
1B
100
AcDbEntity
  8
Edge.Cuts
  6
CONTINUOUS
100
AcDbLine
 10
3.3754537401574805
 20
-5.3830857480314958
 30
0
 11
3.370986377952756
 21
-5.3714478740157476
 31
0
  0
LINE
  5
3CF
330
1B
100
AcDbEntity
  8
Edge.Cuts
  6
CONTINUOUS
100
AcDbLine
 10
3.370986377952756
 20
-5.3714478740157476
 30
0
 11
3.3677600000000001
 21
-5.3594068110236215
 31
0
  0
LINE
  5
3D0
330
1B
100
AcDbEntity
  8
Edge.Cuts
  6
CONTINUOUS
100
AcDbLine
 10
3.3677600000000001
 20
-5.3594068110236215
 30
0
 11
3.3658098818897635
 21
-5.3470944488188978
 31
0
  0
LINE
  5
3D1
330
1B
100
AcDbEntity
  8
Edge.Cuts
  6
CONTINUOUS
100
AcDbLine
 10
3.3658098818897635
 20
-5.3470944488188978
 30
0
 11
3.3651574803149606
 21
-5.3346456692913389
 31
0
  0
LINE
  5
3D2
330
1B
100
AcDbEntity
  8
Edge.Cuts
  6
CONTINUOUS
100
AcDbLine
 10
3.3651574803149606
 20
-5.3346456692913389
 30
0
 11
3.3651574803149606
 21
-1.6338582677165354
 31
0
  0
LINE
  5
3D3
330
1B
100
AcDbEntity
  8
Edge.Cuts
  6
CONTINUOUS
100
AcDbLine
 10
3.3651574803149606
 20
-1.6338582677165354
 30
0
 11
3.3658098818897635
 21
-1.6214094881889762
 31
0
  0
LINE
  5
3D4
330
1B
100
AcDbEntity
  8
Edge.Cuts
  6
CONTINUOUS
100
AcDbLine
 10
3.3658098818897635
 20
-1.6214094881889762
 30
0
 11
3.3677600000000001
 21
-1.6090971259842519
 31
0
  0
LINE
  5
3D5
330
1B
100
AcDbEntity
  8
Edge.Cuts
  6
CONTINUOUS
100
AcDbLine
 10
3.3677600000000001
 20
-1.6090971259842519
 30
0
 11
3.370986377952756
 21
-1.597056062992126
 31
0
  0
LINE
  5
3D6
330
1B
100
AcDbEntity
  8
Edge.Cuts
  6
CONTINUOUS
100
AcDbLine
 10
3.370986377952756
 20
-1.597056062992126
 30
0
 11
3.3754537401574805
 21
-1.5854181889763779
 31
0
  0
LINE
  5
3D7
330
1B
100
AcDbEntity
  8
Edge.Cuts
  6
CONTINUOUS
100
AcDbLine
 10
3.3754537401574805
 20
-1.5854181889763779
 30
0
 11
3.3811131496062989
 21
-1.5743110236220472
 31
0
  0
LINE
  5
3D8
330
1B
100
AcDbEntity
  8
Edge.Cuts
  6
CONTINUOUS
100
AcDbLine
 10
3.3811131496062989
 20
-1.5743110236220472
 30
0
 11
3.3879025196850394
 21
-1.5638562992125984
 31
0
  0
LINE
  5
3D9
330
1B
100
AcDbEntity
  8
Edge.Cuts
  6
CONTINUOUS
100
AcDbLine
 10
3.3879025196850394
 20
-1.5638562992125984
 30
0
 11
3.3957475196850391
 21
-1.5541685039370079
 31
0
  0
LINE
  5
3DA
330
1B
100
AcDbEntity
  8
Edge.Cuts
  6
CONTINUOUS
100
AcDbLine
 10
3.3957475196850391
 20
-1.5541685039370079
 30
0
 11
3.4045622047244093
 21
-1.5453538188976377
 31
0
  0
LINE
  5
3DB
330
1B
100
AcDbEntity
  8
Edge.Cuts
  6
CONTINUOUS
100
AcDbLine
 10
3.4045622047244093
 20
-1.5453538188976377
 30
0
 11
3.41425
 21
-1.5375088188976378
 31
0
  0
LINE
  5
3DC
330
1B
100
AcDbEntity
  8
Edge.Cuts
  6
CONTINUOUS
100
AcDbLine
 10
3.41425
 20
-1.5375088188976378
 30
0
 11
3.4247047244094486
 21
-1.5307194488188975
 31
0
  0
LINE
  5
3DD
330
1B
100
AcDbEntity
  8
Edge.Cuts
  6
CONTINUOUS
100
AcDbLine
 10
3.4247047244094486
 20
-1.5307194488188975
 30
0
 11
3.4358118897637793
 21
-1.5250600393700786
 31
0
  0
LINE
  5
3DE
330
1B
100
AcDbEntity
  8
Edge.Cuts
  6
CONTINUOUS
100
AcDbLine
 10
3.4358118897637793
 20
-1.5250600393700786
 30
0
 11
3.4474497637795274
 21
-1.5205926771653544
 31
0
  0
LINE
  5
3DF
330
1B
100
AcDbEntity
  8
Edge.Cuts
  6
CONTINUOUS
100
AcDbLine
 10
3.4474497637795274
 20
-1.5205926771653544
 30
0
 11
3.4594908267716535
 21
-1.5173662992125985
 31
0
  0
LINE
  5
3E0
330
1B
100
AcDbEntity
  8
Edge.Cuts
  6
CONTINUOUS
100
AcDbLine
 10
3.4594908267716535
 20
-1.5173662992125985
 30
0
 11
3.4718031889763781
 21
-1.5154161811023621
 31
0
  0
LINE
  5
3E1
330
1B
100
AcDbEntity
  8
Edge.Cuts
  6
CONTINUOUS
100
AcDbLine
 10
3.4718031889763781
 20
-1.5154161811023621
 30
0
 11
3.484251968503937
 21
-1.514763779527559
 31
0
  0
LINE
  5
3E2
330
1B
100
AcDbEntity
  8
Edge.Cuts
  6
CONTINUOUS
100
AcDbLine
 10
3.484251968503937
 20
-1.514763779527559
 30
0
 11
7.4015748031496065
 21
-1.514763779527559
 31
0
  0
LINE
  5
3E3
330
1B
100
AcDbEntity
  8
Edge.Cuts
  6
CONTINUOUS
100
AcDbLine
 10
3.484251968503937
 20
-1.5167322834645669
 30
0
 11
3.4781136614173227
 21
-1.5167322834645669
 31
0
  0
LINE
  5
3E4
330
1B
100
AcDbEntity
  8
Edge.Cuts
  6
CONTINUOUS
100
AcDbLine
 10
3.4781136614173227
 20
-1.5167322834645669
 30
0
 11
3.4659042913385827
 21
-1.5180155511811024
 31
0
  0
LINE
  5
3E5
330
1B
100
AcDbEntity
  8
Edge.Cuts
  6
CONTINUOUS
100
AcDbLine
 10
3.4659042913385827
 20
-1.5180155511811024
 30
0
 11
3.4538959448818898
 21
-1.5205679921259843
 31
0
  0
LINE
  5
3E6
330
1B
100
AcDbEntity
  8
Edge.Cuts
  6
CONTINUOUS
100
AcDbLine
 10
3.4538959448818898
 20
-1.5205679921259843
 30
0
 11
3.4422201574803148
 21
-1.5243616929133859
 31
0
  0
LINE
  5
3E7
330
1B
100
AcDbEntity
  8
Edge.Cuts
  6
CONTINUOUS
100
AcDbLine
 10
3.4422201574803148
 20
-1.5243616929133859
 30
0
 11
3.4310049212598424
 21
-1.5293550393700788
 31
0
  0
LINE
  5
3E8
330
1B
100
AcDbEntity
  8
Edge.Cuts
  6
CONTINUOUS
100
AcDbLine
 10
3.4310049212598424
 20
-1.5293550393700788
 30
0
 11
3.4203730314960628
 21
-1.5354933464566929
 31
0
  0
LINE
  5
3E9
330
1B
100
AcDbEntity
  8
Edge.Cuts
  6
CONTINUOUS
100
AcDbLine
 10
3.4203730314960628
 20
-1.5354933464566929
 30
0
 11
3.4104410629921258
 21
-1.5427093700787402
 31
0
  0
LINE
  5
3EA
330
1B
100
AcDbEntity
  8
Edge.Cuts
  6
CONTINUOUS
100
AcDbLine
 10
3.4104410629921258
 20
-1.5427093700787402
 30
0
 11
3.4013177559055117
 21
-1.5509240551181103
 31
0
  0
LINE
  5
3EB
330
1B
100
AcDbEntity
  8
Edge.Cuts
  6
CONTINUOUS
100
AcDbLine
 10
3.4013177559055117
 20
-1.5509240551181103
 30
0
 11
3.3931030708661418
 21
-1.5600473622047244
 31
0
  0
LINE
  5
3EC
330
1B
100
AcDbEntity
  8
Edge.Cuts
  6
CONTINUOUS
100
AcDbLine
 10
3.3931030708661418
 20
-1.5600473622047244
 30
0
 11
3.3858870472440943
 21
-1.5699793307086614
 31
0
  0
LINE
  5
3ED
330
1B
100
AcDbEntity
  8
Edge.Cuts
  6
CONTINUOUS
100
AcDbLine
 10
3.3858870472440943
 20
-1.5699793307086614
 30
0
 11
3.3797487401574804
 21
-1.580611220472441
 31
0
  0
LINE
  5
3EE
330
1B
100
AcDbEntity
  8
Edge.Cuts
  6
CONTINUOUS
100
AcDbLine
 10
3.3797487401574804
 20
-1.580611220472441
 30
0
 11
3.3747553937007875
 21
-1.5918264566929134
 31
0
  0
LINE
  5
3EF
330
1B
100
AcDbEntity
  8
Edge.Cuts
  6
CONTINUOUS
100
AcDbLine
 10
3.3747553937007875
 20
-1.5918264566929134
 30
0
 11
3.3709616929133857
 21
-1.6035022440944882
 31
0
  0
LINE
  5
3F0
330
1B
100
AcDbEntity
  8
Edge.Cuts
  6
CONTINUOUS
100
AcDbLine
 10
3.3709616929133857
 20
-1.6035022440944882
 30
0
 11
3.368409251968504
 21
-1.6155105905511811
 31
0
  0
LINE
  5
3F1
330
1B
100
AcDbEntity
  8
Edge.Cuts
  6
CONTINUOUS
100
AcDbLine
 10
3.368409251968504
 20
-1.6155105905511811
 30
0
 11
3.3671259842519685
 21
-1.6277199606299213
 31
0
  0
LINE
  5
3F2
330
1B
100
AcDbEntity
  8
Edge.Cuts
  6
CONTINUOUS
100
AcDbLine
 10
3.3671259842519685
 20
-1.6277199606299213
 30
0
 11
3.3671259842519685
 21
-1.6338582677165354
 31
0
  0
LINE
  5
3F3
330
1B
100
AcDbEntity
  8
Edge.Cuts
  6
CONTINUOUS
100
AcDbLine
 10
3.3671259842519685
 20
-1.6338582677165354
 30
0
 11
3.3671259842519685
 21
-5.3346456692913389
 31
0
  0
LINE
  5
3F4
330
1B
100
AcDbEntity
  8
Edge.Cuts
  6
CONTINUOUS
100
AcDbLine
 10
3.3671259842519685
 20
-5.3346456692913389
 30
0
 11
3.3671259842519685
 21
-5.3407839763779528
 31
0
  0
LINE
  5
3F5
330
1B
100
AcDbEntity
  8
Edge.Cuts
  6
CONTINUOUS
100
AcDbLine
 10
3.3671259842519685
 20
-5.3407839763779528
 30
0
 11
3.368409251968504
 21
-5.3529933464566932
 31
0
  0
LINE
  5
3F6
330
1B
100
AcDbEntity
  8
Edge.Cuts
  6
CONTINUOUS
100
AcDbLine
 10
3.368409251968504
 20
-5.3529933464566932
 30
0
 11
3.3709616929133857
 21
-5.3650016929133857
 31
0
  0
LINE
  5
3F7
330
1B
100
AcDbEntity
  8
Edge.Cuts
  6
CONTINUOUS
100
AcDbLine
 10
3.3709616929133857
 20
-5.3650016929133857
 30
0
 11
3.3747553937007875
 21
-5.3766774803149602
 31
0
  0
LINE
  5
3F8
330
1B
100
AcDbEntity
  8
Edge.Cuts
  6
CONTINUOUS
100
AcDbLine
 10
3.3747553937007875
 20
-5.3766774803149602
 30
0
 11
3.3797487401574804
 21
-5.3878927165354327
 31
0
  0
LINE
  5
3F9
330
1B
100
AcDbEntity
  8
Edge.Cuts
  6
CONTINUOUS
100
AcDbLine
 10
3.3797487401574804
 20
-5.3878927165354327
 30
0
 11
3.3858870472440943
 21
-5.3985246062992127
 31
0
  0
LINE
  5
3FA
330
1B
100
AcDbEntity
  8
Edge.Cuts
  6
CONTINUOUS
100
AcDbLine
 10
3.3858870472440943
 20
-5.3985246062992127
 30
0
 11
3.3931030708661418
 21
-5.4084565748031492
 31
0
  0
LINE
  5
3FB
330
1B
100
AcDbEntity
  8
Edge.Cuts
  6
CONTINUOUS
100
AcDbLine
 10
3.3931030708661418
 20
-5.4084565748031492
 30
0
 11
3.4013177559055117
 21
-5.4175798818897638
 31
0
  0
LINE
  5
3FC
330
1B
100
AcDbEntity
  8
Edge.Cuts
  6
CONTINUOUS
100
AcDbLine
 10
3.4013177559055117
 20
-5.4175798818897638
 30
0
 11
3.4104410629921258
 21
-5.4257945669291336
 31
0
  0
LINE
  5
3FD
330
1B
100
AcDbEntity
  8
Edge.Cuts
  6
CONTINUOUS
100
AcDbLine
 10
3.4104410629921258
 20
-5.4257945669291336
 30
0
 11
3.4203730314960628
 21
-5.4330105905511807
 31
0
  0
LINE
  5
3FE
330
1B
100
AcDbEntity
  8
Edge.Cuts
  6
CONTINUOUS
100
AcDbLine
 10
3.4203730314960628
 20
-5.4330105905511807
 30
0
 11
3.4310049212598424
 21
-5.4391488976377955
 31
0
  0
LINE
  5
3FF
330
1B
100
AcDbEntity
  8
Edge.Cuts
  6
CONTINUOUS
100
AcDbLine
 10
3.4310049212598424
 20
-5.4391488976377955
 30
0
 11
3.4422201574803148
 21
-5.444142244094488
 31
0
  0
LINE
  5
400
330
1B
100
AcDbEntity
  8
Edge.Cuts
  6
CONTINUOUS
100
AcDbLine
 10
3.4422201574803148
 20
-5.444142244094488
 30
0
 11
3.4538959448818898
 21
-5.4479359448818894
 31
0
  0
LINE
  5
401
330
1B
100
AcDbEntity
  8
Edge.Cuts
  6
CONTINUOUS
100
AcDbLine
 10
3.4538959448818898
 20
-5.4479359448818894
 30
0
 11
3.4659042913385827
 21
-5.4504883858267714
 31
0
  0
LINE
  5
402
330
1B
100
AcDbEntity
  8
Edge.Cuts
  6
CONTINUOUS
100
AcDbLine
 10
3.4659042913385827
 20
-5.4504883858267714
 30
0
 11
3.4781136614173227
 21
-5.4517716535433074
 31
0
  0
LINE
  5
403
330
1B
100
AcDbEntity
  8
Edge.Cuts
  6
CONTINUOUS
100
AcDbLine
 10
3.4781136614173227
 20
-5.4517716535433074
 30
0
 11
3.484251968503937
 21
-5.4517716535433074
 31
0
  0
LINE
  5
404
330
1B
100
AcDbEntity
  8
Edge.Cuts
  6
CONTINUOUS
100
AcDbLine
 10
3.484251968503937
 20
-5.4517716535433074
 30
0
 11
7.4015748031496065
 21
-5.4517716535433074
 31
0
  0
LINE
  5
405
330
1B
100
AcDbEntity
  8
Edge.Cuts
  6
CONTINUOUS
100
AcDbLine
 10
7.4015748031496065
 20
-5.4517716535433074
 30
0
 11
7.4077131102362204
 21
-5.4517716535433074
 31
0
  0
LINE
  5
406
330
1B
100
AcDbEntity
  8
Edge.Cuts
  6
CONTINUOUS
100
AcDbLine
 10
7.4077131102362204
 20
-5.4517716535433074
 30
0
 11
7.4199224803149608
 21
-5.4504883858267714
 31
0
  0
LINE
  5
407
330
1B
100
AcDbEntity
  8
Edge.Cuts
  6
CONTINUOUS
100
AcDbLine
 10
7.4199224803149608
 20
-5.4504883858267714
 30
0
 11
7.4319308267716533
 21
-5.4479359448818894
 31
0
  0
LINE
  5
408
330
1B
100
AcDbEntity
  8
Edge.Cuts
  6
CONTINUOUS
100
AcDbLine
 10
7.4319308267716533
 20
-5.4479359448818894
 30
0
 11
7.4436066141732278
 21
-5.444142244094488
 31
0
  0
LINE
  5
409
330
1B
100
AcDbEntity
  8
Edge.Cuts
  6
CONTINUOUS
100
AcDbLine
 10
7.4436066141732278
 20
-5.444142244094488
 30
0
 11
7.4548218503937003
 21
-5.4391488976377955
 31
0
  0
LINE
  5
40A
330
1B
100
AcDbEntity
  8
Edge.Cuts
  6
CONTINUOUS
100
AcDbLine
 10
7.4548218503937003
 20
-5.4391488976377955
 30
0
 11
7.4654537401574803
 21
-5.4330105905511807
 31
0
  0
LINE
  5
40B
330
1B
100
AcDbEntity
  8
Edge.Cuts
  6
CONTINUOUS
100
AcDbLine
 10
7.4654537401574803
 20
-5.4330105905511807
 30
0
 11
7.4753857086614168
 21
-5.4257945669291336
 31
0
  0
LINE
  5
40C
330
1B
100
AcDbEntity
  8
Edge.Cuts
  6
CONTINUOUS
100
AcDbLine
 10
7.4753857086614168
 20
-5.4257945669291336
 30
0
 11
7.4845090157480314
 21
-5.4175798818897638
 31
0
  0
LINE
  5
40D
330
1B
100
AcDbEntity
  8
Edge.Cuts
  6
CONTINUOUS
100
AcDbLine
 10
7.4845090157480314
 20
-5.4175798818897638
 30
0
 11
7.4927237007874012
 21
-5.4084565748031492
 31
0
  0
LINE
  5
40E
330
1B
100
AcDbEntity
  8
Edge.Cuts
  6
CONTINUOUS
100
AcDbLine
 10
7.4927237007874012
 20
-5.4084565748031492
 30
0
 11
7.4999397244094483
 21
-5.3985246062992127
 31
0
  0
LINE
  5
40F
330
1B
100
AcDbEntity
  8
Edge.Cuts
  6
CONTINUOUS
100
AcDbLine
 10
7.4999397244094483
 20
-5.3985246062992127
 30
0
 11
7.5060780314960631
 21
-5.3878927165354327
 31
0
  0
LINE
  5
410
330
1B
100
AcDbEntity
  8
Edge.Cuts
  6
CONTINUOUS
100
AcDbLine
 10
7.5060780314960631
 20
-5.3878927165354327
 30
0
 11
7.5110713779527556
 21
-5.3766774803149602
 31
0
  0
LINE
  5
411
330
1B
100
AcDbEntity
  8
Edge.Cuts
  6
CONTINUOUS
100
AcDbLine
 10
7.5110713779527556
 20
-5.3766774803149602
 30
0
 11
7.514865078740157
 21
-5.3650016929133857
 31
0
  0
LINE
  5
412
330
1B
100
AcDbEntity
  8
Edge.Cuts
  6
CONTINUOUS
100
AcDbLine
 10
7.514865078740157
 20
-5.3650016929133857
 30
0
 11
7.517417519685039
 21
-5.3529933464566932
 31
0
  0
LINE
  5
413
330
1B
100
AcDbEntity
  8
Edge.Cuts
  6
CONTINUOUS
100
AcDbLine
 10
7.517417519685039
 20
-5.3529933464566932
 30
0
 11
7.518700787401575
 21
-5.3407839763779528
 31
0
  0
LINE
  5
414
330
1B
100
AcDbEntity
  8
Edge.Cuts
  6
CONTINUOUS
100
AcDbLine
 10
7.518700787401575
 20
-5.3407839763779528
 30
0
 11
7.518700787401575
 21
-5.3346456692913389
 31
0
  0
LINE
  5
415
330
1B
100
AcDbEntity
  8
Edge.Cuts
  6
CONTINUOUS
100
AcDbLine
 10
7.518700787401575
 20
-5.3346456692913389
 30
0
 11
7.518700787401575
 21
-1.6338582677165354
 31
0
  0
LINE
  5
416
330
1B
100
AcDbEntity
  8
Edge.Cuts
  6
CONTINUOUS
100
AcDbLine
 10
7.518700787401575
 20
-1.6338582677165354
 30
0
 11
7.518700787401575
 21
-1.6277199606299213
 31
0
  0
LINE
  5
417
330
1B
100
AcDbEntity
  8
Edge.Cuts
  6
CONTINUOUS
100
AcDbLine
 10
7.518700787401575
 20
-1.6277199606299213
 30
0
 11
7.517417519685039
 21
-1.6155105905511811
 31
0
  0
LINE
  5
418
330
1B
100
AcDbEntity
  8
Edge.Cuts
  6
CONTINUOUS
100
AcDbLine
 10
7.517417519685039
 20
-1.6155105905511811
 30
0
 11
7.514865078740157
 21
-1.6035022440944882
 31
0
  0
LINE
  5
419
330
1B
100
AcDbEntity
  8
Edge.Cuts
  6
CONTINUOUS
100
AcDbLine
 10
7.514865078740157
 20
-1.6035022440944882
 30
0
 11
7.5110713779527556
 21
-1.5918264566929134
 31
0
  0
LINE
  5
41A
330
1B
100
AcDbEntity
  8
Edge.Cuts
  6
CONTINUOUS
100
AcDbLine
 10
7.5110713779527556
 20
-1.5918264566929134
 30
0
 11
7.5060780314960631
 21
-1.580611220472441
 31
0
  0
LINE
  5
41B
330
1B
100
AcDbEntity
  8
Edge.Cuts
  6
CONTINUOUS
100
AcDbLine
 10
7.5060780314960631
 20
-1.580611220472441
 30
0
 11
7.4999397244094483
 21
-1.5699793307086614
 31
0
  0
LINE
  5
41C
330
1B
100
AcDbEntity
  8
Edge.Cuts
  6
CONTINUOUS
100
AcDbLine
 10
7.4999397244094483
 20
-1.5699793307086614
 30
0
 11
7.4927237007874012
 21
-1.5600473622047244
 31
0
  0
LINE
  5
41D
330
1B
100
AcDbEntity
  8
Edge.Cuts
  6
CONTINUOUS
100
AcDbLine
 10
7.4927237007874012
 20
-1.5600473622047244
 30
0
 11
7.4845090157480314
 21
-1.5509240551181103
 31
0
  0
LINE
  5
41E
330
1B
100
AcDbEntity
  8
Edge.Cuts
  6
CONTINUOUS
100
AcDbLine
 10
7.4845090157480314
 20
-1.5509240551181103
 30
0
 11
7.4753857086614168
 21
-1.5427093700787402
 31
0
  0
LINE
  5
41F
330
1B
100
AcDbEntity
  8
Edge.Cuts
  6
CONTINUOUS
100
AcDbLine
 10
7.4753857086614168
 20
-1.5427093700787402
 30
0
 11
7.4654537401574803
 21
-1.5354933464566929
 31
0
  0
LINE
  5
420
330
1B
100
AcDbEntity
  8
Edge.Cuts
  6
CONTINUOUS
100
AcDbLine
 10
7.4654537401574803
 20
-1.5354933464566929
 30
0
 11
7.4548218503937003
 21
-1.5293550393700788
 31
0
  0
LINE
  5
421
330
1B
100
AcDbEntity
  8
Edge.Cuts
  6
CONTINUOUS
100
AcDbLine
 10
7.4548218503937003
 20
-1.5293550393700788
 30
0
 11
7.4436066141732278
 21
-1.5243616929133859
 31
0
  0
LINE
  5
422
330
1B
100
AcDbEntity
  8
Edge.Cuts
  6
CONTINUOUS
100
AcDbLine
 10
7.4436066141732278
 20
-1.5243616929133859
 30
0
 11
7.4319308267716533
 21
-1.5205679921259843
 31
0
  0
LINE
  5
423
330
1B
100
AcDbEntity
  8
Edge.Cuts
  6
CONTINUOUS
100
AcDbLine
 10
7.4319308267716533
 20
-1.5205679921259843
 30
0
 11
7.4199224803149608
 21
-1.5180155511811024
 31
0
  0
LINE
  5
424
330
1B
100
AcDbEntity
  8
Edge.Cuts
  6
CONTINUOUS
100
AcDbLine
 10
7.4199224803149608
 20
-1.5180155511811024
 30
0
 11
7.4077131102362204
 21
-1.5167322834645669
 31
0
  0
LINE
  5
425
330
1B
100
AcDbEntity
  8
Edge.Cuts
  6
CONTINUOUS
100
AcDbLine
 10
7.4077131102362204
 20
-1.5167322834645669
 30
0
 11
7.4015748031496065
 21
-1.5167322834645669
 31
0
  0
LINE
  5
426
330
1B
100
AcDbEntity
  8
Edge.Cuts
  6
CONTINUOUS
100
AcDbLine
 10
7.4015748031496065
 20
-1.5167322834645669
 30
0
 11
3.484251968503937
 21
-1.5167322834645669
 31
0
  0
ENDSEC
  0
SECTION
  2
OBJECTS
  0
DICTIONARY
  5
21
330
0
100
AcDbDictionary
281
1
  3
ACAD_GROUP
350
427
  3
ACAD_LAYOUT
350
22
  3
ACAD_PLOTSTYLENAME
350
11
  0
DICTIONARY
  5
427
330
21
100
AcDbDictionary
281
1
  0
ACDBDICTIONARYWDFLT
  5
11
330
21
100
AcDbDictionary
281
1
  3
Normal
350
10
100
AcDbDictionaryWithDefault
340
10
  0
ACDBPLACEHOLDER
  5
10
330
11
  0
DICTIONARY
  5
22
330
21
100
AcDbDictionary
281
1
  3
Model
350
1E
  3
Layout1
350
1F
  3
Layout2
350
20
  0
LAYOUT
  5
1E
330
22
100
AcDbPlotSettings
  1

  2
none_device
  4
A3
  6

 40
0.0
 41
0.0
 42
0.0
 43
0.0
 44
420.0
 45
297.0
 46
0.0
 47
0.0
 48
0.0
 49
0.0
140
0.0
141
0.0
142
1.0
143
1.0
 70
1024
 72
1
 73
0
 74
5
  7

 75
16
 76
0
 77
2
 78
300
147
1.0
148
0.0
149
0.0
100
AcDbLayout
  1
Model
 70
1
 71
0
 10
0.0
 20
0.0
 11
420.0
 21
297.0
 12
0.0
 22
0.0
 32
0.0
 14
1e+20
 24
1e+20
 34
1e+20
 15
-1e+20
 25
-1e+20
 35
-1e+20
146
0.0
 13
0.0
 23
0.0
 33
0.0
 16
1.0
 26
0.0
 36
0.0
 17
0.0
 27
1.0
 37
0.0
 76
0
330
1B
  0
LAYOUT
  5
1F
330
22
100
AcDbPlotSettings
  1

  2
none_device
  4
A3
  6

 40
0.0
 41
0.0
 42
0.0
 43
0.0
 44
420.0
 45
297.0
 46
0.0
 47
0.0
 48
0.0
 49
0.0
140
0.0
141
0.0
142
1.0
143
1.0
 70
0
 72
1
 73
0
 74
5
  7

 75
16
 76
0
 77
2
 78
300
147
1.0
148
0.0
149
0.0
100
AcDbLayout
  1
Layout1
 70
1
 71
1
 10
0.0
 20
0.0
 11
420.0
 21
297.0
 12
0.0
 22
0.0
 32
0.0
 14
1e+20
 24
1e+20
 34
1e+20
 15
-1e+20
 25
-1e+20
 35
-1e+20
146
0.0
 13
0.0
 23
0.0
 33
0.0
 16
1.0
 26
0.0
 36
0.0
 17
0.0
 27
1.0
 37
0.0
 76
0
330
1C
  0
LAYOUT
  5
20
330
22
100
AcDbPlotSettings
  1

  2
none_device
  4
A3
  6

 40
0.0
 41
0.0
 42
0.0
 43
0.0
 44
420.0
 45
297.0
 46
0.0
 47
0.0
 48
0.0
 49
0.0
140
0.0
141
0.0
142
1.0
143
1.0
 70
0
 72
1
 73
0
 74
5
  7

 75
16
 76
0
 77
2
 78
300
147
1.0
148
0.0
149
0.0
100
AcDbLayout
  1
Layout2
 70
1
 71
2
 10
0.0
 20
0.0
 11
420.0
 21
297.0
 12
0.0
 22
0.0
 32
0.0
 14
1e+20
 24
1e+20
 34
1e+20
 15
-1e+20
 25
-1e+20
 35
-1e+20
146
0.0
 13
0.0
 23
0.0
 33
0.0
 16
1.0
 26
0.0
 36
0.0
 17
0.0
 27
1.0
 37
0.0
 76
0
330
1D
  0
ENDSEC
  0
EOF
