%TF.GenerationSoftware,KiCad,Pcbnew,10.0.6*%
%TF.CreationDate,2026-09-26T23:00:09+01:00*%
%TF.ProjectId,DAQ_V1.1,4441515f-5631-42e3-912e-6b696361645f,rev?*%
%TF.SameCoordinates,Original*%
%TF.FileFunction,Legend,Bot*%
%TF.FilePolarity,Positive*%
%FSLAX46Y46*%
G04 Gerber Fmt 4.6, Leading zero omitted, Abs format (unit mm)*
G04 Created by KiCad (PCBNEW 10.0.6) date 2026-09-26 23:00:09*
%MOMM*%
%LPD*%
G01*
G04 APERTURE LIST*
%ADD10C,0.100000*%
%ADD11C,0.200000*%
G04 APERTURE END LIST*
D10*
X188541353Y-54171371D02*
X188541353Y-53571371D01*
X188541353Y-53571371D02*
X188398496Y-53571371D01*
X188398496Y-53571371D02*
X188312782Y-53599942D01*
X188312782Y-53599942D02*
X188255639Y-53657085D01*
X188255639Y-53657085D02*
X188227068Y-53714228D01*
X188227068Y-53714228D02*
X188198496Y-53828514D01*
X188198496Y-53828514D02*
X188198496Y-53914228D01*
X188198496Y-53914228D02*
X188227068Y-54028514D01*
X188227068Y-54028514D02*
X188255639Y-54085657D01*
X188255639Y-54085657D02*
X188312782Y-54142800D01*
X188312782Y-54142800D02*
X188398496Y-54171371D01*
X188398496Y-54171371D02*
X188541353Y-54171371D01*
X187712782Y-54142800D02*
X187769925Y-54171371D01*
X187769925Y-54171371D02*
X187884211Y-54171371D01*
X187884211Y-54171371D02*
X187941353Y-54142800D01*
X187941353Y-54142800D02*
X187969925Y-54085657D01*
X187969925Y-54085657D02*
X187969925Y-53857085D01*
X187969925Y-53857085D02*
X187941353Y-53799942D01*
X187941353Y-53799942D02*
X187884211Y-53771371D01*
X187884211Y-53771371D02*
X187769925Y-53771371D01*
X187769925Y-53771371D02*
X187712782Y-53799942D01*
X187712782Y-53799942D02*
X187684211Y-53857085D01*
X187684211Y-53857085D02*
X187684211Y-53914228D01*
X187684211Y-53914228D02*
X187969925Y-53971371D01*
X187455639Y-54142800D02*
X187398496Y-54171371D01*
X187398496Y-54171371D02*
X187284210Y-54171371D01*
X187284210Y-54171371D02*
X187227067Y-54142800D01*
X187227067Y-54142800D02*
X187198496Y-54085657D01*
X187198496Y-54085657D02*
X187198496Y-54057085D01*
X187198496Y-54057085D02*
X187227067Y-53999942D01*
X187227067Y-53999942D02*
X187284210Y-53971371D01*
X187284210Y-53971371D02*
X187369925Y-53971371D01*
X187369925Y-53971371D02*
X187427067Y-53942800D01*
X187427067Y-53942800D02*
X187455639Y-53885657D01*
X187455639Y-53885657D02*
X187455639Y-53857085D01*
X187455639Y-53857085D02*
X187427067Y-53799942D01*
X187427067Y-53799942D02*
X187369925Y-53771371D01*
X187369925Y-53771371D02*
X187284210Y-53771371D01*
X187284210Y-53771371D02*
X187227067Y-53799942D01*
X186941353Y-54171371D02*
X186941353Y-53771371D01*
X186941353Y-53571371D02*
X186969925Y-53599942D01*
X186969925Y-53599942D02*
X186941353Y-53628514D01*
X186941353Y-53628514D02*
X186912782Y-53599942D01*
X186912782Y-53599942D02*
X186941353Y-53571371D01*
X186941353Y-53571371D02*
X186941353Y-53628514D01*
X186398497Y-53771371D02*
X186398497Y-54257085D01*
X186398497Y-54257085D02*
X186427068Y-54314228D01*
X186427068Y-54314228D02*
X186455639Y-54342800D01*
X186455639Y-54342800D02*
X186512782Y-54371371D01*
X186512782Y-54371371D02*
X186598497Y-54371371D01*
X186598497Y-54371371D02*
X186655639Y-54342800D01*
X186398497Y-54142800D02*
X186455639Y-54171371D01*
X186455639Y-54171371D02*
X186569925Y-54171371D01*
X186569925Y-54171371D02*
X186627068Y-54142800D01*
X186627068Y-54142800D02*
X186655639Y-54114228D01*
X186655639Y-54114228D02*
X186684211Y-54057085D01*
X186684211Y-54057085D02*
X186684211Y-53885657D01*
X186684211Y-53885657D02*
X186655639Y-53828514D01*
X186655639Y-53828514D02*
X186627068Y-53799942D01*
X186627068Y-53799942D02*
X186569925Y-53771371D01*
X186569925Y-53771371D02*
X186455639Y-53771371D01*
X186455639Y-53771371D02*
X186398497Y-53799942D01*
X186112782Y-53771371D02*
X186112782Y-54171371D01*
X186112782Y-53828514D02*
X186084211Y-53799942D01*
X186084211Y-53799942D02*
X186027068Y-53771371D01*
X186027068Y-53771371D02*
X185941354Y-53771371D01*
X185941354Y-53771371D02*
X185884211Y-53799942D01*
X185884211Y-53799942D02*
X185855640Y-53857085D01*
X185855640Y-53857085D02*
X185855640Y-54171371D01*
X185341354Y-54142800D02*
X185398497Y-54171371D01*
X185398497Y-54171371D02*
X185512783Y-54171371D01*
X185512783Y-54171371D02*
X185569925Y-54142800D01*
X185569925Y-54142800D02*
X185598497Y-54085657D01*
X185598497Y-54085657D02*
X185598497Y-53857085D01*
X185598497Y-53857085D02*
X185569925Y-53799942D01*
X185569925Y-53799942D02*
X185512783Y-53771371D01*
X185512783Y-53771371D02*
X185398497Y-53771371D01*
X185398497Y-53771371D02*
X185341354Y-53799942D01*
X185341354Y-53799942D02*
X185312783Y-53857085D01*
X185312783Y-53857085D02*
X185312783Y-53914228D01*
X185312783Y-53914228D02*
X185598497Y-53971371D01*
X184798497Y-54171371D02*
X184798497Y-53571371D01*
X184798497Y-54142800D02*
X184855639Y-54171371D01*
X184855639Y-54171371D02*
X184969925Y-54171371D01*
X184969925Y-54171371D02*
X185027068Y-54142800D01*
X185027068Y-54142800D02*
X185055639Y-54114228D01*
X185055639Y-54114228D02*
X185084211Y-54057085D01*
X185084211Y-54057085D02*
X185084211Y-53885657D01*
X185084211Y-53885657D02*
X185055639Y-53828514D01*
X185055639Y-53828514D02*
X185027068Y-53799942D01*
X185027068Y-53799942D02*
X184969925Y-53771371D01*
X184969925Y-53771371D02*
X184855639Y-53771371D01*
X184855639Y-53771371D02*
X184798497Y-53799942D01*
X184055639Y-54171371D02*
X184055639Y-53571371D01*
X184055639Y-53799942D02*
X183998497Y-53771371D01*
X183998497Y-53771371D02*
X183884211Y-53771371D01*
X183884211Y-53771371D02*
X183827068Y-53799942D01*
X183827068Y-53799942D02*
X183798497Y-53828514D01*
X183798497Y-53828514D02*
X183769925Y-53885657D01*
X183769925Y-53885657D02*
X183769925Y-54057085D01*
X183769925Y-54057085D02*
X183798497Y-54114228D01*
X183798497Y-54114228D02*
X183827068Y-54142800D01*
X183827068Y-54142800D02*
X183884211Y-54171371D01*
X183884211Y-54171371D02*
X183998497Y-54171371D01*
X183998497Y-54171371D02*
X184055639Y-54142800D01*
X183569925Y-53771371D02*
X183427068Y-54171371D01*
X183284211Y-53771371D02*
X183427068Y-54171371D01*
X183427068Y-54171371D02*
X183484211Y-54314228D01*
X183484211Y-54314228D02*
X183512782Y-54342800D01*
X183512782Y-54342800D02*
X183569925Y-54371371D01*
X182312782Y-54171371D02*
X182598496Y-54171371D01*
X182598496Y-54171371D02*
X182598496Y-53571371D01*
X181884211Y-54142800D02*
X181941354Y-54171371D01*
X181941354Y-54171371D02*
X182055640Y-54171371D01*
X182055640Y-54171371D02*
X182112782Y-54142800D01*
X182112782Y-54142800D02*
X182141354Y-54085657D01*
X182141354Y-54085657D02*
X182141354Y-53857085D01*
X182141354Y-53857085D02*
X182112782Y-53799942D01*
X182112782Y-53799942D02*
X182055640Y-53771371D01*
X182055640Y-53771371D02*
X181941354Y-53771371D01*
X181941354Y-53771371D02*
X181884211Y-53799942D01*
X181884211Y-53799942D02*
X181855640Y-53857085D01*
X181855640Y-53857085D02*
X181855640Y-53914228D01*
X181855640Y-53914228D02*
X182141354Y-53971371D01*
X181512782Y-54171371D02*
X181569925Y-54142800D01*
X181569925Y-54142800D02*
X181598496Y-54114228D01*
X181598496Y-54114228D02*
X181627068Y-54057085D01*
X181627068Y-54057085D02*
X181627068Y-53885657D01*
X181627068Y-53885657D02*
X181598496Y-53828514D01*
X181598496Y-53828514D02*
X181569925Y-53799942D01*
X181569925Y-53799942D02*
X181512782Y-53771371D01*
X181512782Y-53771371D02*
X181427068Y-53771371D01*
X181427068Y-53771371D02*
X181369925Y-53799942D01*
X181369925Y-53799942D02*
X181341354Y-53828514D01*
X181341354Y-53828514D02*
X181312782Y-53885657D01*
X181312782Y-53885657D02*
X181312782Y-54057085D01*
X181312782Y-54057085D02*
X181341354Y-54114228D01*
X181341354Y-54114228D02*
X181369925Y-54142800D01*
X181369925Y-54142800D02*
X181427068Y-54171371D01*
X181427068Y-54171371D02*
X181512782Y-54171371D01*
X180655639Y-53571371D02*
X180512782Y-54171371D01*
X180512782Y-54171371D02*
X180398496Y-53742800D01*
X180398496Y-53742800D02*
X180284211Y-54171371D01*
X180284211Y-54171371D02*
X180141354Y-53571371D01*
X179827068Y-54171371D02*
X179884211Y-54142800D01*
X179884211Y-54142800D02*
X179912782Y-54114228D01*
X179912782Y-54114228D02*
X179941354Y-54057085D01*
X179941354Y-54057085D02*
X179941354Y-53885657D01*
X179941354Y-53885657D02*
X179912782Y-53828514D01*
X179912782Y-53828514D02*
X179884211Y-53799942D01*
X179884211Y-53799942D02*
X179827068Y-53771371D01*
X179827068Y-53771371D02*
X179741354Y-53771371D01*
X179741354Y-53771371D02*
X179684211Y-53799942D01*
X179684211Y-53799942D02*
X179655640Y-53828514D01*
X179655640Y-53828514D02*
X179627068Y-53885657D01*
X179627068Y-53885657D02*
X179627068Y-54057085D01*
X179627068Y-54057085D02*
X179655640Y-54114228D01*
X179655640Y-54114228D02*
X179684211Y-54142800D01*
X179684211Y-54142800D02*
X179741354Y-54171371D01*
X179741354Y-54171371D02*
X179827068Y-54171371D01*
X179369925Y-53771371D02*
X179369925Y-54171371D01*
X179369925Y-53828514D02*
X179341354Y-53799942D01*
X179341354Y-53799942D02*
X179284211Y-53771371D01*
X179284211Y-53771371D02*
X179198497Y-53771371D01*
X179198497Y-53771371D02*
X179141354Y-53799942D01*
X179141354Y-53799942D02*
X179112783Y-53857085D01*
X179112783Y-53857085D02*
X179112783Y-54171371D01*
X178569926Y-53771371D02*
X178569926Y-54257085D01*
X178569926Y-54257085D02*
X178598497Y-54314228D01*
X178598497Y-54314228D02*
X178627068Y-54342800D01*
X178627068Y-54342800D02*
X178684211Y-54371371D01*
X178684211Y-54371371D02*
X178769926Y-54371371D01*
X178769926Y-54371371D02*
X178827068Y-54342800D01*
X178569926Y-54142800D02*
X178627068Y-54171371D01*
X178627068Y-54171371D02*
X178741354Y-54171371D01*
X178741354Y-54171371D02*
X178798497Y-54142800D01*
X178798497Y-54142800D02*
X178827068Y-54114228D01*
X178827068Y-54114228D02*
X178855640Y-54057085D01*
X178855640Y-54057085D02*
X178855640Y-53885657D01*
X178855640Y-53885657D02*
X178827068Y-53828514D01*
X178827068Y-53828514D02*
X178798497Y-53799942D01*
X178798497Y-53799942D02*
X178741354Y-53771371D01*
X178741354Y-53771371D02*
X178627068Y-53771371D01*
X178627068Y-53771371D02*
X178569926Y-53799942D01*
D11*
X188487469Y-48929712D02*
X188201755Y-49024950D01*
X188201755Y-49024950D02*
X187725564Y-49024950D01*
X187725564Y-49024950D02*
X187535088Y-48929712D01*
X187535088Y-48929712D02*
X187439850Y-48834473D01*
X187439850Y-48834473D02*
X187344612Y-48643997D01*
X187344612Y-48643997D02*
X187344612Y-48453521D01*
X187344612Y-48453521D02*
X187439850Y-48263045D01*
X187439850Y-48263045D02*
X187535088Y-48167807D01*
X187535088Y-48167807D02*
X187725564Y-48072569D01*
X187725564Y-48072569D02*
X188106517Y-47977331D01*
X188106517Y-47977331D02*
X188296993Y-47882092D01*
X188296993Y-47882092D02*
X188392231Y-47786854D01*
X188392231Y-47786854D02*
X188487469Y-47596378D01*
X188487469Y-47596378D02*
X188487469Y-47405902D01*
X188487469Y-47405902D02*
X188392231Y-47215426D01*
X188392231Y-47215426D02*
X188296993Y-47120188D01*
X188296993Y-47120188D02*
X188106517Y-47024950D01*
X188106517Y-47024950D02*
X187630326Y-47024950D01*
X187630326Y-47024950D02*
X187344612Y-47120188D01*
X186487469Y-49024950D02*
X186487469Y-47024950D01*
X186487469Y-47977331D02*
X185344612Y-47977331D01*
X185344612Y-49024950D02*
X185344612Y-47024950D01*
X184392231Y-49024950D02*
X184392231Y-47024950D01*
X182773183Y-47977331D02*
X183439850Y-47977331D01*
X183439850Y-49024950D02*
X183439850Y-47024950D01*
X183439850Y-47024950D02*
X182487469Y-47024950D01*
X181725564Y-47024950D02*
X181725564Y-48643997D01*
X181725564Y-48643997D02*
X181630326Y-48834473D01*
X181630326Y-48834473D02*
X181535088Y-48929712D01*
X181535088Y-48929712D02*
X181344612Y-49024950D01*
X181344612Y-49024950D02*
X180963659Y-49024950D01*
X180963659Y-49024950D02*
X180773183Y-48929712D01*
X180773183Y-48929712D02*
X180677945Y-48834473D01*
X180677945Y-48834473D02*
X180582707Y-48643997D01*
X180582707Y-48643997D02*
X180582707Y-47024950D01*
X178392230Y-47024950D02*
X177725564Y-49024950D01*
X177725564Y-49024950D02*
X177058897Y-47024950D01*
X175344611Y-49024950D02*
X176487468Y-49024950D01*
X175916040Y-49024950D02*
X175916040Y-47024950D01*
X175916040Y-47024950D02*
X176106516Y-47310664D01*
X176106516Y-47310664D02*
X176296992Y-47501140D01*
X176296992Y-47501140D02*
X176487468Y-47596378D01*
X188487469Y-52149600D02*
X188201755Y-52244838D01*
X188201755Y-52244838D02*
X187725564Y-52244838D01*
X187725564Y-52244838D02*
X187535088Y-52149600D01*
X187535088Y-52149600D02*
X187439850Y-52054361D01*
X187439850Y-52054361D02*
X187344612Y-51863885D01*
X187344612Y-51863885D02*
X187344612Y-51673409D01*
X187344612Y-51673409D02*
X187439850Y-51482933D01*
X187439850Y-51482933D02*
X187535088Y-51387695D01*
X187535088Y-51387695D02*
X187725564Y-51292457D01*
X187725564Y-51292457D02*
X188106517Y-51197219D01*
X188106517Y-51197219D02*
X188296993Y-51101980D01*
X188296993Y-51101980D02*
X188392231Y-51006742D01*
X188392231Y-51006742D02*
X188487469Y-50816266D01*
X188487469Y-50816266D02*
X188487469Y-50625790D01*
X188487469Y-50625790D02*
X188392231Y-50435314D01*
X188392231Y-50435314D02*
X188296993Y-50340076D01*
X188296993Y-50340076D02*
X188106517Y-50244838D01*
X188106517Y-50244838D02*
X187630326Y-50244838D01*
X187630326Y-50244838D02*
X187344612Y-50340076D01*
X185725564Y-52149600D02*
X185916040Y-52244838D01*
X185916040Y-52244838D02*
X186296993Y-52244838D01*
X186296993Y-52244838D02*
X186487469Y-52149600D01*
X186487469Y-52149600D02*
X186582707Y-51959123D01*
X186582707Y-51959123D02*
X186582707Y-51197219D01*
X186582707Y-51197219D02*
X186487469Y-51006742D01*
X186487469Y-51006742D02*
X186296993Y-50911504D01*
X186296993Y-50911504D02*
X185916040Y-50911504D01*
X185916040Y-50911504D02*
X185725564Y-51006742D01*
X185725564Y-51006742D02*
X185630326Y-51197219D01*
X185630326Y-51197219D02*
X185630326Y-51387695D01*
X185630326Y-51387695D02*
X186582707Y-51578171D01*
X184773183Y-50911504D02*
X184773183Y-52244838D01*
X184773183Y-51101980D02*
X184677945Y-51006742D01*
X184677945Y-51006742D02*
X184487469Y-50911504D01*
X184487469Y-50911504D02*
X184201754Y-50911504D01*
X184201754Y-50911504D02*
X184011278Y-51006742D01*
X184011278Y-51006742D02*
X183916040Y-51197219D01*
X183916040Y-51197219D02*
X183916040Y-52244838D01*
X183058897Y-52149600D02*
X182868421Y-52244838D01*
X182868421Y-52244838D02*
X182487469Y-52244838D01*
X182487469Y-52244838D02*
X182296992Y-52149600D01*
X182296992Y-52149600D02*
X182201754Y-51959123D01*
X182201754Y-51959123D02*
X182201754Y-51863885D01*
X182201754Y-51863885D02*
X182296992Y-51673409D01*
X182296992Y-51673409D02*
X182487469Y-51578171D01*
X182487469Y-51578171D02*
X182773183Y-51578171D01*
X182773183Y-51578171D02*
X182963659Y-51482933D01*
X182963659Y-51482933D02*
X183058897Y-51292457D01*
X183058897Y-51292457D02*
X183058897Y-51197219D01*
X183058897Y-51197219D02*
X182963659Y-51006742D01*
X182963659Y-51006742D02*
X182773183Y-50911504D01*
X182773183Y-50911504D02*
X182487469Y-50911504D01*
X182487469Y-50911504D02*
X182296992Y-51006742D01*
X181344611Y-52244838D02*
X181344611Y-50911504D01*
X181344611Y-50244838D02*
X181439849Y-50340076D01*
X181439849Y-50340076D02*
X181344611Y-50435314D01*
X181344611Y-50435314D02*
X181249373Y-50340076D01*
X181249373Y-50340076D02*
X181344611Y-50244838D01*
X181344611Y-50244838D02*
X181344611Y-50435314D01*
X180392230Y-50911504D02*
X180392230Y-52244838D01*
X180392230Y-51101980D02*
X180296992Y-51006742D01*
X180296992Y-51006742D02*
X180106516Y-50911504D01*
X180106516Y-50911504D02*
X179820801Y-50911504D01*
X179820801Y-50911504D02*
X179630325Y-51006742D01*
X179630325Y-51006742D02*
X179535087Y-51197219D01*
X179535087Y-51197219D02*
X179535087Y-52244838D01*
X177725563Y-50911504D02*
X177725563Y-52530552D01*
X177725563Y-52530552D02*
X177820801Y-52721028D01*
X177820801Y-52721028D02*
X177916039Y-52816266D01*
X177916039Y-52816266D02*
X178106516Y-52911504D01*
X178106516Y-52911504D02*
X178392230Y-52911504D01*
X178392230Y-52911504D02*
X178582706Y-52816266D01*
X177725563Y-52149600D02*
X177916039Y-52244838D01*
X177916039Y-52244838D02*
X178296992Y-52244838D01*
X178296992Y-52244838D02*
X178487468Y-52149600D01*
X178487468Y-52149600D02*
X178582706Y-52054361D01*
X178582706Y-52054361D02*
X178677944Y-51863885D01*
X178677944Y-51863885D02*
X178677944Y-51292457D01*
X178677944Y-51292457D02*
X178582706Y-51101980D01*
X178582706Y-51101980D02*
X178487468Y-51006742D01*
X178487468Y-51006742D02*
X178296992Y-50911504D01*
X178296992Y-50911504D02*
X177916039Y-50911504D01*
X177916039Y-50911504D02*
X177725563Y-51006742D01*
X175249372Y-52244838D02*
X175249372Y-50244838D01*
X175249372Y-51197219D02*
X174106515Y-51197219D01*
X174106515Y-52244838D02*
X174106515Y-50244838D01*
X172392229Y-52149600D02*
X172582705Y-52244838D01*
X172582705Y-52244838D02*
X172963658Y-52244838D01*
X172963658Y-52244838D02*
X173154134Y-52149600D01*
X173154134Y-52149600D02*
X173249372Y-51959123D01*
X173249372Y-51959123D02*
X173249372Y-51197219D01*
X173249372Y-51197219D02*
X173154134Y-51006742D01*
X173154134Y-51006742D02*
X172963658Y-50911504D01*
X172963658Y-50911504D02*
X172582705Y-50911504D01*
X172582705Y-50911504D02*
X172392229Y-51006742D01*
X172392229Y-51006742D02*
X172296991Y-51197219D01*
X172296991Y-51197219D02*
X172296991Y-51387695D01*
X172296991Y-51387695D02*
X173249372Y-51578171D01*
X170582705Y-52244838D02*
X170582705Y-51197219D01*
X170582705Y-51197219D02*
X170677943Y-51006742D01*
X170677943Y-51006742D02*
X170868419Y-50911504D01*
X170868419Y-50911504D02*
X171249372Y-50911504D01*
X171249372Y-50911504D02*
X171439848Y-51006742D01*
X170582705Y-52149600D02*
X170773181Y-52244838D01*
X170773181Y-52244838D02*
X171249372Y-52244838D01*
X171249372Y-52244838D02*
X171439848Y-52149600D01*
X171439848Y-52149600D02*
X171535086Y-51959123D01*
X171535086Y-51959123D02*
X171535086Y-51768647D01*
X171535086Y-51768647D02*
X171439848Y-51578171D01*
X171439848Y-51578171D02*
X171249372Y-51482933D01*
X171249372Y-51482933D02*
X170773181Y-51482933D01*
X170773181Y-51482933D02*
X170582705Y-51387695D01*
X169916038Y-50911504D02*
X169154134Y-50911504D01*
X169630324Y-50244838D02*
X169630324Y-51959123D01*
X169630324Y-51959123D02*
X169535086Y-52149600D01*
X169535086Y-52149600D02*
X169344610Y-52244838D01*
X169344610Y-52244838D02*
X169154134Y-52244838D01*
X165344609Y-52244838D02*
X165439848Y-52244838D01*
X165439848Y-52244838D02*
X165630324Y-52149600D01*
X165630324Y-52149600D02*
X165916038Y-51863885D01*
X165916038Y-51863885D02*
X166392228Y-51292457D01*
X166392228Y-51292457D02*
X166582705Y-51006742D01*
X166582705Y-51006742D02*
X166677943Y-50721028D01*
X166677943Y-50721028D02*
X166677943Y-50530552D01*
X166677943Y-50530552D02*
X166582705Y-50340076D01*
X166582705Y-50340076D02*
X166392228Y-50244838D01*
X166392228Y-50244838D02*
X166296990Y-50244838D01*
X166296990Y-50244838D02*
X166106514Y-50340076D01*
X166106514Y-50340076D02*
X166011276Y-50530552D01*
X166011276Y-50530552D02*
X166011276Y-50625790D01*
X166011276Y-50625790D02*
X166106514Y-50816266D01*
X166106514Y-50816266D02*
X166201752Y-50911504D01*
X166201752Y-50911504D02*
X166773181Y-51292457D01*
X166773181Y-51292457D02*
X166868419Y-51387695D01*
X166868419Y-51387695D02*
X166963657Y-51578171D01*
X166963657Y-51578171D02*
X166963657Y-51863885D01*
X166963657Y-51863885D02*
X166868419Y-52054361D01*
X166868419Y-52054361D02*
X166773181Y-52149600D01*
X166773181Y-52149600D02*
X166582705Y-52244838D01*
X166582705Y-52244838D02*
X166296990Y-52244838D01*
X166296990Y-52244838D02*
X166106514Y-52149600D01*
X166106514Y-52149600D02*
X166011276Y-52054361D01*
X166011276Y-52054361D02*
X165725562Y-51673409D01*
X165725562Y-51673409D02*
X165630324Y-51387695D01*
X165630324Y-51387695D02*
X165630324Y-51197219D01*
X162963657Y-52244838D02*
X162963657Y-50244838D01*
X162011276Y-50911504D02*
X162011276Y-52244838D01*
X162011276Y-51101980D02*
X161916038Y-51006742D01*
X161916038Y-51006742D02*
X161725562Y-50911504D01*
X161725562Y-50911504D02*
X161439847Y-50911504D01*
X161439847Y-50911504D02*
X161249371Y-51006742D01*
X161249371Y-51006742D02*
X161154133Y-51197219D01*
X161154133Y-51197219D02*
X161154133Y-52244838D01*
X160487466Y-50911504D02*
X159725562Y-50911504D01*
X160201752Y-50244838D02*
X160201752Y-51959123D01*
X160201752Y-51959123D02*
X160106514Y-52149600D01*
X160106514Y-52149600D02*
X159916038Y-52244838D01*
X159916038Y-52244838D02*
X159725562Y-52244838D01*
X158296990Y-52149600D02*
X158487466Y-52244838D01*
X158487466Y-52244838D02*
X158868419Y-52244838D01*
X158868419Y-52244838D02*
X159058895Y-52149600D01*
X159058895Y-52149600D02*
X159154133Y-51959123D01*
X159154133Y-51959123D02*
X159154133Y-51197219D01*
X159154133Y-51197219D02*
X159058895Y-51006742D01*
X159058895Y-51006742D02*
X158868419Y-50911504D01*
X158868419Y-50911504D02*
X158487466Y-50911504D01*
X158487466Y-50911504D02*
X158296990Y-51006742D01*
X158296990Y-51006742D02*
X158201752Y-51197219D01*
X158201752Y-51197219D02*
X158201752Y-51387695D01*
X158201752Y-51387695D02*
X159154133Y-51578171D01*
X157344609Y-50911504D02*
X157344609Y-52244838D01*
X157344609Y-51101980D02*
X157249371Y-51006742D01*
X157249371Y-51006742D02*
X157058895Y-50911504D01*
X157058895Y-50911504D02*
X156773180Y-50911504D01*
X156773180Y-50911504D02*
X156582704Y-51006742D01*
X156582704Y-51006742D02*
X156487466Y-51197219D01*
X156487466Y-51197219D02*
X156487466Y-52244838D01*
X155630323Y-52149600D02*
X155439847Y-52244838D01*
X155439847Y-52244838D02*
X155058895Y-52244838D01*
X155058895Y-52244838D02*
X154868418Y-52149600D01*
X154868418Y-52149600D02*
X154773180Y-51959123D01*
X154773180Y-51959123D02*
X154773180Y-51863885D01*
X154773180Y-51863885D02*
X154868418Y-51673409D01*
X154868418Y-51673409D02*
X155058895Y-51578171D01*
X155058895Y-51578171D02*
X155344609Y-51578171D01*
X155344609Y-51578171D02*
X155535085Y-51482933D01*
X155535085Y-51482933D02*
X155630323Y-51292457D01*
X155630323Y-51292457D02*
X155630323Y-51197219D01*
X155630323Y-51197219D02*
X155535085Y-51006742D01*
X155535085Y-51006742D02*
X155344609Y-50911504D01*
X155344609Y-50911504D02*
X155058895Y-50911504D01*
X155058895Y-50911504D02*
X154868418Y-51006742D01*
X153154132Y-52149600D02*
X153344608Y-52244838D01*
X153344608Y-52244838D02*
X153725561Y-52244838D01*
X153725561Y-52244838D02*
X153916037Y-52149600D01*
X153916037Y-52149600D02*
X154011275Y-51959123D01*
X154011275Y-51959123D02*
X154011275Y-51197219D01*
X154011275Y-51197219D02*
X153916037Y-51006742D01*
X153916037Y-51006742D02*
X153725561Y-50911504D01*
X153725561Y-50911504D02*
X153344608Y-50911504D01*
X153344608Y-50911504D02*
X153154132Y-51006742D01*
X153154132Y-51006742D02*
X153058894Y-51197219D01*
X153058894Y-51197219D02*
X153058894Y-51387695D01*
X153058894Y-51387695D02*
X154011275Y-51578171D01*
X150011274Y-51197219D02*
X150677941Y-51197219D01*
X150677941Y-52244838D02*
X150677941Y-50244838D01*
X150677941Y-50244838D02*
X149725560Y-50244838D01*
X148677941Y-52244838D02*
X148868417Y-52149600D01*
X148868417Y-52149600D02*
X148963655Y-51959123D01*
X148963655Y-51959123D02*
X148963655Y-50244838D01*
X147058893Y-50911504D02*
X147058893Y-52244838D01*
X147916036Y-50911504D02*
X147916036Y-51959123D01*
X147916036Y-51959123D02*
X147820798Y-52149600D01*
X147820798Y-52149600D02*
X147630322Y-52244838D01*
X147630322Y-52244838D02*
X147344607Y-52244838D01*
X147344607Y-52244838D02*
X147154131Y-52149600D01*
X147154131Y-52149600D02*
X147058893Y-52054361D01*
X146106512Y-52244838D02*
X146106512Y-50911504D01*
X146106512Y-50244838D02*
X146201750Y-50340076D01*
X146201750Y-50340076D02*
X146106512Y-50435314D01*
X146106512Y-50435314D02*
X146011274Y-50340076D01*
X146011274Y-50340076D02*
X146106512Y-50244838D01*
X146106512Y-50244838D02*
X146106512Y-50435314D01*
X144296988Y-52244838D02*
X144296988Y-50244838D01*
X144296988Y-52149600D02*
X144487464Y-52244838D01*
X144487464Y-52244838D02*
X144868417Y-52244838D01*
X144868417Y-52244838D02*
X145058893Y-52149600D01*
X145058893Y-52149600D02*
X145154131Y-52054361D01*
X145154131Y-52054361D02*
X145249369Y-51863885D01*
X145249369Y-51863885D02*
X145249369Y-51292457D01*
X145249369Y-51292457D02*
X145154131Y-51101980D01*
X145154131Y-51101980D02*
X145058893Y-51006742D01*
X145058893Y-51006742D02*
X144868417Y-50911504D01*
X144868417Y-50911504D02*
X144487464Y-50911504D01*
X144487464Y-50911504D02*
X144296988Y-51006742D01*
X141820797Y-50244838D02*
X141820797Y-51863885D01*
X141820797Y-51863885D02*
X141725559Y-52054361D01*
X141725559Y-52054361D02*
X141630321Y-52149600D01*
X141630321Y-52149600D02*
X141439845Y-52244838D01*
X141439845Y-52244838D02*
X141058892Y-52244838D01*
X141058892Y-52244838D02*
X140868416Y-52149600D01*
X140868416Y-52149600D02*
X140773178Y-52054361D01*
X140773178Y-52054361D02*
X140677940Y-51863885D01*
X140677940Y-51863885D02*
X140677940Y-50244838D01*
X139725559Y-52244838D02*
X139725559Y-50244838D01*
X138868416Y-52244838D02*
X138868416Y-51197219D01*
X138868416Y-51197219D02*
X138963654Y-51006742D01*
X138963654Y-51006742D02*
X139154130Y-50911504D01*
X139154130Y-50911504D02*
X139439845Y-50911504D01*
X139439845Y-50911504D02*
X139630321Y-51006742D01*
X139630321Y-51006742D02*
X139725559Y-51101980D01*
X137916035Y-51482933D02*
X136392226Y-51482933D01*
X135154131Y-52244838D02*
X135344607Y-52149600D01*
X135344607Y-52149600D02*
X135439845Y-52054361D01*
X135439845Y-52054361D02*
X135535083Y-51863885D01*
X135535083Y-51863885D02*
X135535083Y-51292457D01*
X135535083Y-51292457D02*
X135439845Y-51101980D01*
X135439845Y-51101980D02*
X135344607Y-51006742D01*
X135344607Y-51006742D02*
X135154131Y-50911504D01*
X135154131Y-50911504D02*
X134868416Y-50911504D01*
X134868416Y-50911504D02*
X134677940Y-51006742D01*
X134677940Y-51006742D02*
X134582702Y-51101980D01*
X134582702Y-51101980D02*
X134487464Y-51292457D01*
X134487464Y-51292457D02*
X134487464Y-51863885D01*
X134487464Y-51863885D02*
X134582702Y-52054361D01*
X134582702Y-52054361D02*
X134677940Y-52149600D01*
X134677940Y-52149600D02*
X134868416Y-52244838D01*
X134868416Y-52244838D02*
X135154131Y-52244838D01*
X133630321Y-52244838D02*
X133630321Y-50244838D01*
X132773178Y-52244838D02*
X132773178Y-51197219D01*
X132773178Y-51197219D02*
X132868416Y-51006742D01*
X132868416Y-51006742D02*
X133058892Y-50911504D01*
X133058892Y-50911504D02*
X133344607Y-50911504D01*
X133344607Y-50911504D02*
X133535083Y-51006742D01*
X133535083Y-51006742D02*
X133630321Y-51101980D01*
X131916035Y-52149600D02*
X131725559Y-52244838D01*
X131725559Y-52244838D02*
X131344607Y-52244838D01*
X131344607Y-52244838D02*
X131154130Y-52149600D01*
X131154130Y-52149600D02*
X131058892Y-51959123D01*
X131058892Y-51959123D02*
X131058892Y-51863885D01*
X131058892Y-51863885D02*
X131154130Y-51673409D01*
X131154130Y-51673409D02*
X131344607Y-51578171D01*
X131344607Y-51578171D02*
X131630321Y-51578171D01*
X131630321Y-51578171D02*
X131820797Y-51482933D01*
X131820797Y-51482933D02*
X131916035Y-51292457D01*
X131916035Y-51292457D02*
X131916035Y-51197219D01*
X131916035Y-51197219D02*
X131820797Y-51006742D01*
X131820797Y-51006742D02*
X131630321Y-50911504D01*
X131630321Y-50911504D02*
X131344607Y-50911504D01*
X131344607Y-50911504D02*
X131154130Y-51006742D01*
M02*
