M48
; DRILL file KiCad 10.0.6 date 2026-09-26T23:00:21
; FORMAT={-:-/ absolute / metric / decimal}
; #@! TF.CreationDate,2026-09-26T23:00:21+01:00
; #@! TF.GenerationSoftware,Kicad,Pcbnew,10.0.6
; #@! TF.FileFunction,Plated,1,4,PTH
FMAT,2
METRIC
; #@! TA.AperFunction,Plated,PTH,ViaDrill
T1C0.300
; #@! TA.AperFunction,Plated,PTH,ComponentDrill
T2C0.800
; #@! TA.AperFunction,Plated,PTH,ComponentDrill
T3C1.000
; #@! TA.AperFunction,Plated,PTH,ComponentDrill
T4C1.016
; #@! TA.AperFunction,Plated,PTH,ComponentDrill
T5C1.200
; #@! TA.AperFunction,Plated,PTH,ComponentDrill
T6C2.500
%
G90
G05
T1
X89.35Y-48.35
X89.35Y-51.35
X89.35Y-54.35
X89.35Y-57.35
X89.35Y-63.35
X89.35Y-66.35
X89.35Y-69.35
X89.35Y-72.35
X89.35Y-75.35
X89.35Y-78.35
X89.35Y-81.35
X89.35Y-84.35
X89.35Y-123.35
X89.35Y-126.35
X89.35Y-129.35
X89.35Y-132.35
X89.35Y-135.35
X92.35Y-42.35
X92.35Y-45.35
X92.35Y-48.35
X92.35Y-51.35
X92.35Y-54.35
X92.35Y-57.35
X92.35Y-66.35
X92.35Y-69.35
X92.35Y-72.35
X92.35Y-75.35
X92.35Y-87.35
X92.35Y-99.35
X92.35Y-102.35
X92.35Y-105.35
X92.35Y-108.35
X92.35Y-111.35
X92.35Y-114.35
X92.35Y-117.35
X92.35Y-120.35
X92.35Y-135.35
X93.25Y-87.5
X93.25Y-90.75
X95.35Y-42.35
X95.35Y-45.35
X95.35Y-48.35
X95.35Y-51.35
X95.35Y-54.35
X95.35Y-57.35
X95.35Y-66.35
X95.35Y-69.35
X95.35Y-72.35
X95.35Y-75.35
X95.35Y-81.35
X95.35Y-87.35
X95.35Y-99.35
X95.35Y-102.35
X95.35Y-105.35
X95.35Y-108.35
X95.35Y-111.35
X95.35Y-114.35
X95.35Y-117.35
X95.35Y-120.35
X95.35Y-129.35
X95.35Y-135.35
X96.0Y-89.25
X98.35Y-42.35
X98.35Y-48.35
X98.35Y-51.35
X98.35Y-54.35
X98.35Y-66.35
X98.35Y-69.35
X98.35Y-72.35
X98.35Y-75.35
X98.35Y-78.35
X98.35Y-81.35
X98.35Y-84.35
X98.35Y-87.35
X98.35Y-90.35
X98.35Y-96.35
X98.35Y-99.35
X98.35Y-102.35
X98.35Y-105.35
X98.35Y-108.35
X98.35Y-111.35
X98.35Y-114.35
X98.35Y-117.35
X98.35Y-123.35
X98.35Y-126.35
X98.35Y-132.35
X98.35Y-135.35
X99.75Y-89.5
X101.35Y-42.35
X101.35Y-48.35
X101.35Y-51.35
X101.35Y-54.35
X101.35Y-69.35
X101.35Y-72.35
X101.35Y-75.35
X101.35Y-81.35
X101.35Y-87.35
X101.35Y-93.35
X101.35Y-99.35
X101.35Y-102.35
X101.35Y-105.35
X101.35Y-108.35
X101.35Y-111.35
X101.35Y-117.35
X101.35Y-120.35
X101.35Y-123.35
X101.35Y-126.35
X101.35Y-129.35
X101.35Y-135.35
X102.5Y-87.75
X102.5Y-91.0
X103.75Y-93.0
X103.75Y-97.0
X104.35Y-42.35
X104.35Y-45.35
X104.35Y-48.35
X104.35Y-51.35
X104.35Y-54.35
X104.35Y-69.35
X104.35Y-72.35
X104.35Y-75.35
X104.35Y-78.35
X104.35Y-87.35
X104.35Y-99.35
X104.35Y-102.35
X104.35Y-105.35
X104.35Y-108.35
X104.35Y-111.35
X104.35Y-114.35
X104.35Y-117.35
X104.35Y-123.35
X104.35Y-129.35
X105.25Y-89.5
X105.25Y-95.0
X106.82Y-96.881
X107.35Y-45.35
X107.35Y-48.35
X107.35Y-51.35
X107.35Y-54.35
X107.35Y-69.35
X107.35Y-72.35
X107.35Y-75.35
X107.35Y-78.35
X107.35Y-84.35
X107.35Y-87.35
X107.35Y-90.35
X107.35Y-99.35
X107.35Y-102.35
X107.35Y-105.35
X107.35Y-108.35
X107.35Y-111.35
X107.35Y-114.35
X107.35Y-117.35
X107.35Y-120.35
X107.35Y-123.35
X107.35Y-126.35
X107.35Y-129.35
X107.881Y-93.881
X108.0Y-61.25
X108.5Y-88.25
X110.35Y-45.35
X110.35Y-48.35
X110.35Y-51.35
X110.35Y-54.35
X110.35Y-69.35
X110.35Y-72.35
X110.35Y-75.35
X110.35Y-78.35
X110.35Y-84.35
X110.35Y-93.35
X110.35Y-96.35
X110.35Y-99.35
X110.35Y-102.35
X110.35Y-105.35
X110.35Y-108.35
X110.35Y-111.35
X110.35Y-114.35
X110.35Y-117.35
X110.35Y-120.35
X110.35Y-123.35
X110.35Y-129.35
X110.5Y-61.25
X112.25Y-85.5
X112.25Y-90.75
X113.35Y-48.35
X113.35Y-51.35
X113.35Y-54.35
X113.35Y-69.35
X113.35Y-72.35
X113.35Y-75.35
X113.35Y-78.35
X113.35Y-84.35
X113.35Y-93.35
X113.35Y-96.35
X113.35Y-99.35
X113.35Y-102.35
X113.35Y-105.35
X113.35Y-108.35
X113.35Y-111.35
X113.35Y-114.35
X113.35Y-117.35
X113.35Y-120.35
X113.35Y-126.35
X114.5Y-58.0
X115.75Y-88.25
X116.35Y-45.35
X116.35Y-48.35
X116.35Y-51.35
X116.35Y-54.35
X116.35Y-69.35
X116.35Y-72.35
X116.35Y-75.35
X116.35Y-78.35
X116.35Y-81.35
X116.35Y-84.35
X116.35Y-87.35
X116.35Y-90.35
X116.35Y-93.35
X116.35Y-96.35
X116.35Y-99.35
X116.35Y-102.35
X116.35Y-105.35
X116.35Y-108.35
X116.35Y-111.35
X116.35Y-117.35
X116.35Y-123.35
X116.35Y-129.35
X117.25Y-58.0
X119.35Y-42.35
X119.35Y-45.35
X119.35Y-48.35
X119.35Y-51.35
X119.35Y-54.35
X119.35Y-69.35
X119.35Y-72.35
X119.35Y-75.35
X119.35Y-78.35
X119.35Y-81.35
X119.35Y-84.35
X119.35Y-87.35
X119.35Y-90.35
X119.35Y-93.35
X119.35Y-96.35
X119.35Y-99.35
X119.35Y-102.35
X119.35Y-105.35
X119.35Y-108.35
X119.35Y-111.35
X119.35Y-120.35
X119.35Y-126.35
X119.35Y-129.35
X119.35Y-132.35
X122.35Y-42.35
X122.35Y-48.35
X122.35Y-51.35
X122.35Y-54.35
X122.35Y-69.35
X122.35Y-72.35
X122.35Y-75.35
X122.35Y-78.35
X122.35Y-81.35
X122.35Y-84.35
X122.35Y-87.35
X122.35Y-90.35
X122.35Y-93.35
X122.35Y-96.35
X122.35Y-99.35
X122.35Y-102.35
X122.35Y-105.35
X122.35Y-108.35
X122.35Y-111.35
X122.35Y-123.35
X122.35Y-126.35
X122.35Y-129.35
X122.35Y-132.35
X125.35Y-42.35
X125.35Y-48.35
X125.35Y-51.35
X125.35Y-54.35
X125.35Y-69.35
X125.35Y-72.35
X125.35Y-75.35
X125.35Y-78.35
X125.35Y-81.35
X125.35Y-84.35
X125.35Y-87.35
X125.35Y-90.35
X125.35Y-93.35
X125.35Y-96.35
X125.35Y-99.35
X125.35Y-102.35
X125.35Y-105.35
X125.35Y-108.35
X125.35Y-111.35
X125.35Y-123.35
X125.35Y-129.35
X127.5Y-61.25
X128.35Y-42.35
X128.35Y-45.35
X128.35Y-48.35
X128.35Y-51.35
X128.35Y-54.35
X128.35Y-69.35
X128.35Y-72.35
X128.35Y-75.35
X128.35Y-78.35
X128.35Y-81.35
X128.35Y-84.35
X128.35Y-87.35
X128.35Y-90.35
X128.35Y-93.35
X128.35Y-96.35
X128.35Y-99.35
X128.35Y-102.35
X128.35Y-105.35
X128.35Y-108.35
X128.35Y-111.35
X128.35Y-120.35
X128.35Y-123.35
X128.35Y-126.35
X131.35Y-45.35
X131.35Y-48.35
X131.35Y-51.35
X131.35Y-54.35
X131.35Y-66.35
X131.35Y-69.35
X131.35Y-72.35
X131.35Y-75.35
X131.35Y-78.35
X131.35Y-81.35
X131.35Y-84.35
X131.35Y-87.35
X131.35Y-90.35
X131.35Y-93.35
X131.35Y-96.35
X131.35Y-99.35
X131.35Y-102.35
X131.35Y-105.35
X131.35Y-108.35
X131.35Y-111.35
X131.35Y-120.35
X131.35Y-123.35
X131.35Y-129.35
X132.5Y-61.25
X134.35Y-45.35
X134.35Y-48.35
X134.35Y-51.35
X134.35Y-54.35
X134.35Y-69.35
X134.35Y-72.35
X134.35Y-75.35
X134.35Y-78.35
X134.35Y-81.35
X134.35Y-84.35
X134.35Y-87.35
X134.35Y-90.35
X134.35Y-93.35
X134.35Y-96.35
X134.35Y-99.35
X134.35Y-102.35
X134.35Y-105.35
X134.35Y-108.35
X134.35Y-111.35
X134.35Y-120.35
X134.35Y-126.35
X135.0Y-61.25
X137.35Y-45.35
X137.35Y-48.35
X137.35Y-51.35
X137.35Y-54.35
X137.35Y-69.35
X137.35Y-72.35
X137.35Y-75.35
X137.35Y-78.35
X137.35Y-81.35
X137.35Y-84.35
X137.35Y-87.35
X137.35Y-90.35
X137.35Y-93.35
X137.35Y-96.35
X137.35Y-99.35
X137.35Y-102.35
X137.35Y-105.35
X137.35Y-108.35
X137.35Y-129.35
X139.0Y-58.0
X139.0Y-88.25
X140.35Y-45.35
X140.35Y-48.35
X140.35Y-51.35
X140.35Y-54.35
X140.35Y-69.35
X140.35Y-72.35
X140.35Y-75.35
X140.35Y-78.35
X140.35Y-84.35
X140.35Y-96.35
X140.35Y-99.35
X140.35Y-102.35
X140.35Y-105.35
X140.35Y-111.35
X140.35Y-123.35
X140.35Y-126.35
X140.35Y-129.35
X140.35Y-132.35
X141.1Y-93.35
X141.25Y-64.25
X141.5Y-58.0
X142.75Y-85.5
X142.75Y-90.75
X143.35Y-42.35
X143.35Y-45.35
X143.35Y-48.35
X143.35Y-51.35
X143.35Y-54.35
X143.35Y-69.35
X143.35Y-72.35
X143.35Y-75.35
X143.35Y-78.35
X143.35Y-84.35
X143.35Y-93.35
X143.35Y-96.35
X143.35Y-99.35
X143.35Y-102.35
X143.35Y-108.35
X143.35Y-111.35
X143.35Y-120.35
X143.35Y-123.35
X143.35Y-126.35
X143.35Y-129.35
X143.35Y-132.35
X143.75Y-64.25
X146.35Y-42.35
X146.35Y-48.35
X146.35Y-51.35
X146.35Y-54.35
X146.35Y-57.35
X146.35Y-69.35
X146.35Y-72.35
X146.35Y-75.35
X146.35Y-78.35
X146.35Y-81.35
X146.35Y-105.35
X146.35Y-108.35
X146.35Y-111.35
X146.35Y-117.35
X146.35Y-120.35
X146.35Y-123.35
X146.35Y-126.35
X146.35Y-129.35
X149.35Y-42.35
X149.35Y-48.35
X149.35Y-51.35
X149.35Y-54.35
X149.35Y-69.35
X149.35Y-72.35
X149.35Y-75.35
X149.35Y-78.35
X149.35Y-81.35
X149.35Y-84.35
X149.35Y-87.35
X149.35Y-90.35
X149.35Y-93.35
X149.35Y-96.35
X149.35Y-99.35
X149.35Y-102.35
X149.35Y-105.35
X149.35Y-108.35
X149.35Y-111.35
X149.35Y-117.35
X149.35Y-120.35
X149.35Y-123.35
X149.35Y-126.35
X149.35Y-129.35
X149.75Y-61.25
X152.35Y-42.35
X152.35Y-45.35
X152.35Y-48.35
X152.35Y-51.35
X152.35Y-54.35
X152.35Y-69.35
X152.35Y-72.35
X152.35Y-75.35
X152.35Y-78.35
X152.35Y-81.35
X152.35Y-84.35
X152.35Y-87.35
X152.35Y-90.35
X152.35Y-93.35
X152.35Y-96.35
X152.35Y-99.35
X152.35Y-102.35
X152.35Y-105.35
X152.35Y-108.35
X152.35Y-111.35
X152.35Y-120.35
X152.35Y-123.35
X152.35Y-126.35
X154.25Y-61.25
X155.35Y-45.35
X155.35Y-48.35
X155.35Y-51.35
X155.35Y-54.35
X155.35Y-69.35
X155.35Y-72.35
X155.35Y-75.35
X155.35Y-78.35
X155.35Y-81.35
X155.35Y-84.35
X155.35Y-87.35
X155.35Y-90.35
X155.35Y-93.35
X155.35Y-96.35
X155.35Y-99.35
X155.35Y-102.35
X155.35Y-105.35
X155.35Y-108.35
X155.35Y-111.35
X155.35Y-117.35
X155.35Y-123.35
X157.0Y-61.25
X158.35Y-45.35
X158.35Y-48.35
X158.35Y-51.35
X158.35Y-54.35
X158.35Y-69.35
X158.35Y-72.35
X158.35Y-75.35
X158.35Y-78.35
X158.35Y-81.35
X158.35Y-84.35
X158.35Y-87.35
X158.35Y-90.35
X158.35Y-93.35
X158.35Y-96.35
X158.35Y-99.35
X158.35Y-102.35
X158.35Y-105.35
X158.35Y-108.35
X158.35Y-111.35
X158.35Y-114.35
X158.35Y-129.35
X161.35Y-45.35
X161.35Y-48.35
X161.35Y-51.35
X161.35Y-54.35
X161.35Y-69.35
X161.35Y-72.35
X161.35Y-75.35
X161.35Y-78.35
X161.35Y-81.35
X161.35Y-84.35
X161.35Y-87.35
X161.35Y-90.35
X161.35Y-93.35
X161.35Y-96.35
X161.35Y-99.35
X161.35Y-102.35
X161.35Y-105.35
X161.35Y-108.35
X161.35Y-111.35
X161.35Y-117.35
X161.35Y-123.35
X161.35Y-126.35
X161.35Y-129.35
X161.35Y-132.35
X163.5Y-58.0
X164.35Y-45.35
X164.35Y-48.35
X164.35Y-51.35
X164.35Y-54.35
X164.35Y-69.35
X164.35Y-72.35
X164.35Y-75.35
X164.35Y-78.35
X164.35Y-81.35
X164.35Y-84.35
X164.35Y-87.35
X164.35Y-90.35
X164.35Y-93.35
X164.35Y-96.35
X164.35Y-99.35
X164.35Y-102.35
X164.35Y-105.35
X164.35Y-108.35
X164.35Y-111.35
X164.35Y-117.35
X164.35Y-129.35
X164.35Y-132.35
X165.25Y-123.5
X166.0Y-58.0
X167.35Y-42.35
X167.35Y-45.35
X167.35Y-48.35
X167.35Y-51.35
X167.35Y-54.35
X167.35Y-69.35
X167.35Y-72.35
X167.35Y-75.35
X167.35Y-78.35
X167.35Y-81.35
X167.35Y-84.35
X167.35Y-87.35
X167.35Y-90.35
X167.35Y-93.35
X167.35Y-96.35
X167.35Y-99.35
X167.35Y-102.35
X167.35Y-105.35
X167.35Y-108.35
X167.35Y-111.35
X167.35Y-117.35
X167.35Y-120.35
X167.35Y-129.35
X167.35Y-135.35
X169.0Y-127.0
X170.35Y-42.35
X170.35Y-48.35
X170.35Y-51.35
X170.35Y-54.35
X170.35Y-57.35
X170.35Y-69.35
X170.35Y-72.35
X170.35Y-75.35
X170.35Y-78.35
X170.35Y-81.35
X170.35Y-84.35
X170.35Y-87.35
X170.35Y-90.35
X170.35Y-93.35
X170.35Y-96.35
X170.35Y-99.35
X170.35Y-102.35
X170.35Y-105.35
X170.35Y-108.35
X170.35Y-111.35
X170.35Y-117.35
X170.35Y-120.35
X170.35Y-123.35
X170.35Y-135.35
X171.75Y-130.5
X173.35Y-42.35
X173.35Y-48.35
X173.35Y-51.35
X173.35Y-54.35
X173.35Y-69.35
X173.35Y-72.35
X173.35Y-75.35
X173.35Y-78.35
X173.35Y-81.35
X173.35Y-84.35
X173.35Y-87.35
X173.35Y-90.35
X173.35Y-93.35
X173.35Y-96.35
X173.35Y-99.35
X173.35Y-102.35
X173.35Y-105.35
X173.35Y-108.35
X173.35Y-111.35
X173.35Y-117.35
X173.35Y-120.35
X173.35Y-123.35
X173.35Y-126.35
X173.35Y-135.35
X176.35Y-42.35
X176.35Y-45.35
X176.35Y-48.35
X176.35Y-51.35
X176.35Y-54.35
X176.35Y-69.35
X176.35Y-72.35
X176.35Y-75.35
X176.35Y-78.35
X176.35Y-81.35
X176.35Y-84.35
X176.35Y-87.35
X176.35Y-90.35
X176.35Y-93.35
X176.35Y-96.35
X176.35Y-99.35
X176.35Y-102.35
X176.35Y-105.35
X176.35Y-108.35
X176.35Y-111.35
X176.35Y-117.35
X176.35Y-120.35
X176.35Y-123.35
X176.35Y-126.35
X176.35Y-129.35
X176.35Y-135.35
X179.35Y-42.35
X179.35Y-45.35
X179.35Y-48.35
X179.35Y-51.35
X179.35Y-54.35
X179.35Y-69.35
X179.35Y-72.35
X179.35Y-75.35
X179.35Y-78.35
X179.35Y-81.35
X179.35Y-84.35
X179.35Y-87.35
X179.35Y-90.35
X179.35Y-93.35
X179.35Y-96.35
X179.35Y-99.35
X179.35Y-102.35
X179.35Y-105.35
X179.35Y-108.35
X179.35Y-111.35
X179.35Y-117.35
X179.35Y-120.35
X179.35Y-123.35
X179.35Y-129.35
X179.35Y-132.35
X179.35Y-135.35
X181.0Y-62.0
X182.35Y-48.35
X182.35Y-51.35
X182.35Y-54.35
X182.35Y-63.35
X182.35Y-111.35
X182.35Y-117.35
X182.35Y-120.35
X182.35Y-123.35
X182.35Y-126.35
X182.35Y-129.35
X182.35Y-132.35
X182.35Y-135.35
X183.75Y-62.0
X185.35Y-42.35
X185.35Y-45.35
X185.35Y-48.35
X185.35Y-51.35
X185.35Y-54.35
X185.35Y-57.35
X185.35Y-111.35
X185.35Y-117.35
X185.35Y-120.35
X185.35Y-123.35
X185.35Y-126.35
X185.35Y-129.35
X185.35Y-132.35
X185.35Y-135.35
X188.35Y-42.35
X188.35Y-45.35
X188.35Y-48.35
X188.35Y-51.35
X188.35Y-54.35
X188.35Y-57.35
X188.35Y-60.35
X188.35Y-63.35
X188.35Y-66.35
X188.35Y-69.35
X188.35Y-72.35
X188.35Y-75.35
X188.35Y-78.35
X188.35Y-81.35
X188.35Y-84.35
X188.35Y-87.35
X188.35Y-90.35
X188.35Y-93.35
X188.35Y-96.35
X188.35Y-99.35
X188.35Y-102.35
X188.35Y-105.35
X188.35Y-108.35
X188.35Y-111.35
X188.35Y-114.35
X188.35Y-117.35
X188.35Y-120.35
X188.35Y-123.35
X188.35Y-126.35
X188.35Y-129.35
X188.35Y-132.35
X188.35Y-135.35
T2
X103.9Y-121.5
X103.9Y-125.5
X116.6Y-121.5
X116.6Y-125.5
X124.4Y-121.5
X124.4Y-125.5
X137.1Y-121.5
X137.1Y-125.5
X144.9Y-121.5
X144.9Y-125.5
X157.6Y-121.5
X157.6Y-125.5
X165.4Y-121.5
X165.4Y-125.5
X178.1Y-121.5
X178.1Y-125.5
T3
X88.865Y-59.637
X91.405Y-59.637
X93.945Y-59.637
X96.485Y-59.637
X97.225Y-44.397
X99.025Y-59.637
X100.725Y-44.397
X101.565Y-59.637
X104.105Y-59.637
X106.645Y-59.637
X109.185Y-59.637
X113.365Y-59.637
X115.905Y-59.637
X118.445Y-59.637
X120.985Y-59.637
X121.725Y-44.397
X123.525Y-59.637
X125.225Y-44.397
X126.065Y-59.637
X128.605Y-59.637
X131.145Y-59.637
X133.685Y-59.637
X137.865Y-59.637
X140.405Y-59.637
X142.945Y-59.637
X145.485Y-59.637
X146.225Y-44.397
X148.025Y-59.637
X149.725Y-44.397
X150.565Y-59.637
X153.105Y-59.637
X155.645Y-59.637
X158.185Y-59.637
X162.365Y-59.637
X164.905Y-59.637
X167.445Y-59.637
X169.985Y-59.637
X170.725Y-44.397
X172.525Y-59.637
X174.225Y-44.397
X175.065Y-59.637
X177.605Y-59.637
X180.145Y-59.637
X182.685Y-59.637
T4
X106.666Y-66.37
X109.206Y-66.37
X111.746Y-66.37
X114.286Y-66.37
X115.81Y-114.63
X116.826Y-66.37
X118.35Y-114.63
X119.366Y-66.37
X120.89Y-114.63
X121.906Y-66.37
X123.43Y-114.63
X124.446Y-66.37
X125.97Y-114.63
X126.986Y-66.37
X128.51Y-114.63
X129.526Y-66.37
X131.05Y-114.63
X133.59Y-66.37
X133.59Y-114.63
X136.13Y-66.37
X138.67Y-66.37
X138.67Y-114.63
X141.21Y-66.37
X141.21Y-114.63
X143.75Y-66.37
X143.75Y-114.63
X146.29Y-66.37
X146.29Y-114.63
X148.83Y-66.37
X148.83Y-114.63
X151.37Y-66.37
X151.37Y-114.63
X153.91Y-114.63
X156.45Y-66.37
X156.45Y-114.63
X158.99Y-66.37
X161.53Y-66.37
X161.53Y-114.63
X164.07Y-66.37
X164.07Y-114.63
X166.61Y-66.37
X166.61Y-114.63
X169.15Y-66.37
X169.15Y-114.63
X171.69Y-66.37
X171.69Y-114.63
X174.23Y-66.37
X174.23Y-114.63
X176.77Y-114.63
X179.31Y-114.63
X181.85Y-66.37
X181.85Y-68.91
X181.85Y-71.45
X181.85Y-73.99
X181.85Y-76.53
X181.85Y-79.07
X181.85Y-81.61
X181.85Y-84.15
X181.85Y-86.69
X181.85Y-89.23
X181.85Y-91.77
X181.85Y-94.31
X181.85Y-96.85
X181.85Y-99.39
X181.85Y-101.93
X181.85Y-104.47
X181.85Y-107.01
X181.85Y-109.55
X184.39Y-66.37
X184.39Y-68.91
X184.39Y-71.45
X184.39Y-73.99
X184.39Y-76.53
X184.39Y-79.07
X184.39Y-81.61
X184.39Y-84.15
X184.39Y-86.69
X184.39Y-89.23
X184.39Y-91.77
X184.39Y-94.31
X184.39Y-96.85
X184.39Y-99.39
X184.39Y-101.93
X184.39Y-104.47
X184.39Y-107.01
X184.39Y-109.55
T5
X91.5Y-132.25
X95.0Y-132.25
X105.0Y-132.25
X108.5Y-132.25
X112.0Y-132.25
X115.5Y-132.25
X125.5Y-132.25
X129.0Y-132.25
X132.5Y-132.25
X136.0Y-132.25
X146.0Y-132.25
X149.5Y-132.25
X153.0Y-132.25
X156.5Y-132.25
X166.5Y-132.25
X170.0Y-132.25
X173.5Y-132.25
X177.0Y-132.25
T6
X89.5Y-43.0
X108.55Y-43.0
X114.0Y-43.0
X133.05Y-43.0
X138.5Y-43.0
X157.55Y-43.0
X163.0Y-43.0
X182.05Y-43.0
M30
