%TF.GenerationSoftware,KiCad,Pcbnew,10.0.6*%
%TF.CreationDate,2026-09-03T18:41:46+01:00*%
%TF.ProjectId,DAQ_V1,4441515f-5631-42e6-9b69-6361645f7063,rev?*%
%TF.SameCoordinates,Original*%
%TF.FileFunction,Copper,L1,Top*%
%TF.FilePolarity,Positive*%
%FSLAX46Y46*%
G04 Gerber Fmt 4.6, Leading zero omitted, Abs format (unit mm)*
G04 Created by KiCad (PCBNEW 10.0.6) date 2026-09-03 18:41:46*
%MOMM*%
%LPD*%
G01*
G04 APERTURE LIST*
G04 Aperture macros list*
%AMRoundRect*
0 Rectangle with rounded corners*
0 $1 Rounding radius*
0 $2 $3 $4 $5 $6 $7 $8 $9 X,Y pos of 4 corners*
0 Add a 4 corners polygon primitive as box body*
4,1,4,$2,$3,$4,$5,$6,$7,$8,$9,$2,$3,0*
0 Add four circle primitives for the rounded corners*
1,1,$1+$1,$2,$3*
1,1,$1+$1,$4,$5*
1,1,$1+$1,$6,$7*
1,1,$1+$1,$8,$9*
0 Add four rect primitives between the rounded corners*
20,1,$1+$1,$2,$3,$4,$5,0*
20,1,$1+$1,$4,$5,$6,$7,0*
20,1,$1+$1,$6,$7,$8,$9,0*
20,1,$1+$1,$8,$9,$2,$3,0*%
G04 Aperture macros list end*
%TA.AperFunction,ComponentPad*%
%ADD10O,1.727200X1.727200*%
%TD*%
%TA.AperFunction,ComponentPad*%
%ADD11R,1.727200X1.727200*%
%TD*%
%TA.AperFunction,ComponentPad*%
%ADD12C,3.200000*%
%TD*%
%TA.AperFunction,ComponentPad*%
%ADD13C,1.778000*%
%TD*%
%TA.AperFunction,ComponentPad*%
%ADD14C,2.184400*%
%TD*%
%TA.AperFunction,ComponentPad*%
%ADD15C,1.400000*%
%TD*%
%TA.AperFunction,ComponentPad*%
%ADD16C,2.800000*%
%TD*%
%TA.AperFunction,ComponentPad*%
%ADD17RoundRect,0.250001X-1.149999X-1.149999X1.149999X-1.149999X1.149999X1.149999X-1.149999X1.149999X0*%
%TD*%
%TA.AperFunction,Conductor*%
%ADD18C,0.200000*%
%TD*%
G04 APERTURE END LIST*
D10*
%TO.P,A2,*%
%TO.N,*%
X115810000Y-114630000D03*
%TO.P,A2,3V3,3.3V_3V3*%
%TO.N,unconnected-(A2-3.3V-Pad3V3)*%
X123430000Y-114630000D03*
%TO.P,A2,5V1,5V_5V1*%
%TO.N,unconnected-(A2-5V-Pad5V1)*%
X125970000Y-114630000D03*
%TO.P,A2,5V2,SPI_5V_5V2*%
%TO.N,unconnected-(A2-SPI_5V-Pad5V2)*%
X154037000Y-86690000D03*
%TO.P,A2,5V3,5V_5V3*%
%TO.N,Net-(U1-Vin)*%
X181850000Y-66370000D03*
%TO.P,A2,5V4,5V_5V4*%
%TO.N,unconnected-(A2-5V-Pad5V4)*%
X184390000Y-66370000D03*
%TO.P,A2,A0,A0_A0*%
%TO.N,Net-(J2-Pin_2)*%
X138670000Y-114630000D03*
%TO.P,A2,A1,A1_A1*%
%TO.N,Net-(J2-Pin_3)*%
X141210000Y-114630000D03*
%TO.P,A2,A2,A2_A2*%
%TO.N,Net-(J3-Pin_2)*%
X143750000Y-114630000D03*
%TO.P,A2,A3,A3_A3*%
%TO.N,Net-(J3-Pin_3)*%
X146290000Y-114630000D03*
%TO.P,A2,A4,A4_A4*%
%TO.N,Net-(J4-Pin_2)*%
X148830000Y-114630000D03*
%TO.P,A2,A5,A5_A5*%
%TO.N,Net-(J4-Pin_3)*%
X151370000Y-114630000D03*
%TO.P,A2,A6,A6_A6*%
%TO.N,Net-(J5-Pin_2)*%
X153910000Y-114630000D03*
%TO.P,A2,A7,A7_A7*%
%TO.N,Net-(J5-Pin_3)*%
X156450000Y-114630000D03*
%TO.P,A2,A8,A8_A8*%
%TO.N,unconnected-(A2-PadA8)*%
X161530000Y-114630000D03*
%TO.P,A2,A9,A9_A9*%
%TO.N,unconnected-(A2-PadA9)*%
X164070000Y-114630000D03*
%TO.P,A2,A10,A10_A10*%
%TO.N,unconnected-(A2-PadA10)*%
X166610000Y-114630000D03*
%TO.P,A2,A11,A11_A11*%
%TO.N,unconnected-(A2-PadA11)*%
X169150000Y-114630000D03*
%TO.P,A2,A12,A12_A12*%
%TO.N,unconnected-(A2-PadA12)*%
X171690000Y-114630000D03*
%TO.P,A2,A13,A13_A13*%
%TO.N,unconnected-(A2-PadA13)*%
X174230000Y-114630000D03*
%TO.P,A2,A14,A14_A14*%
%TO.N,unconnected-(A2-PadA14)*%
X176770000Y-114630000D03*
%TO.P,A2,A15,A15_A15*%
%TO.N,unconnected-(A2-PadA15)*%
X179310000Y-114630000D03*
%TO.P,A2,AREF,AREF_AREF*%
%TO.N,unconnected-(A2-PadAREF)*%
X111746000Y-66370000D03*
%TO.P,A2,D0,D0/RX0_D0*%
%TO.N,unconnected-(A2-D0{slash}RX0-PadD0)*%
X151370000Y-66370000D03*
%TO.P,A2,D1,D1/TX0_D1*%
%TO.N,unconnected-(A2-D1{slash}TX0-PadD1)*%
X148830000Y-66370000D03*
%TO.P,A2,D2,D2_INT0_D2*%
%TO.N,Net-(A2-D2_INT0)*%
X146290000Y-66370000D03*
%TO.P,A2,D3,D3_INT1_D3*%
%TO.N,Net-(A2-D3_INT1)*%
X143750000Y-66370000D03*
%TO.P,A2,D4,D4_D4*%
%TO.N,Net-(U2-CS)*%
X141210000Y-66370000D03*
%TO.P,A2,D5,D5_D5*%
%TO.N,Net-(U1-CS)*%
X138670000Y-66370000D03*
%TO.P,A2,D6,D6_D6*%
%TO.N,unconnected-(A2-PadD6)*%
X136130000Y-66370000D03*
%TO.P,A2,D7,D7_D7*%
%TO.N,unconnected-(A2-PadD7)*%
X133590000Y-66370000D03*
%TO.P,A2,D8,D8_D8*%
%TO.N,unconnected-(A2-PadD8)*%
X129526000Y-66370000D03*
%TO.P,A2,D9,D9_D9*%
%TO.N,unconnected-(A2-PadD9)*%
X126986000Y-66370000D03*
%TO.P,A2,D10,D10_D10*%
%TO.N,unconnected-(A2-PadD10)*%
X124446000Y-66370000D03*
%TO.P,A2,D11,D11_D11*%
%TO.N,unconnected-(A2-PadD11)*%
X121906000Y-66370000D03*
%TO.P,A2,D12,D12_D12*%
%TO.N,unconnected-(A2-PadD12)*%
X119366000Y-66370000D03*
%TO.P,A2,D13,D13_D13*%
%TO.N,unconnected-(A2-PadD13)*%
X116826000Y-66370000D03*
%TO.P,A2,D14,D14/TX3_D14*%
%TO.N,unconnected-(A2-D14{slash}TX3-PadD14)*%
X156450000Y-66370000D03*
%TO.P,A2,D15,D15/RX3_D15*%
%TO.N,unconnected-(A2-D15{slash}RX3-PadD15)*%
X158990000Y-66370000D03*
%TO.P,A2,D16,D16/TX2_D16*%
%TO.N,unconnected-(A2-D16{slash}TX2-PadD16)*%
X161530000Y-66370000D03*
%TO.P,A2,D17,D17/RX2_D17*%
%TO.N,unconnected-(A2-D17{slash}RX2-PadD17)*%
X164070000Y-66370000D03*
%TO.P,A2,D18,D18/TX1_D18*%
%TO.N,unconnected-(A2-D18{slash}TX1-PadD18)*%
X166610000Y-66370000D03*
%TO.P,A2,D19,D19/RX1_D19*%
%TO.N,unconnected-(A2-D19{slash}RX1-PadD19)*%
X169150000Y-66370000D03*
%TO.P,A2,D20,D20/SDA_D20*%
%TO.N,unconnected-(A2-D20{slash}SDA-PadD20)*%
X171690000Y-66370000D03*
%TO.P,A2,D21,D21/SCL_D21*%
%TO.N,unconnected-(A2-D21{slash}SCL-PadD21)*%
X174230000Y-66370000D03*
%TO.P,A2,D22,D22_D22*%
%TO.N,unconnected-(A2-PadD22)*%
X181850000Y-68910000D03*
%TO.P,A2,D23,D23_D23*%
%TO.N,unconnected-(A2-PadD23)*%
X184390000Y-68910000D03*
%TO.P,A2,D24,D24_D24*%
%TO.N,unconnected-(A2-PadD24)*%
X181850000Y-71450000D03*
%TO.P,A2,D25,D25_D25*%
%TO.N,unconnected-(A2-PadD25)*%
X184390000Y-71450000D03*
%TO.P,A2,D26,D26_D26*%
%TO.N,unconnected-(A2-PadD26)*%
X181850000Y-73990000D03*
%TO.P,A2,D27,D27_D27*%
%TO.N,unconnected-(A2-PadD27)*%
X184390000Y-73990000D03*
%TO.P,A2,D28,D28_D28*%
%TO.N,unconnected-(A2-PadD28)*%
X181850000Y-76530000D03*
%TO.P,A2,D29,D29_D29*%
%TO.N,unconnected-(A2-PadD29)*%
X184390000Y-76530000D03*
%TO.P,A2,D30,D30_D30*%
%TO.N,unconnected-(A2-PadD30)*%
X181850000Y-79070000D03*
%TO.P,A2,D31,D31_D31*%
%TO.N,unconnected-(A2-PadD31)*%
X184390000Y-79070000D03*
%TO.P,A2,D32,D32_D32*%
%TO.N,unconnected-(A2-PadD32)*%
X181850000Y-81610000D03*
%TO.P,A2,D33,D33_D33*%
%TO.N,unconnected-(A2-PadD33)*%
X184390000Y-81610000D03*
%TO.P,A2,D34,D34_D34*%
%TO.N,unconnected-(A2-PadD34)*%
X181850000Y-84150000D03*
%TO.P,A2,D35,D35_D35*%
%TO.N,unconnected-(A2-PadD35)*%
X184390000Y-84150000D03*
%TO.P,A2,D36,D36_D36*%
%TO.N,unconnected-(A2-PadD36)*%
X181850000Y-86690000D03*
%TO.P,A2,D37,D37_D37*%
%TO.N,unconnected-(A2-PadD37)*%
X184390000Y-86690000D03*
%TO.P,A2,D38,D38_D38*%
%TO.N,unconnected-(A2-PadD38)*%
X181850000Y-89230000D03*
%TO.P,A2,D39,D39_D39*%
%TO.N,unconnected-(A2-PadD39)*%
X184390000Y-89230000D03*
%TO.P,A2,D40,D40_D40*%
%TO.N,unconnected-(A2-PadD40)*%
X181850000Y-91770000D03*
%TO.P,A2,D41,D41_D41*%
%TO.N,unconnected-(A2-PadD41)*%
X184390000Y-91770000D03*
%TO.P,A2,D42,D42_D42*%
%TO.N,unconnected-(A2-PadD42)*%
X181850000Y-94310000D03*
%TO.P,A2,D43,D43_D43*%
%TO.N,unconnected-(A2-PadD43)*%
X184390000Y-94310000D03*
%TO.P,A2,D44,D44_D44*%
%TO.N,unconnected-(A2-PadD44)*%
X181850000Y-96850000D03*
%TO.P,A2,D45,D45_D45*%
%TO.N,unconnected-(A2-PadD45)*%
X184390000Y-96850000D03*
%TO.P,A2,D46,D46_D46*%
%TO.N,unconnected-(A2-PadD46)*%
X181850000Y-99390000D03*
%TO.P,A2,D47,D47_D47*%
%TO.N,unconnected-(A2-PadD47)*%
X184390000Y-99390000D03*
%TO.P,A2,D48,D48_D48*%
%TO.N,unconnected-(A2-PadD48)*%
X181850000Y-101930000D03*
%TO.P,A2,D49,D49_D49*%
%TO.N,unconnected-(A2-PadD49)*%
X184390000Y-101930000D03*
%TO.P,A2,D50,D50_MISO_D50*%
%TO.N,Net-(A2-D50_MISO)*%
X181850000Y-104470000D03*
%TO.P,A2,D51,D51_MOSI_D51*%
%TO.N,Net-(A2-D51_MOSI)*%
X184390000Y-104470000D03*
%TO.P,A2,D52,D52_SCK_D52*%
%TO.N,Net-(A2-D52_SCK)*%
X181850000Y-107010000D03*
%TO.P,A2,D53,D53_CS_D53*%
%TO.N,unconnected-(A2-D53_CS-PadD53)*%
X184390000Y-107010000D03*
D11*
%TO.P,A2,GND1,GND_GND1*%
%TO.N,GND*%
X114286000Y-66370000D03*
%TO.P,A2,GND2,GND_GND2*%
%TO.N,GND2*%
X128510000Y-114630000D03*
%TO.P,A2,GND3,GND_GND3*%
%TO.N,unconnected-(A2-GND-PadGND3)*%
X131050000Y-114630000D03*
%TO.P,A2,GND4,SPI_GND_GND4*%
%TO.N,unconnected-(A2-SPI_GND-PadGND4)*%
X154037000Y-91770000D03*
%TO.P,A2,GND5,GND_GND5*%
%TO.N,unconnected-(A2-GND-PadGND5)*%
X181850000Y-109550000D03*
%TO.P,A2,GND6,GND_GND6*%
%TO.N,unconnected-(A2-GND-PadGND6)*%
X184390000Y-109550000D03*
D10*
%TO.P,A2,IORF,IOREF_IORF*%
%TO.N,unconnected-(A2-IOREF-PadIORF)*%
X118350000Y-114630000D03*
%TO.P,A2,MISO,SPI_MISO_MISO*%
%TO.N,unconnected-(A2-SPI_MISO-PadMISO)*%
X151497000Y-86690000D03*
%TO.P,A2,MOSI,SPI_MOSI_MOSI*%
%TO.N,unconnected-(A2-SPI_MOSI-PadMOSI)*%
X154037000Y-89230000D03*
%TO.P,A2,RST1,RESET_RST1*%
%TO.N,unconnected-(A2-RESET-PadRST1)*%
X120890000Y-114630000D03*
%TO.P,A2,RST2,SPI_RESET_RST2*%
%TO.N,unconnected-(A2-SPI_RESET-PadRST2)*%
X151497000Y-91770000D03*
%TO.P,A2,SCK,SPI_SCK_SCK*%
%TO.N,unconnected-(A2-SPI_SCK-PadSCK)*%
X151497000Y-89230000D03*
%TO.P,A2,SCL,SCL_SCL*%
%TO.N,unconnected-(A2-PadSCL)*%
X106666000Y-66370000D03*
%TO.P,A2,SDA,SDA_SDA*%
%TO.N,unconnected-(A2-PadSDA)*%
X109206000Y-66370000D03*
%TO.P,A2,VIN,VIN_VIN*%
%TO.N,Net-(U5-Vin+)*%
X133590000Y-114630000D03*
%TD*%
D12*
%TO.P,U1,P$1*%
%TO.N,N/C*%
X108550000Y-43000000D03*
X89500000Y-43000000D03*
D13*
%TO.P,U1,9,DRDY_9*%
%TO.N,unconnected-(U1-DRDY-Pad9)*%
X109185000Y-59637000D03*
%TO.P,U1,8,FLT_8*%
%TO.N,unconnected-(U1-FLT-Pad8)*%
X106645000Y-59637000D03*
%TO.P,U1,7,CS_7*%
%TO.N,Net-(U1-CS)*%
X104105000Y-59637000D03*
%TO.P,U1,6,SDI_6*%
%TO.N,Net-(A2-D51_MOSI)*%
X101565000Y-59637000D03*
%TO.P,U1,5,SDO_5*%
%TO.N,Net-(A2-D50_MISO)*%
X99025000Y-59637000D03*
%TO.P,U1,4,SCK_4*%
%TO.N,Net-(A2-D52_SCK)*%
X96485000Y-59637000D03*
%TO.P,U1,3,GND_3*%
%TO.N,GND*%
X93945000Y-59637000D03*
D14*
%TO.P,U1,11,T-_11*%
%TO.N,unconnected-(U1-T--Pad11)*%
X100725000Y-44397000D03*
D13*
%TO.P,U1,2,3Vo_2*%
%TO.N,unconnected-(U1-3Vo-Pad2)*%
X91405000Y-59637000D03*
D14*
%TO.P,U1,10,T+_10*%
%TO.N,unconnected-(U1-T+-Pad10)*%
X97225000Y-44397000D03*
D13*
%TO.P,U1,1,Vin_1*%
%TO.N,Net-(U1-Vin)*%
X88865000Y-59637000D03*
%TD*%
D12*
%TO.P,U2,P$1*%
%TO.N,N/C*%
X133050000Y-43000000D03*
X114000000Y-43000000D03*
D13*
%TO.P,U2,9,DRDY_9*%
%TO.N,unconnected-(U2-DRDY-Pad9)*%
X133685000Y-59637000D03*
%TO.P,U2,8,FLT_8*%
%TO.N,unconnected-(U2-FLT-Pad8)*%
X131145000Y-59637000D03*
%TO.P,U2,7,CS_7*%
%TO.N,Net-(U2-CS)*%
X128605000Y-59637000D03*
%TO.P,U2,6,SDI_6*%
%TO.N,Net-(A2-D51_MOSI)*%
X126065000Y-59637000D03*
%TO.P,U2,5,SDO_5*%
%TO.N,Net-(A2-D50_MISO)*%
X123525000Y-59637000D03*
%TO.P,U2,4,SCK_4*%
%TO.N,Net-(A2-D52_SCK)*%
X120985000Y-59637000D03*
%TO.P,U2,3,GND_3*%
%TO.N,GND*%
X118445000Y-59637000D03*
D14*
%TO.P,U2,11,T-_11*%
%TO.N,unconnected-(U2-T--Pad11)*%
X125225000Y-44397000D03*
D13*
%TO.P,U2,2,3Vo_2*%
%TO.N,unconnected-(U2-3Vo-Pad2)*%
X115905000Y-59637000D03*
D14*
%TO.P,U2,10,T+_10*%
%TO.N,unconnected-(U2-T+-Pad10)*%
X121725000Y-44397000D03*
D13*
%TO.P,U2,1,Vin_1*%
%TO.N,Net-(U1-Vin)*%
X113365000Y-59637000D03*
%TD*%
D12*
%TO.P,U3,P$1*%
%TO.N,N/C*%
X157550000Y-43000000D03*
X138500000Y-43000000D03*
D13*
%TO.P,U3,9,DRDY_9*%
%TO.N,unconnected-(U3-DRDY-Pad9)*%
X158185000Y-59637000D03*
%TO.P,U3,8,FLT_8*%
%TO.N,unconnected-(U3-FLT-Pad8)*%
X155645000Y-59637000D03*
%TO.P,U3,7,CS_7*%
%TO.N,Net-(A2-D3_INT1)*%
X153105000Y-59637000D03*
%TO.P,U3,6,SDI_6*%
%TO.N,Net-(A2-D51_MOSI)*%
X150565000Y-59637000D03*
%TO.P,U3,5,SDO_5*%
%TO.N,Net-(A2-D50_MISO)*%
X148025000Y-59637000D03*
%TO.P,U3,4,SCK_4*%
%TO.N,Net-(A2-D52_SCK)*%
X145485000Y-59637000D03*
%TO.P,U3,3,GND_3*%
%TO.N,GND*%
X142945000Y-59637000D03*
D14*
%TO.P,U3,11,T-_11*%
%TO.N,unconnected-(U3-T--Pad11)*%
X149725000Y-44397000D03*
D13*
%TO.P,U3,2,3Vo_2*%
%TO.N,unconnected-(U3-3Vo-Pad2)*%
X140405000Y-59637000D03*
D14*
%TO.P,U3,10,T+_10*%
%TO.N,unconnected-(U3-T+-Pad10)*%
X146225000Y-44397000D03*
D13*
%TO.P,U3,1,Vin_1*%
%TO.N,Net-(U1-Vin)*%
X137865000Y-59637000D03*
%TD*%
D12*
%TO.P,U4,P$1*%
%TO.N,N/C*%
X182050000Y-43000000D03*
X163000000Y-43000000D03*
D13*
%TO.P,U4,9,DRDY_9*%
%TO.N,unconnected-(U4-DRDY-Pad9)*%
X182685000Y-59637000D03*
%TO.P,U4,8,FLT_8*%
%TO.N,unconnected-(U4-FLT-Pad8)*%
X180145000Y-59637000D03*
%TO.P,U4,7,CS_7*%
%TO.N,Net-(A2-D2_INT0)*%
X177605000Y-59637000D03*
%TO.P,U4,6,SDI_6*%
%TO.N,Net-(A2-D51_MOSI)*%
X175065000Y-59637000D03*
%TO.P,U4,5,SDO_5*%
%TO.N,Net-(A2-D50_MISO)*%
X172525000Y-59637000D03*
%TO.P,U4,4,SCK_4*%
%TO.N,Net-(A2-D52_SCK)*%
X169985000Y-59637000D03*
%TO.P,U4,3,GND_3*%
%TO.N,GND*%
X167445000Y-59637000D03*
D14*
%TO.P,U4,11,T-_11*%
%TO.N,unconnected-(U4-T--Pad11)*%
X174225000Y-44397000D03*
D13*
%TO.P,U4,2,3Vo_2*%
%TO.N,unconnected-(U4-3Vo-Pad2)*%
X164905000Y-59637000D03*
D14*
%TO.P,U4,10,T+_10*%
%TO.N,unconnected-(U4-T+-Pad10)*%
X170725000Y-44397000D03*
D13*
%TO.P,U4,1,Vin_1*%
%TO.N,Net-(U1-Vin)*%
X162365000Y-59637000D03*
%TD*%
D15*
%TO.P,R8,1*%
%TO.N,Net-(J5-Pin_3)*%
X169000000Y-122925000D03*
%TO.P,R8,2*%
%TO.N,GND2*%
X169000000Y-120385000D03*
%TD*%
%TO.P,R7,1*%
%TO.N,Net-(J5-Pin_2)*%
X164000000Y-122925000D03*
%TO.P,R7,2*%
%TO.N,GND2*%
X164000000Y-120385000D03*
%TD*%
%TO.P,R6,1*%
%TO.N,Net-(J4-Pin_3)*%
X146500000Y-122925000D03*
%TO.P,R6,2*%
%TO.N,GND2*%
X146500000Y-120385000D03*
%TD*%
%TO.P,R5,1*%
%TO.N,Net-(J4-Pin_2)*%
X141500000Y-122925000D03*
%TO.P,R5,2*%
%TO.N,GND2*%
X141500000Y-120385000D03*
%TD*%
%TO.P,R4,1*%
%TO.N,Net-(J3-Pin_3)*%
X124000000Y-122925000D03*
%TO.P,R4,2*%
%TO.N,GND2*%
X124000000Y-120385000D03*
%TD*%
%TO.P,R3,1*%
%TO.N,Net-(J3-Pin_2)*%
X119000000Y-122925000D03*
%TO.P,R3,2*%
%TO.N,GND2*%
X119000000Y-120385000D03*
%TD*%
%TO.P,R2,1*%
%TO.N,Net-(J2-Pin_3)*%
X101500000Y-122925000D03*
%TO.P,R2,2*%
%TO.N,GND2*%
X101500000Y-120385000D03*
%TD*%
%TO.P,R1,1*%
%TO.N,Net-(J2-Pin_2)*%
X96500000Y-122925000D03*
%TO.P,R1,2*%
%TO.N,GND2*%
X96500000Y-120385000D03*
%TD*%
D16*
%TO.P,J2,4,Pin_4_4*%
%TO.N,unconnected-(J2-Pin_4-Pad4)*%
X106500000Y-130000000D03*
%TO.P,J2,3,Pin_3_3*%
%TO.N,Net-(J2-Pin_3)*%
X101500000Y-130000000D03*
%TO.P,J2,2,Pin_2_2*%
%TO.N,Net-(J2-Pin_2)*%
X96500000Y-130000000D03*
D17*
%TO.P,J2,1,Pin_1_1*%
%TO.N,Net-(J2-Pin_1)*%
X91500000Y-130000000D03*
%TD*%
%TO.P,J5,1,Pin_1_1*%
%TO.N,Net-(J2-Pin_1)*%
X159000000Y-130000000D03*
D16*
%TO.P,J5,2,Pin_2_2*%
%TO.N,Net-(J5-Pin_2)*%
X164000000Y-130000000D03*
%TO.P,J5,3,Pin_3_3*%
%TO.N,Net-(J5-Pin_3)*%
X169000000Y-130000000D03*
%TO.P,J5,4,Pin_4_4*%
%TO.N,unconnected-(J5-Pin_4-Pad4)*%
X174000000Y-130000000D03*
%TD*%
D17*
%TO.P,J4,1,Pin_1_1*%
%TO.N,Net-(J2-Pin_1)*%
X136500000Y-130000000D03*
D16*
%TO.P,J4,2,Pin_2_2*%
%TO.N,Net-(J4-Pin_2)*%
X141500000Y-130000000D03*
%TO.P,J4,3,Pin_3_3*%
%TO.N,Net-(J4-Pin_3)*%
X146500000Y-130000000D03*
%TO.P,J4,4,Pin_4_4*%
%TO.N,unconnected-(J4-Pin_4-Pad4)*%
X151500000Y-130000000D03*
%TD*%
D17*
%TO.P,J3,1,Pin_1_1*%
%TO.N,Net-(J2-Pin_1)*%
X114000000Y-130000000D03*
D16*
%TO.P,J3,2,Pin_2_2*%
%TO.N,Net-(J3-Pin_2)*%
X119000000Y-130000000D03*
%TO.P,J3,3,Pin_3_3*%
%TO.N,Net-(J3-Pin_3)*%
X124000000Y-130000000D03*
%TO.P,J3,4,Pin_4_4*%
%TO.N,unconnected-(J3-Pin_4-Pad4)*%
X129000000Y-130000000D03*
%TD*%
%TO.N,Net-(A2-D52_SCK)*%
D18*
X169985000Y-59637000D02*
X173066400Y-62718400D01*
X173066400Y-62718400D02*
X173066400Y-66851979D01*
X173066400Y-66851979D02*
X175290000Y-69075579D01*
X175290000Y-69075579D02*
X175290000Y-100450000D01*
X175290000Y-100450000D02*
X181850000Y-107010000D01*
%TO.N,Net-(A2-D50_MISO)*%
X172525000Y-59637000D02*
X175690000Y-62802000D01*
X175690000Y-62802000D02*
X175690000Y-98310000D01*
X175690000Y-98310000D02*
X181850000Y-104470000D01*
%TO.N,Net-(A2-D51_MOSI)*%
X175065000Y-59637000D02*
X176090000Y-60662000D01*
X176090000Y-60662000D02*
X176090000Y-97815579D01*
X176090000Y-97815579D02*
X181580821Y-103306400D01*
X181580821Y-103306400D02*
X183226400Y-103306400D01*
X183226400Y-103306400D02*
X184390000Y-104470000D01*
%TO.N,Net-(J2-Pin_2)*%
X138670000Y-114630000D02*
X135115000Y-118185000D01*
X135115000Y-118185000D02*
X101240000Y-118185000D01*
X101240000Y-118185000D02*
X96500000Y-122925000D01*
%TO.N,Net-(J2-Pin_3)*%
X141210000Y-114630000D02*
X137255000Y-118585000D01*
X137255000Y-118585000D02*
X105840000Y-118585000D01*
X105840000Y-118585000D02*
X101500000Y-122925000D01*
%TO.N,Net-(J3-Pin_2)*%
X119000000Y-122925000D02*
X122940000Y-118985000D01*
X122940000Y-118985000D02*
X139395000Y-118985000D01*
X139395000Y-118985000D02*
X143750000Y-114630000D01*
%TO.N,Net-(J3-Pin_3)*%
X124000000Y-122925000D02*
X127540000Y-119385000D01*
X127540000Y-119385000D02*
X141535000Y-119385000D01*
X141535000Y-119385000D02*
X146290000Y-114630000D01*
%TO.N,Net-(J5-Pin_3)*%
X169000000Y-122925000D02*
X165075000Y-119000000D01*
X165075000Y-119000000D02*
X160820000Y-119000000D01*
X160820000Y-119000000D02*
X156450000Y-114630000D01*
%TO.N,Net-(J5-Pin_2)*%
X164000000Y-122925000D02*
X162205000Y-122925000D01*
X162205000Y-122925000D02*
X153910000Y-114630000D01*
%TO.N,Net-(J4-Pin_3)*%
X146500000Y-122925000D02*
X151370000Y-118055000D01*
X151370000Y-118055000D02*
X151370000Y-114630000D01*
%TO.N,Net-(J4-Pin_2)*%
X141500000Y-122925000D02*
X141500000Y-121960000D01*
X141500000Y-121960000D02*
X148830000Y-114630000D01*
%TO.N,Net-(J5-Pin_3)*%
X169000000Y-130000000D02*
X169000000Y-122925000D01*
%TO.N,Net-(J5-Pin_2)*%
X164000000Y-130000000D02*
X164000000Y-122925000D01*
%TO.N,Net-(J4-Pin_3)*%
X146500000Y-130000000D02*
X146500000Y-122925000D01*
%TO.N,Net-(J4-Pin_2)*%
X141500000Y-130000000D02*
X141500000Y-122925000D01*
%TO.N,Net-(J3-Pin_3)*%
X124000000Y-130000000D02*
X124000000Y-122925000D01*
%TO.N,Net-(J3-Pin_2)*%
X119000000Y-130000000D02*
X119000000Y-122925000D01*
%TO.N,Net-(J2-Pin_3)*%
X101500000Y-130000000D02*
X101500000Y-122925000D01*
%TO.N,Net-(J2-Pin_2)*%
X96500000Y-130000000D02*
X96500000Y-122925000D01*
%TO.N,GND*%
X114286000Y-66370000D02*
X114286000Y-65286000D01*
X114286000Y-65286000D02*
X111000000Y-62000000D01*
X111000000Y-62000000D02*
X96308000Y-62000000D01*
X96308000Y-62000000D02*
X93945000Y-59637000D01*
X114286000Y-66370000D02*
X114286000Y-65714000D01*
X114286000Y-65714000D02*
X118000000Y-62000000D01*
X118000000Y-62000000D02*
X165082000Y-62000000D01*
X165082000Y-62000000D02*
X167445000Y-59637000D01*
X114286000Y-66370000D02*
X114286000Y-64714000D01*
X114286000Y-64714000D02*
X117500000Y-61500000D01*
X117500000Y-61500000D02*
X141082000Y-61500000D01*
X141082000Y-61500000D02*
X142945000Y-59637000D01*
X114286000Y-66370000D02*
X114286000Y-63796000D01*
X114286000Y-63796000D02*
X118445000Y-59637000D01*
%TD*%
M02*
